<svg width="83" height="20" viewBox="0 0 83 20" fill="none" xmlns="http://www.w3.org/2000/svg">
<g clip-path="url(#clip0_1953_4570)">
<path d="M26.7792 19.7216C26.6239 19.9014 26.4134 19.9999 26.1718 19.9999C25.8681 19.9999 25.63 19.8709 25.2918 19.5281C24.5981 19.4908 24.0942 18.9851 24.0942 18.3165C24.0942 17.648 24.6395 17.1016 25.3815 17.1016C26.1235 17.1016 26.6619 17.6174 26.6619 18.3165C26.6619 18.9071 26.2753 19.3652 25.7128 19.4942C25.875 19.6639 26.02 19.7318 26.1753 19.7318C26.3478 19.7318 26.4928 19.6639 26.617 19.5281L26.7792 19.7216ZM25.3815 19.2295C25.9164 19.2295 26.3168 18.8392 26.3168 18.3165C26.3168 17.7939 25.9164 17.4036 25.3815 17.4036C24.8466 17.4036 24.4393 17.7939 24.4393 18.3165C24.4393 18.8392 24.8397 19.2295 25.3815 19.2295Z" fill="white"/>
<path d="M27.5144 18.4796V17.1289H27.8595V18.4661C27.8595 18.9921 28.1045 19.2297 28.5394 19.2297C28.9742 19.2297 29.2227 18.9921 29.2227 18.4661V17.1289H29.5575V18.4796C29.5575 19.1686 29.1744 19.5317 28.5359 19.5317C27.8975 19.5317 27.5144 19.1686 27.5144 18.4796Z" fill="white"/>
<path d="M32.0969 18.9106H30.8131L30.5474 19.5046H30.1919L31.2859 17.1289H31.6276L32.725 19.5046H32.3626L32.0969 18.9106ZM31.9765 18.6391L31.4554 17.4751L30.9343 18.6391H31.9765Z" fill="white"/>
<path d="M33.4294 17.1289H33.7746V19.2093H35.0825V19.5046H33.4294V17.1289Z" fill="white"/>
<path d="M35.8245 17.1289H36.1696V19.5046H35.8245V17.1289Z" fill="white"/>
<path d="M37.7191 17.4242H36.8909V17.1289H38.8891V17.4242H38.0608V19.5046H37.7191V17.4242Z" fill="white"/>
<path d="M40.5074 18.6833V19.5046H40.1657V18.6765L39.2063 17.1289H39.5756L40.3486 18.3812L41.1251 17.1289H41.4668L40.5074 18.6833Z" fill="white"/>
<path d="M45.1076 18.3035H45.4389V19.23C45.1973 19.4302 44.8625 19.532 44.5243 19.532C43.7823 19.532 43.2371 19.0195 43.2371 18.317C43.2371 17.6145 43.7823 17.1021 44.5312 17.1021C44.9143 17.1021 45.2387 17.2276 45.4596 17.4686L45.2456 17.679C45.0454 17.4889 44.8177 17.4041 44.545 17.4041C43.986 17.4041 43.5822 17.7876 43.5822 18.317C43.5822 18.8465 43.9859 19.23 44.5416 19.23C44.7452 19.23 44.935 19.1858 45.1076 19.0772V18.3035Z" fill="white"/>
<path d="M46.4226 18.4796V17.1289H46.7677V18.4661C46.7677 18.9921 47.0127 19.2297 47.4476 19.2297C47.8824 19.2297 48.1309 18.9921 48.1309 18.4661V17.1289H48.4657V18.4796C48.4657 19.1686 48.0826 19.5317 47.4441 19.5317C46.8057 19.5317 46.4226 19.1686 46.4226 18.4796Z" fill="white"/>
<path d="M51.0056 18.9106H49.7218L49.4561 19.5046H49.1006L50.1946 17.1289H50.5363L51.6337 19.5046H51.2713L51.0056 18.9106ZM50.8848 18.6391L50.3637 17.4751L49.8426 18.6391H50.8848Z" fill="white"/>
<path d="M53.9528 19.5046L53.4316 18.7749C53.3833 18.7783 53.3316 18.7817 53.2798 18.7817H52.6828V19.5046H52.3376V17.1289H53.2798C53.9079 17.1289 54.2875 17.4411 54.2875 17.957C54.2875 18.3235 54.0943 18.5882 53.7561 18.707L54.3289 19.5046H53.9528ZM53.9424 17.9574C53.9424 17.618 53.7112 17.4245 53.2694 17.4245H52.6828V18.4936H53.2694C53.7112 18.4936 53.9424 18.2967 53.9424 17.9574Z" fill="white"/>
<path d="M56.7309 18.9106H55.4471L55.1814 19.5046H54.8259L55.9199 17.1289H56.2616L57.359 19.5046H56.9967L56.7309 18.9106ZM56.6102 18.6391L56.089 17.4751L55.5679 18.6391H56.6102Z" fill="white"/>
<path d="M60.1408 17.1289V19.5046H59.8578L58.4083 17.733V19.5046H58.0632V17.1289H58.3462L59.7957 18.9005V17.1289H60.1408Z" fill="white"/>
<path d="M61.6903 17.4242H60.8621V17.1289H62.8603V17.4242H62.032V19.5046H61.6903V17.4242Z" fill="white"/>
<path d="M65.3347 19.2093V19.5046H63.5815V17.1289H65.2864V17.4242H63.9267V18.1538H65.138V18.4423H63.9267V19.2093H65.3347Z" fill="white"/>
<path d="M67.9919 19.2093V19.5046H66.2388V17.1289H67.9436V17.4242H66.5839V18.1538H67.7952V18.4423H66.5839V19.2093H67.9919Z" fill="white"/>
<path d="M68.8962 17.1289H69.9143C70.6908 17.1289 71.2188 17.6108 71.2188 18.3167C71.2188 19.0226 70.6908 19.5046 69.9143 19.5046H68.8962V17.1289ZM69.8936 19.2089C70.4907 19.2089 70.8737 18.8492 70.8737 18.3164C70.8737 17.7835 70.4907 17.4238 69.8936 17.4238H69.2414V19.2089H69.8936Z" fill="white"/>
<path d="M24.2313 14.3147V3.88818H26.5183L29.8505 10.129L33.1828 3.88818H35.4701V14.3147H33.516V7.03084L30.5016 12.7207H29.214L26.1847 7.03084V14.3147H24.231H24.2313Z" fill="white"/>
<path d="M37.8936 13.4508C37.0857 12.6963 36.6819 11.7381 36.6819 10.5763C36.6819 9.41447 37.0857 8.45628 37.8936 7.70135C38.7012 6.9468 39.6909 6.56934 40.8623 6.56934C42.0338 6.56934 43.0231 6.9468 43.8311 7.70135C44.639 8.45628 45.0428 9.41409 45.0428 10.5763C45.0428 11.7385 44.6386 12.6966 43.8311 13.4508C43.0231 14.2057 42.0334 14.5828 40.8623 14.5828C39.6913 14.5828 38.7012 14.2057 37.8936 13.4508ZM39.2948 9.01211C38.8653 9.41937 38.6509 9.94088 38.6509 10.5763C38.6509 11.2117 38.8653 11.7332 39.2948 12.1401C39.7238 12.5473 40.2465 12.7509 40.8623 12.7509C41.4782 12.7509 42.0008 12.5477 42.4299 12.1401C42.859 11.7332 43.0737 11.2117 43.0737 10.5763C43.0737 9.94088 42.859 9.41975 42.4299 9.01211C42.0004 8.60523 41.4782 8.40123 40.8623 8.40123C40.2465 8.40123 39.7238 8.60486 39.2948 9.01211Z" fill="white"/>
<path d="M50.026 12.5124H51.1315V14.3145H49.738C48.8794 14.3145 48.2057 14.106 47.716 13.6889C47.226 13.2719 46.9813 12.6961 46.9813 11.9611V8.65444H45.6484V6.86705H46.9813V4.79645L48.9504 4.37939V6.86667H51.1315V8.65407H48.9504V11.5139C48.9504 11.822 49.0436 12.0652 49.2307 12.2436C49.4174 12.4223 49.6824 12.5117 50.026 12.5117V12.5124Z" fill="white"/>
<path d="M53.0403 13.4508C52.2324 12.6963 51.8286 11.7381 51.8286 10.5763C51.8286 9.41447 52.2324 8.45628 53.0403 7.70135C53.8479 6.9468 54.8376 6.56934 56.0091 6.56934C57.1805 6.56934 58.1698 6.9468 58.9778 7.70135C59.7857 8.45628 60.1895 9.41409 60.1895 10.5763C60.1895 11.7385 59.7853 12.6966 58.9778 13.4508C58.1698 14.2057 57.1801 14.5828 56.0091 14.5828C54.838 14.5828 53.8479 14.2057 53.0403 13.4508ZM54.4411 9.01211C54.0116 9.41937 53.7973 9.94088 53.7973 10.5763C53.7973 11.2117 54.0116 11.7332 54.4411 12.1401C54.8702 12.5473 55.3928 12.7509 56.0087 12.7509C56.6245 12.7509 57.1472 12.5477 57.5762 12.1401C58.0053 11.7332 58.2201 11.2117 58.2201 10.5763C58.2201 9.94088 58.0053 9.41975 57.5762 9.01211C57.1468 8.60523 56.6245 8.40123 56.0087 8.40123C55.3928 8.40123 54.8702 8.60486 54.4411 9.01211Z" fill="white"/>
<path d="M67.2398 5.55642C67.0124 5.32828 66.8989 5.04773 66.8989 4.71476C66.8989 4.38179 67.0124 4.10388 67.2398 3.88064C67.4668 3.65741 67.7494 3.54541 68.088 3.54541C68.4266 3.54541 68.7092 3.65703 68.9362 3.88064C69.1636 4.10388 69.2771 4.38217 69.2771 4.71476C69.2771 5.04735 69.1636 5.32791 68.9362 5.55642C68.7092 5.78494 68.4262 5.89882 68.088 5.89882C67.7498 5.89882 67.4672 5.78494 67.2398 5.55642ZM67.111 14.3147V6.86718H69.0651V14.3147H67.111Z" fill="white"/>
<path d="M73.4269 11.4403C71.4678 11.1722 70.4885 10.3928 70.4885 9.10201C70.4885 8.39723 70.7535 7.81614 71.2838 7.35949C71.8141 6.90283 72.4928 6.67432 73.3211 6.67432C74.0381 6.67432 74.6919 6.85834 75.2825 7.22562C75.873 7.59328 76.2998 8.07972 76.5624 8.68533L74.654 9.25134C74.5428 8.97342 74.371 8.75471 74.139 8.59596C73.9066 8.4372 73.6489 8.35764 73.3667 8.35764C73.0845 8.35764 72.8717 8.41986 72.7003 8.54392C72.5285 8.66836 72.443 8.82674 72.443 9.02056C72.443 9.21438 72.5488 9.3705 72.7608 9.48966C72.9729 9.60882 73.3111 9.70347 73.7755 9.77285C74.7146 9.89201 75.4389 10.1579 75.9489 10.5696C76.4585 10.9818 76.7139 11.5007 76.7139 12.1263C76.7139 12.8114 76.4336 13.3752 75.8734 13.8167C75.3131 14.2587 74.6087 14.4797 73.7605 14.4797C72.9932 14.4797 72.2988 14.3009 71.678 13.9434C71.0571 13.586 70.61 13.1044 70.3374 12.4984L72.2309 11.9026C72.3621 12.2107 72.5588 12.4539 72.8218 12.6327C73.0841 12.8114 73.382 12.9008 73.7153 12.9008C74.0078 12.9008 74.2529 12.8337 74.45 12.6998C74.6471 12.5659 74.7452 12.3996 74.7452 12.2009C74.7452 12.0022 74.6417 11.8434 74.4346 11.7243C74.2276 11.6051 73.8917 11.5108 73.4273 11.4415L73.4269 11.4403Z" fill="white"/>
<path d="M81.8941 12.5124H82.9997V14.3145H81.6062C80.7476 14.3145 80.0739 14.106 79.5842 13.6889C79.0941 13.2719 78.8495 12.6961 78.8495 11.9611V8.65444H77.5166V6.86705H78.8495V4.79645L80.8185 4.37939V6.86667H82.9997V8.65407H80.8185V11.5139C80.8185 11.822 80.9117 12.0652 81.0989 12.2436C81.2856 12.4223 81.5506 12.5117 81.8941 12.5117V12.5124Z" fill="white"/>
<path d="M63.4351 14.3147H61.5178V10.7524C61.5178 8.56905 63.3239 6.79297 65.5441 6.79297H65.9755V8.67841H65.5441C64.3811 8.67841 63.4351 9.60869 63.4351 10.7524V14.3147Z" fill="#56D2FC"/>
<path d="M5.97231 3.83154L7.43674 5.27164C5.71578 6.96401 5.71578 9.71751 7.43674 11.4099C9.15769 13.1023 11.9577 13.1023 13.6786 11.4099L15.1431 12.85C12.6146 15.3365 8.50083 15.3365 5.97231 12.85C3.4438 10.3635 3.4438 6.31806 5.97231 3.83154Z" fill="#56D2FC"/>
<path d="M3.08878 0.995605L4.55321 2.4357C1.24244 5.69148 1.24206 10.9896 4.55321 14.2454C7.86436 17.5015 13.2515 17.5015 16.5623 14.2454L18.0267 15.6855C13.9084 19.7354 7.20711 19.7354 3.0884 15.6855C-1.03031 11.6355 -1.02993 5.04553 3.0884 0.995605H3.08878Z" fill="#56D2FC"/>
<path d="M4.56055 2.44278C6.16263 0.86768 8.29235 0 10.5582 0C12.824 0 14.9538 0.86768 16.5555 2.44278C18.1575 4.01825 19.0395 6.1126 19.0395 8.34043C19.0395 10.5683 18.1572 12.663 16.5555 14.2381L15.1455 12.8515C17.6752 10.3639 17.6752 6.3166 15.1455 3.82895C12.6158 1.3413 8.50018 1.3413 5.97052 3.82895L4.56055 2.4424V2.44278Z" fill="#56D2FC"/>
</g>
<defs>
<clipPath id="clip0_1953_4570">
<rect width="83" height="20" fill="white"/>
</clipPath>
</defs>
</svg>
