<svg width="134" height="33" viewBox="0 0 134 33" fill="none" xmlns="http://www.w3.org/2000/svg">
<g clip-path="url(#clip0_2008_14590)">
<path d="M43.2337 32.5408C42.983 32.8376 42.6431 33 42.2531 33C41.7628 33 41.3783 32.7872 40.8323 32.2216C39.7124 32.16 38.8989 31.3256 38.8989 30.2225C38.8989 29.1193 39.7792 28.2178 40.9772 28.2178C42.1751 28.2178 43.0442 29.0689 43.0442 30.2225C43.0442 31.1968 42.4202 31.9528 41.512 32.1656C41.7739 32.4456 42.0079 32.5576 42.2586 32.5576C42.5372 32.5576 42.7712 32.4456 42.9718 32.2216L43.2337 32.5408ZM40.9772 31.7288C41.8408 31.7288 42.4871 31.0848 42.4871 30.2225C42.4871 29.3601 41.8408 28.7162 40.9772 28.7162C40.1135 28.7162 39.4561 29.3601 39.4561 30.2225C39.4561 31.0848 40.1024 31.7288 40.9772 31.7288Z" fill="white"/>
<path d="M44.4204 30.4919V28.2632H44.9776V30.4695C44.9776 31.3375 45.3732 31.7294 46.0752 31.7294C46.7772 31.7294 47.1784 31.3375 47.1784 30.4695V28.2632H47.7188V30.4919C47.7188 31.6286 47.1004 32.2278 46.0696 32.2278C45.0389 32.2278 44.4204 31.6286 44.4204 30.4919Z" fill="white"/>
<path d="M51.8192 31.2031H49.7466L49.3175 32.183H48.7437L50.5099 28.2632H51.0615L52.8333 32.183H52.2482L51.8192 31.2031ZM51.6248 30.7551L50.7835 28.8344L49.9422 30.7551H51.6248Z" fill="white"/>
<path d="M53.9702 28.2632H54.5274V31.6958H56.639V32.183H53.9702V28.2632Z" fill="white"/>
<path d="M57.8369 28.2632H58.3941V32.183H57.8369V28.2632Z" fill="white"/>
<path d="M60.8958 28.7504H59.5586V28.2632H62.7846V28.7504H61.4474V32.183H60.8958V28.7504Z" fill="white"/>
<path d="M65.3974 30.8274V32.1825H64.8458V30.8162L63.2969 28.2627H63.893L65.1411 30.329L66.3947 28.2627H66.9463L65.3974 30.8274Z" fill="white"/>
<path d="M72.824 30.2006H73.3589V31.7293C72.9689 32.0597 72.4285 32.2277 71.8824 32.2277C70.6845 32.2277 69.8042 31.3821 69.8042 30.223C69.8042 29.0638 70.6845 28.2183 71.8936 28.2183C72.512 28.2183 73.0358 28.4255 73.3924 28.823L73.0469 29.1702C72.7237 28.8566 72.356 28.7166 71.9159 28.7166C71.0133 28.7166 70.3614 29.3494 70.3614 30.223C70.3614 31.0965 71.0132 31.7293 71.9103 31.7293C72.239 31.7293 72.5455 31.6565 72.824 31.4773V30.2006Z" fill="white"/>
<path d="M74.9473 30.4919V28.2632H75.5044V30.4695C75.5044 31.3375 75.9 31.7294 76.6021 31.7294C77.3041 31.7294 77.7052 31.3375 77.7052 30.4695V28.2632H78.2457V30.4919C78.2457 31.6286 77.6272 32.2278 76.5965 32.2278C75.5657 32.2278 74.9473 31.6286 74.9473 30.4919Z" fill="white"/>
<path d="M82.3461 31.2031H80.2734L79.8444 32.183H79.2705L81.0367 28.2632H81.5883L83.3601 32.183H82.7751L82.3461 31.2031ZM82.1511 30.7551L81.3097 28.8344L80.4684 30.7551H82.1511Z" fill="white"/>
<path d="M87.1046 32.1825L86.2633 30.9786C86.1853 30.9842 86.1017 30.9898 86.0181 30.9898H85.0542V32.1825H84.4971V28.2627H86.0181C87.0322 28.2627 87.6451 28.7779 87.6451 29.629C87.6451 30.2338 87.3331 30.6706 86.787 30.8666L87.7119 32.1825H87.1046ZM87.0879 29.6297C87.0879 29.0697 86.7146 28.7505 86.0014 28.7505H85.0542V30.5144H86.0014C86.7146 30.5144 87.0879 30.1896 87.0879 29.6297Z" fill="white"/>
<path d="M91.5897 31.2031H89.5171L89.088 32.183H88.5142L90.2804 28.2632H90.832L92.6038 32.183H92.0187L91.5897 31.2031ZM91.3947 30.7551L90.5534 28.8344L89.7121 30.7551H91.3947Z" fill="white"/>
<path d="M97.0944 28.2632V32.183H96.6375L94.2974 29.2599V32.183H93.7402V28.2632H94.1971L96.5372 31.1863V28.2632H97.0944Z" fill="white"/>
<path d="M99.596 28.7504H98.2588V28.2632H101.485V28.7504H100.148V32.183H99.596V28.7504Z" fill="white"/>
<path d="M105.48 31.6953V32.1825H102.649V28.2627H105.402V28.7499H103.207V29.9538H105.162V30.4298H103.207V31.6953H105.48Z" fill="white"/>
<path d="M109.77 31.6953V32.1825H106.939V28.2627H109.692V28.7499H107.497V29.9538H109.452V30.4298H107.497V31.6953H109.77Z" fill="white"/>
<path d="M111.23 28.2632H112.874C114.127 28.2632 114.98 29.0583 114.98 30.2231C114.98 31.3878 114.127 32.183 112.874 32.183H111.23V28.2632ZM112.84 31.6952C113.804 31.6952 114.423 31.1016 114.423 30.2225C114.423 29.3433 113.804 28.7497 112.84 28.7497H111.787V31.6952H112.84Z" fill="white"/>
<path d="M39.1207 23.6192V6.41553H42.8129L48.1927 16.7129L53.5724 6.41553H57.2652V23.6192H54.1104V11.6009L49.2439 20.9892H47.165L42.2743 11.6009V23.6192H39.1201H39.1207Z" fill="white"/>
<path d="M61.178 22.1938C59.8736 20.9488 59.2217 19.3678 59.2217 17.4508C59.2217 15.5338 59.8736 13.9528 61.178 12.7072C62.4817 11.4622 64.0796 10.8394 65.9708 10.8394C67.8621 10.8394 69.4593 11.4622 70.7637 12.7072C72.0681 13.9528 72.72 15.5332 72.72 17.4508C72.72 19.3684 72.0675 20.9494 70.7637 22.1938C69.4593 23.4394 67.8615 24.0616 65.9708 24.0616C64.0802 24.0616 62.4817 23.4394 61.178 22.1938ZM63.4401 14.8699C62.7467 15.5419 62.4006 16.4024 62.4006 17.4508C62.4006 18.4992 62.7467 19.3597 63.4401 20.031C64.1328 20.703 64.9766 21.039 65.9708 21.039C66.9651 21.039 67.8089 20.7036 68.5016 20.031C69.1944 19.3597 69.541 18.4992 69.541 17.4508C69.541 16.4024 69.1944 15.5425 68.5016 14.8699C67.8083 14.1986 66.9651 13.862 65.9708 13.862C64.9766 13.862 64.1328 14.198 63.4401 14.8699Z" fill="white"/>
<path d="M80.7651 20.6461H82.5499V23.6195H80.3002C78.9141 23.6195 77.8264 23.2755 77.0358 22.5873C76.2446 21.8992 75.8497 20.9491 75.8497 19.7364V14.2804H73.6978V11.3312H75.8497V7.91471L79.0286 7.22656V11.3306H82.5499V14.2798H79.0286V18.9985C79.0286 19.5068 79.179 19.9082 79.4812 20.2024C79.7826 20.4974 80.2104 20.6448 80.7651 20.6448V20.6461Z" fill="white"/>
<path d="M85.6321 22.1938C84.3277 20.9488 83.6758 19.3678 83.6758 17.4508C83.6758 15.5338 84.3277 13.9528 85.6321 12.7072C86.9358 11.4622 88.5337 10.8394 90.4249 10.8394C92.3162 10.8394 93.9134 11.4622 95.2178 12.7072C96.5222 13.9528 97.1741 15.5332 97.1741 17.4508C97.1741 19.3684 96.5216 20.9494 95.2178 22.1938C93.9134 23.4394 92.3156 24.0616 90.4249 24.0616C88.5343 24.0616 86.9358 23.4394 85.6321 22.1938ZM87.8935 14.8699C87.2002 15.5419 86.8541 16.4024 86.8541 17.4508C86.8541 18.4992 87.2002 19.3597 87.8935 20.031C88.5863 20.703 89.4301 21.039 90.4243 21.039C91.4186 21.039 92.2624 20.7036 92.9551 20.031C93.6478 19.3597 93.9945 18.4992 93.9945 17.4508C93.9945 16.4024 93.6478 15.5425 92.9551 14.8699C92.2617 14.1986 91.4186 13.862 90.4243 13.862C89.4301 13.862 88.5863 14.198 87.8935 14.8699Z" fill="white"/>
<path d="M108.556 9.16827C108.189 8.79184 108.006 8.32892 108.006 7.77953C108.006 7.23013 108.189 6.77157 108.556 6.40323C108.923 6.03489 109.379 5.8501 109.926 5.8501C110.472 5.8501 110.929 6.03427 111.295 6.40323C111.662 6.77157 111.845 7.23075 111.845 7.77953C111.845 8.3283 111.662 8.79122 111.295 9.16827C110.929 9.54532 110.472 9.73322 109.926 9.73322C109.38 9.73322 108.923 9.54532 108.556 9.16827ZM108.348 23.6194V11.331H111.503V23.6194H108.348Z" fill="white"/>
<path d="M118.545 18.8766C115.382 18.4342 113.801 17.1482 113.801 15.0184C113.801 13.8555 114.229 12.8967 115.085 12.1432C115.941 11.3897 117.037 11.0127 118.374 11.0127C119.532 11.0127 120.587 11.3163 121.541 11.9223C122.494 12.529 123.183 13.3316 123.607 14.3309L120.526 15.2648C120.347 14.8062 120.069 14.4453 119.695 14.1834C119.319 13.9215 118.903 13.7902 118.448 13.7902C117.992 13.7902 117.649 13.8928 117.372 14.0975C117.095 14.3029 116.956 14.5642 116.956 14.884C116.956 15.2038 117.127 15.4614 117.47 15.658C117.812 15.8546 118.358 16.0108 119.108 16.1253C120.624 16.3219 121.793 16.7605 122.617 17.44C123.439 18.12 123.852 18.9762 123.852 20.0084C123.852 21.1389 123.399 22.0691 122.495 22.7977C121.59 23.5269 120.453 23.8915 119.084 23.8915C117.845 23.8915 116.724 23.5966 115.721 23.0068C114.719 22.4169 113.997 21.6224 113.557 20.6225L116.614 19.6394C116.826 20.1478 117.143 20.5491 117.568 20.844C117.992 21.1389 118.473 21.2864 119.011 21.2864C119.483 21.2864 119.879 21.1756 120.197 20.9548C120.515 20.7339 120.673 20.4595 120.673 20.1316C120.673 19.8037 120.506 19.5417 120.172 19.3451C119.838 19.1485 119.295 18.993 118.546 18.8785L118.545 18.8766Z" fill="white"/>
<path d="M132.215 20.6461H134V23.6195H131.75C130.364 23.6195 129.276 23.2755 128.486 22.5873C127.694 21.8992 127.299 20.9491 127.299 19.7364V14.2804H125.147V11.3312H127.299V7.91471L130.478 7.22656V11.3306H134V14.2798H130.478V18.9985C130.478 19.5068 130.629 19.9082 130.931 20.2024C131.232 20.4974 131.66 20.6448 132.215 20.6448V20.6461Z" fill="white"/>
<path d="M102.414 23.6194H99.3184V17.7415C99.3184 14.139 102.234 11.2085 105.819 11.2085H106.515V14.3195H105.819C103.941 14.3195 102.414 15.8544 102.414 17.7415V23.6194Z" fill="white"/>
<path d="M9.6422 6.32227L12.0064 8.69843C9.22804 11.4908 9.22804 16.0341 12.0064 18.8265C14.7849 21.6189 19.3053 21.6189 22.0837 18.8265L24.448 21.2027C20.3658 25.3054 13.7244 25.3054 9.6422 21.2027C5.56002 17.0999 5.56002 10.425 9.6422 6.32227Z" fill="white"/>
<path d="M4.98652 1.64258L7.35077 4.01874C2.00568 9.39078 2.00506 18.1326 7.35077 23.5047C12.6965 28.8773 21.3939 28.8773 26.739 23.5047L29.1032 25.8808C22.4543 32.5632 11.6354 32.5632 4.9859 25.8808C-1.66358 19.1984 -1.66296 8.32496 4.9859 1.64258H4.98652Z" fill="white"/>
<path d="M7.36279 4.03058C9.94929 1.43167 13.3876 0 17.0457 0C20.7039 0 24.1422 1.43167 26.7281 4.03058C29.3146 6.63011 30.7384 10.0858 30.7384 13.7617C30.7384 17.4376 29.3139 20.8939 26.7281 23.4929L24.4517 21.205C28.5358 17.1004 28.5358 10.4224 24.4517 6.31777C20.3677 2.21315 13.7232 2.21315 9.63913 6.31777L7.36279 4.02996V4.03058Z" fill="white"/>
</g>
<defs>
<clipPath id="clip0_2008_14590">
<rect width="134" height="33" fill="white"/>
</clipPath>
</defs>
</svg>
