<svg width="24" height="24" viewBox="0 0 24 24" fill="none" xmlns="http://www.w3.org/2000/svg">
<path d="M5.75 13C8.37335 13 10.5 15.1266 10.5 17.75C10.5 20.3734 8.37335 22.5 5.75 22.5C3.12665 22.5 1 20.3734 1 17.75C1 15.1266 3.12665 13 5.75 13ZM17.75 13C20.3734 13 22.5 15.1266 22.5 17.75C22.5 20.3734 20.3734 22.5 17.75 22.5C15.1266 22.5 13 20.3734 13 17.75C13 15.1266 15.1266 13 17.75 13ZM5.75 14.5C3.95507 14.5 2.5 15.9551 2.5 17.75C2.5 19.5449 3.95507 21 5.75 21C7.54493 21 9 19.5449 9 17.75C9 15.9551 7.54493 14.5 5.75 14.5ZM17.75 14.5C15.9551 14.5 14.5 15.9551 14.5 17.75C14.5 19.5449 15.9551 21 17.75 21C19.5449 21 21 19.5449 21 17.75C21 15.9551 19.5449 14.5 17.75 14.5ZM5.75 1C8.37335 1 10.5 3.12665 10.5 5.75C10.5 8.37335 8.37335 10.5 5.75 10.5C3.12665 10.5 1 8.37335 1 5.75C1 3.12665 3.12665 1 5.75 1ZM17.75 1C20.3734 1 22.5 3.12665 22.5 5.75C22.5 8.37335 20.3734 10.5 17.75 10.5C15.1266 10.5 13 8.37335 13 5.75C13 3.12665 15.1266 1 17.75 1ZM5.75 2.5C3.95507 2.5 2.5 3.95507 2.5 5.75C2.5 7.54493 3.95507 9 5.75 9C7.54493 9 9 7.54493 9 5.75C9 3.95507 7.54493 2.5 5.75 2.5ZM17.75 2.5C15.9551 2.5 14.5 3.95507 14.5 5.75C14.5 7.54493 15.9551 9 17.75 9C19.5449 9 21 7.54493 21 5.75C21 3.95507 19.5449 2.5 17.75 2.5Z" fill="#FF6421"/>
</svg>
