<svg width="16" height="16" viewBox="0 0 16 16" fill="none" xmlns="http://www.w3.org/2000/svg">
<path d="M11.5 12C11.7761 12 12 11.7761 12 11.5C12 11.2239 11.7761 11 11.5 11H4.78125L3.1123 1.82129C3.07041 1.59088 2.94835 1.38248 2.76855 1.23242C2.61132 1.10124 2.41842 1.02173 2.21582 1.00391L2.12793 1H1C0.723858 1 0.5 1.22386 0.5 1.5C0.5 1.77614 0.723858 2 1 2H2.12793L3.87207 11.5898C3.91546 11.8272 4.12194 11.9998 4.36328 12H11.5Z" fill="#041D2C"/>
<path d="M5 14.5C5.9665 14.5 6.75 13.7165 6.75 12.75C6.75 11.7835 5.9665 11 5 11C4.0335 11 3.25 11.7835 3.25 12.75C3.25 13.7165 4.0335 14.5 5 14.5ZM5 13.5C4.58579 13.5 4.25 13.1642 4.25 12.75C4.25 12.3358 4.58579 12 5 12C5.41421 12 5.75 12.3358 5.75 12.75C5.75 13.1642 5.41421 13.5 5 13.5Z" fill="#041D2C"/>
<path d="M11.5 14.5C12.4665 14.5 13.25 13.7165 13.25 12.75C13.25 11.7835 12.4665 11 11.5 11C10.5335 11 9.75 11.7835 9.75 12.75C9.75 13.7165 10.5335 14.5 11.5 14.5ZM11.5 13.5C11.0858 13.5 10.75 13.1642 10.75 12.75C10.75 12.3358 11.0858 12 11.5 12C11.9142 12 12.25 12.3358 12.25 12.75C12.25 13.1642 11.9142 13.5 11.5 13.5Z" fill="#041D2C"/>
<path d="M11.7559 9.5L11.8877 9.49414C12.1917 9.46742 12.4819 9.34825 12.7178 9.15137C12.9873 8.92634 13.1696 8.61397 13.2324 8.26855L13.9922 4.08984C14.0187 3.94397 13.9788 3.79352 13.8838 3.67969C13.7888 3.56586 13.6483 3.5 13.5 3.5H3C2.72386 3.5 2.5 3.72386 2.5 4C2.5 4.27614 2.72386 4.5 3 4.5H12.9004L12.248 8.08984C12.2271 8.20475 12.1668 8.30887 12.0771 8.38379C11.9872 8.45882 11.873 8.5 11.7559 8.5H3.90918C3.63304 8.5 3.40918 8.72386 3.40918 9C3.40918 9.27614 3.63304 9.5 3.90918 9.5H11.7559Z" fill="#041D2C"/>
</svg>
