<svg width="40" height="40" viewBox="0 0 40 40" fill="none" xmlns="http://www.w3.org/2000/svg">
<path d="M12.5 16.5C13.0523 16.5 13.5 16.9477 13.5 17.5V31.25C13.5 31.8023 13.0523 32.25 12.5 32.25C11.9477 32.25 11.5 31.8023 11.5 31.25V17.5C11.5 16.9477 11.9477 16.5 12.5 16.5ZM20 7.75C20.5523 7.75 21 8.19772 21 8.75V31.25C21 31.8023 20.5523 32.25 20 32.25C19.4477 32.25 19 31.8023 19 31.25V8.75C19 8.19772 19.4477 7.75 20 7.75ZM27.5 11.5C28.0523 11.5 28.5 11.9477 28.5 12.5V31.25C28.5 31.8023 28.0523 32.25 27.5 32.25C26.9477 32.25 26.5 31.8023 26.5 31.25V12.5C26.5 11.9477 26.9477 11.5 27.5 11.5Z" fill="white"/>
</svg>
