<svg width="24" height="24" viewBox="0 0 24 24" fill="none" xmlns="http://www.w3.org/2000/svg">
<path d="M19.5 14.833C19.776 14.833 19.9998 15.057 20 15.333V15.5C20 16.1918 20 16.7407 19.9639 17.1826C19.9273 17.6304 19.851 18.0127 19.6729 18.3623C19.3853 18.9265 18.9265 19.3853 18.3623 19.6729C18.0127 19.851 17.6304 19.9273 17.1826 19.9639C16.7407 20 16.1918 20 15.5 20H8.5C7.80822 20 7.25934 20 6.81738 19.9639C6.36958 19.9273 5.98732 19.851 5.6377 19.6729C5.07347 19.3853 4.61472 18.9265 4.32715 18.3623C4.14901 18.0127 4.07272 17.6304 4.03613 17.1826C4.00003 16.7407 4 16.1918 4 15.5V15.333C4.00018 15.057 4.22397 14.833 4.5 14.833C4.77603 14.833 4.99982 15.057 5 15.333V15.5C5 16.2083 5.00022 16.7098 5.03223 17.1016C5.06377 17.4874 5.12345 17.7231 5.21777 17.9082C5.40951 18.2845 5.71554 18.5905 6.0918 18.7822C6.27691 18.8765 6.51264 18.9362 6.89844 18.9678C7.29023 18.9998 7.79168 19 8.5 19H15.5C16.2083 19 16.7098 18.9998 17.1016 18.9678C17.4874 18.9362 17.7231 18.8765 17.9082 18.7822C18.2845 18.5905 18.5905 18.2845 18.7822 17.9082C18.8765 17.7231 18.9362 17.4874 18.9678 17.1016C18.9998 16.7098 19 16.2083 19 15.5V15.333C19.0002 15.057 19.224 14.833 19.5 14.833ZM14.9795 11.6465C15.1747 11.4513 15.4912 11.4514 15.6865 11.6465C15.8818 11.8417 15.8818 12.1583 15.6865 12.3535L12.9424 15.0977C12.4217 15.6181 11.5783 15.6181 11.0576 15.0977L8.31348 12.3535C8.11821 12.1583 8.11821 11.8417 8.31348 11.6465C8.50875 11.4514 8.8253 11.4513 9.02051 11.6465L11.7646 14.3906C11.8948 14.5205 12.1052 14.5205 12.2354 14.3906L14.9795 11.6465ZM12 4C12.2761 4 12.5 4.22386 12.5 4.5V13.667C12.4998 13.943 12.276 14.167 12 14.167C11.724 14.167 11.5002 13.943 11.5 13.667V4.5C11.5 4.22386 11.7239 4 12 4Z" fill="#FF6421"/>
</svg>
