<svg width="16" height="16" viewBox="0 0 16 16" fill="none" xmlns="http://www.w3.org/2000/svg">
<path d="M8.66699 2C9.67926 2.00018 10.4998 2.82074 10.5 3.83301V4.00391C10.9299 4.00743 11.2963 4.0159 11.6123 4.0459C12.0498 4.08747 12.4256 4.16909 12.7705 4.34473C13.3664 4.64833 13.8517 5.13365 14.1553 5.72949C14.3423 6.0968 14.4231 6.49925 14.4619 6.97461C14.5003 7.44433 14.5 8.0282 14.5 8.7666V9.56641C14.5 10.3047 14.5003 10.8887 14.4619 11.3584C14.4231 11.834 14.3425 12.237 14.1553 12.6045C13.8517 13.2003 13.3664 13.6847 12.7705 13.9883C12.4032 14.1754 12.0008 14.2561 11.5254 14.2949C11.0557 14.3333 10.4718 14.333 9.7334 14.333H6.2666C5.52819 14.333 4.94434 14.3333 4.47461 14.2949C3.99919 14.2561 3.59683 14.1754 3.22949 13.9883C2.63365 13.6847 2.14833 13.2003 1.84473 12.6045C1.65751 12.237 1.57694 11.834 1.53809 11.3584C1.49974 10.8887 1.5 10.3047 1.5 9.56641V8.7666C1.5 8.0282 1.49972 7.44433 1.53809 6.97461C1.57692 6.49925 1.6577 6.0968 1.84473 5.72949C2.14833 5.13365 2.63365 4.64833 3.22949 4.34473C3.57441 4.16909 3.95016 4.08747 4.3877 4.0459C4.70366 4.0159 5.07013 4.00743 5.5 4.00391V3.83301C5.50018 2.82074 6.32074 2.00018 7.33301 2H8.66699ZM6 5C5.33622 5.00052 4.85805 5.00524 4.48145 5.04102C4.11078 5.07626 3.8729 5.13938 3.68262 5.23633C3.27524 5.444 2.944 5.77524 2.73633 6.18262C2.63293 6.38555 2.56897 6.64209 2.53516 7.05566C2.50088 7.47524 2.5 8.01165 2.5 8.7666V9.56641C2.5 10.3214 2.50088 10.8578 2.53516 11.2773C2.56896 11.6911 2.6329 11.9474 2.73633 12.1504C2.94404 12.558 3.27504 12.8899 3.68262 13.0977C3.88556 13.2011 4.14205 13.265 4.55566 13.2988C4.97524 13.3331 5.51165 13.333 6.2666 13.333H9.7334C10.4884 13.333 11.0248 13.3331 11.4443 13.2988C11.8579 13.265 12.1144 13.2011 12.3174 13.0977C12.725 12.8899 13.056 12.558 13.2637 12.1504C13.3671 11.9474 13.431 11.6911 13.4648 11.2773C13.4991 10.8578 13.5 10.3214 13.5 9.56641V8.7666C13.5 8.01165 13.4991 7.47524 13.4648 7.05566C13.431 6.64209 13.3671 6.38555 13.2637 6.18262C13.056 5.77524 12.7248 5.444 12.3174 5.23633C12.1271 5.13938 11.8892 5.07626 11.5186 5.04102C11.142 5.00524 10.6638 5.00052 10 5H6ZM8 6.66699C9.38071 6.66699 10.5 7.78628 10.5 9.16699C10.4998 10.5476 9.3806 11.667 8 11.667C6.6194 11.667 5.50018 10.5476 5.5 9.16699C5.5 7.78628 6.61929 6.66699 8 6.66699ZM8 7.66699C7.17157 7.66699 6.5 8.33857 6.5 9.16699C6.50018 9.99527 7.17168 10.667 8 10.667C8.82832 10.667 9.49982 9.99527 9.5 9.16699C9.5 8.33857 8.82843 7.66699 8 7.66699ZM7.33301 3C6.87303 3.00018 6.50018 3.37303 6.5 3.83301V4H9.5V3.83301C9.49982 3.37303 9.12697 3.00018 8.66699 3H7.33301Z" fill="#35AFDA"/>
</svg>
