<svg width="24" height="24" viewBox="0 0 24 24" fill="none" xmlns="http://www.w3.org/2000/svg">
<path d="M17.6 3C18.09 3 18.3351 3 18.5222 3.09809C18.6869 3.18438 18.8207 3.32206 18.9046 3.49141C19 3.68393 19 3.93595 19 4.44V5.16C19 5.66405 19 5.91607 18.9046 6.10859C18.8207 6.27794 18.6869 6.41562 18.5222 6.50191C18.3351 6.6 18.09 6.6 17.6 6.6L6.4 6.6C5.90995 6.6 5.66493 6.6 5.47776 6.50191C5.31312 6.41562 5.17926 6.27794 5.09537 6.10859C5 5.91607 5 5.66405 5 5.16L5 4.44C5 3.93595 5 3.68393 5.09537 3.49141C5.17926 3.32206 5.31312 3.18438 5.47776 3.09809C5.66493 3 5.90995 3 6.4 3L17.6 3Z" fill="#718595"/>
<path d="M17.6 10.2C18.09 10.2 18.3351 10.2 18.5222 10.2981C18.6869 10.3844 18.8207 10.5221 18.9046 10.6914C19 10.8839 19 11.136 19 11.64V12.36C19 12.864 19 13.1161 18.9046 13.3086C18.8207 13.4779 18.6869 13.6156 18.5222 13.7019C18.3351 13.8 18.09 13.8 17.6 13.8L6.4 13.8C5.90995 13.8 5.66493 13.8 5.47776 13.7019C5.31312 13.6156 5.17926 13.4779 5.09537 13.3086C5 13.1161 5 12.864 5 12.36L5 11.64C5 11.136 5 10.8839 5.09537 10.6914C5.17926 10.5221 5.31312 10.3844 5.47776 10.2981C5.66493 10.2 5.90995 10.2 6.4 10.2L17.6 10.2Z" fill="#718595"/>
<path d="M17.6 17.4C18.09 17.4 18.3351 17.4 18.5222 17.4981C18.6869 17.5844 18.8207 17.7221 18.9046 17.8914C19 18.0839 19 18.336 19 18.84V19.56C19 20.064 19 20.3161 18.9046 20.5086C18.8207 20.6779 18.6869 20.8156 18.5222 20.9019C18.3351 21 18.09 21 17.6 21H6.4C5.90995 21 5.66493 21 5.47776 20.9019C5.31312 20.8156 5.17926 20.6779 5.09537 20.5086C5 20.3161 5 20.064 5 19.56L5 18.84C5 18.336 5 18.0839 5.09537 17.8914C5.17926 17.7221 5.31312 17.5844 5.47776 17.4981C5.66493 17.4 5.90995 17.4 6.4 17.4H17.6Z" fill="#718595"/>
</svg>
