<svg width="24" height="24" viewBox="0 0 24 24" fill="none" xmlns="http://www.w3.org/2000/svg">
<path d="M18.6009 4.59383L3.40572 8.87966C3.27789 8.91571 3.16411 8.98993 3.07958 9.09238C2.99506 9.19484 2.94381 9.32065 2.93271 9.453C2.9216 9.58536 2.95115 9.71795 3.01742 9.83306C3.08368 9.94817 3.18351 10.0403 3.30354 10.0972L10.2852 13.4043C10.4213 13.4688 10.531 13.5784 10.5955 13.7146L13.9026 20.6962C13.9594 20.8163 14.0516 20.9161 14.1667 20.9823C14.2818 21.0486 14.4144 21.0782 14.5468 21.0671C14.6791 21.0559 14.8049 21.0047 14.9074 20.9202C15.0098 20.8356 15.084 20.7219 15.1201 20.594L19.4059 5.39885C19.4374 5.28723 19.4386 5.16924 19.4093 5.05702C19.38 4.94481 19.3213 4.84243 19.2393 4.76042C19.1573 4.67842 19.0549 4.61975 18.9427 4.59047C18.8305 4.56119 18.7125 4.56235 18.6009 4.59383Z" fill="#35AFDA"/>
</svg>
