<svg width="50" height="50" viewBox="0 0 50 50" fill="none" xmlns="http://www.w3.org/2000/svg">
<path d="M32.6504 15.5C33.2682 15.5 33.7758 15.4995 34.1875 15.5322C34.6073 15.5656 34.9925 15.6371 35.3545 15.8164C35.9172 16.0952 36.3784 16.5424 36.6689 17.0967C36.857 17.4556 36.9321 17.8374 36.9668 18.25C37.0007 18.6535 37 19.1502 37 19.75V30.25C37 30.8498 37.0007 31.3465 36.9668 31.75C36.9321 32.1626 36.857 32.5444 36.6689 32.9033C36.3784 33.4576 35.9172 33.9048 35.3545 34.1836C34.9925 34.3629 34.6073 34.4344 34.1875 34.4678C33.7758 34.5005 33.2682 34.5 32.6504 34.5H17.3496C16.7318 34.5 16.2242 34.5005 15.8125 34.4678C15.3927 34.4344 15.0075 34.3629 14.6455 34.1836C14.0828 33.9048 13.6216 33.4576 13.3311 32.9033C13.143 32.5444 13.0679 32.1626 13.0332 31.75C12.9993 31.3465 13 30.8498 13 30.25V19.75C13 19.1502 12.9993 18.6535 13.0332 18.25C13.0679 17.8374 13.143 17.4556 13.3311 17.0967C13.6216 16.5424 14.0828 16.0952 14.6455 15.8164C15.0075 15.6371 15.3927 15.5656 15.8125 15.5322C16.2242 15.4995 16.7318 15.5 17.3496 15.5H32.6504ZM26.834 24.5537C25.7539 25.3705 24.2461 25.3705 23.166 24.5537L14.5723 18.0557C14.5547 18.1403 14.5394 18.2444 14.5283 18.376C14.5009 18.7021 14.5 19.1247 14.5 19.75V30.25C14.5 30.8753 14.5009 31.2979 14.5283 31.624C14.5549 31.9402 14.6023 32.0983 14.6592 32.207C14.8001 32.4759 15.0275 32.6991 15.3115 32.8398C15.4307 32.8988 15.6014 32.9464 15.9316 32.9727C16.2702 32.9995 16.7078 33 17.3496 33H32.6504C33.2922 33 33.7298 32.9995 34.0684 32.9727C34.3986 32.9464 34.5693 32.8988 34.6885 32.8398C34.9725 32.6991 35.1999 32.4759 35.3408 32.207C35.3977 32.0983 35.4451 31.9402 35.4717 31.624C35.4991 31.2979 35.5 30.8753 35.5 30.25V19.75C35.5 19.1247 35.4991 18.7021 35.4717 18.376C35.4606 18.2443 35.4443 18.1404 35.4268 18.0557L26.834 24.5537ZM17.3496 17C16.7078 17 16.2702 17.0005 15.9316 17.0273C15.856 17.0334 15.7887 17.0407 15.7285 17.0488L24.0713 23.3574C24.6161 23.7692 25.3839 23.7692 25.9287 23.3574L34.2705 17.0488C34.2106 17.0407 34.1436 17.0333 34.0684 17.0273C33.7298 17.0005 33.2922 17 32.6504 17H17.3496Z" fill="white"/>
</svg>
