<svg width="50" height="50" viewBox="0 0 50 50" fill="none" xmlns="http://www.w3.org/2000/svg">
<path fill-rule="evenodd" clip-rule="evenodd" d="M25.0461 35.8109H25.0416C23.2082 35.8103 21.4068 35.3525 19.8069 34.484L14 36L15.554 30.3509C14.5954 28.6976 14.091 26.8223 14.0918 24.9009C14.0943 18.8902 19.0082 14 25.0459 14C27.9763 14.0013 30.7266 15.1366 32.7947 17.1972C34.8629 19.2577 36.0012 21.9966 36 24.9095C35.9976 30.9188 31.0856 35.8085 25.0461 35.8109ZM20.076 32.5105L20.4084 32.7068C21.8063 33.5324 23.4086 33.9692 25.0424 33.9698H25.0461C30.0642 33.9698 34.1485 29.905 34.1505 24.9089C34.1515 22.4877 33.2054 20.2113 31.4864 18.4985C29.7675 16.7858 27.4815 15.8421 25.0496 15.8413C20.0276 15.8413 15.9433 19.9057 15.9413 24.9015C15.9406 26.6136 16.422 28.281 17.3333 29.7236L17.5498 30.0664L16.6301 33.41L20.076 32.5105ZM30.1898 27.2565C30.3807 27.3484 30.5096 27.4104 30.5646 27.5018C30.633 27.6154 30.633 28.1608 30.4051 28.7971C30.1769 29.4335 29.0834 30.0142 28.5575 30.0923C28.086 30.1625 27.4892 30.1918 26.8336 29.9844C26.4361 29.8589 25.9263 29.6913 25.2733 29.4106C22.7074 28.3079 20.9733 25.8329 20.6456 25.3651C20.6226 25.3324 20.6066 25.3095 20.5976 25.2975L20.5954 25.2946C20.4506 25.1023 19.48 23.8135 19.48 22.4798C19.48 21.225 20.0993 20.5674 20.3844 20.2647C20.4039 20.244 20.4219 20.2249 20.4379 20.2074C20.6889 19.9347 20.9854 19.8664 21.1678 19.8664C21.3503 19.8664 21.533 19.8681 21.6925 19.8761C21.7121 19.8771 21.7326 19.877 21.7537 19.8768C21.9132 19.8759 22.1121 19.8748 22.3083 20.3437C22.3837 20.5242 22.4942 20.7917 22.6106 21.0739C22.8461 21.6445 23.1064 22.2751 23.1521 22.3663C23.2206 22.5026 23.2662 22.6617 23.1749 22.8435C23.1613 22.8707 23.1486 22.8965 23.1365 22.9211C23.0679 23.0603 23.0176 23.1627 22.9012 23.2979C22.8555 23.351 22.8083 23.4083 22.761 23.4656C22.6668 23.5797 22.5727 23.6938 22.4907 23.7751C22.3536 23.9109 22.211 24.0583 22.3707 24.331C22.5303 24.6037 23.0797 25.4957 23.8933 26.218C24.768 26.9944 25.5282 27.3226 25.9135 27.4889C25.9887 27.5214 26.0497 27.5477 26.0944 27.57C26.368 27.7064 26.5276 27.6835 26.6874 27.5018C26.847 27.32 27.3716 26.7064 27.554 26.4337C27.7364 26.1612 27.9189 26.2066 28.1698 26.2974C28.4208 26.3884 29.7664 27.0473 30.0401 27.1837C30.0935 27.2102 30.1435 27.2343 30.1898 27.2565Z" fill="white"/>
</svg>
