<svg width="42" height="42" viewBox="0 0 42 42" fill="none" xmlns="http://www.w3.org/2000/svg">
<path fill-rule="evenodd" clip-rule="evenodd" d="M21.6826 28.9515C20.0143 28.9515 19.239 28.7069 17.8913 27.7284C17.0389 28.8292 14.3395 29.6894 14.2218 28.2177C14.2218 27.1128 13.9783 26.1792 13.7022 25.16C13.3734 23.9044 13 22.506 13 20.4798C13 15.6406 16.9537 12 21.638 12C26.3264 12 29.9999 15.82 29.9999 20.5247C30.0157 25.1566 26.2945 28.9268 21.6826 28.9515ZM21.7516 16.1828C19.4704 16.0646 17.6924 17.6505 17.2987 20.1374C16.974 22.1962 17.5504 24.7034 18.0415 24.8339C18.277 24.891 18.8696 24.4099 19.239 24.0389C19.8498 24.4627 20.5611 24.7172 21.3011 24.7768C23.6648 24.891 25.6846 23.0836 25.8433 20.7122C25.9357 18.3357 24.1157 16.3229 21.7516 16.1869L21.7516 16.1828Z" fill="#718595"/>
</svg>
