<svg width="24" height="24" viewBox="0 0 24 24" fill="none" xmlns="http://www.w3.org/2000/svg">
<path d="M11.25 15.25C12.5617 15.25 13.625 16.3133 13.625 17.625C13.625 18.9367 12.5617 20 11.25 20C9.93832 20 8.875 18.9367 8.875 17.625C8.875 16.3133 9.93832 15.25 11.25 15.25ZM11.25 16.25C10.4906 16.25 9.875 16.8656 9.875 17.625C9.875 18.3844 10.4906 19 11.25 19C12.0094 19 12.625 18.3844 12.625 17.625C12.625 16.8656 12.0094 16.25 11.25 16.25Z" fill="#35AFDA"/>
<path d="M11.25 10.75C11.5261 10.75 11.75 10.9739 11.75 11.25V15.75C11.75 16.0261 11.5261 16.25 11.25 16.25C10.9739 16.25 10.75 16.0261 10.75 15.75V11.25C10.75 10.9739 10.9739 10.75 11.25 10.75Z" fill="#35AFDA"/>
<path d="M19.875 4C20.1511 4 20.375 4.22386 20.375 4.5V7.5C20.375 7.77614 20.1511 8 19.875 8C19.5989 8 19.375 7.77614 19.375 7.5V4.5C19.375 4.22386 19.5989 4 19.875 4Z" fill="#35AFDA"/>
<path d="M16.5459 6.41895C16.6312 6.15646 16.9133 6.01262 17.1758 6.09766L20.0293 7.02441C20.2919 7.10975 20.4359 7.39265 20.3506 7.65527C20.265 7.9175 19.9821 8.06085 19.7197 7.97559L16.8672 7.04883C16.6049 6.96347 16.461 6.68135 16.5459 6.41895Z" fill="#35AFDA"/>
<path d="M19.4707 7.20605C19.633 6.9827 19.9465 6.93341 20.1699 7.0957C20.3928 7.25812 20.4424 7.57074 20.2803 7.79395L18.5166 10.2207C18.3544 10.444 18.0417 10.494 17.8184 10.332C17.595 10.1697 17.5457 9.85622 17.708 9.63281L19.4707 7.20605Z" fill="#35AFDA"/>
<path d="M19.5811 7.0957C19.8044 6.93344 20.117 6.98277 20.2793 7.20605L22.043 9.63281C22.2051 9.85619 22.1559 10.1697 21.9326 10.332C21.7093 10.4943 21.3957 10.444 21.2334 10.2207L19.4707 7.79395C19.3084 7.57059 19.3578 7.25804 19.5811 7.0957Z" fill="#35AFDA"/>
<path d="M22.5732 6.09766C22.8359 6.01232 23.1188 6.15632 23.2041 6.41895C23.2892 6.68143 23.1452 6.9635 22.8828 7.04883L20.0293 7.97559C19.7669 8.06066 19.4849 7.9175 19.3994 7.65527C19.3141 7.39271 19.4582 7.10982 19.7207 7.02441L22.5732 6.09766Z" fill="#35AFDA"/>
<path d="M11.25 1C12.1782 1.00006 13.0683 1.36907 13.7246 2.02539C14.3809 2.68176 14.75 3.5718 14.75 4.5V13.5459C15.5338 14.2185 16.1089 15.104 16.4033 16.0977C16.7212 17.1706 16.6962 18.3159 16.332 19.374C15.9678 20.4322 15.2821 21.3501 14.3711 22C13.4601 22.6499 12.3691 23 11.25 23C10.1309 23 9.03995 22.6498 8.12891 22C7.21784 21.3501 6.53225 20.4322 6.16797 19.374C5.80374 18.3159 5.77873 17.1706 6.09668 16.0977C6.39115 15.104 6.96614 14.2185 7.75 13.5459V4.5C7.75 3.57174 8.11901 2.68177 8.77539 2.02539C9.43176 1.36909 10.3218 1 11.25 1ZM11.25 2C10.587 2 9.95125 2.26365 9.48242 2.73242C9.01358 3.20126 8.75 3.83696 8.75 4.5V13.7832C8.75 13.9467 8.66987 14.0962 8.54199 14.1885C7.83179 14.7482 7.31269 15.5146 7.05566 16.3818C6.79686 17.2552 6.81679 18.1875 7.11328 19.0488C7.40978 19.91 7.96751 20.6576 8.70898 21.1865C9.45053 21.7155 10.3391 22 11.25 22C12.1608 22 13.0495 21.7155 13.791 21.1865C14.5324 20.6575 15.0902 19.91 15.3867 19.0488C15.6832 18.1876 15.7031 17.2552 15.4443 16.3818C15.1873 15.5144 14.6675 14.7482 13.957 14.1885C13.8294 14.0961 13.75 13.9464 13.75 13.7832V4.5L13.7373 4.25293C13.6805 3.68068 13.4277 3.14264 13.0176 2.73242C12.5488 2.26364 11.913 2.00006 11.25 2Z" fill="#35AFDA"/>
</svg>
