<svg width="24" height="24" viewBox="0 0 24 24" fill="none" xmlns="http://www.w3.org/2000/svg">
<path fill-rule="evenodd" clip-rule="evenodd" d="M12.5272 17.8883H12.5246C11.4412 17.8879 10.3768 17.6174 9.43132 17.1042L6 18L6.91828 14.6619C6.35183 13.685 6.05379 12.5768 6.05425 11.4414C6.0557 7.88966 8.95939 5 12.5271 5C14.2587 5.00074 15.8839 5.67163 17.106 6.88925C18.3281 8.10682 19.0007 9.72528 19 11.4465C18.9986 14.9975 16.096 17.8868 12.5272 17.8883ZM9.59034 15.938L9.78678 16.054C10.6128 16.5419 11.5597 16.8 12.5251 16.8003H12.5272C15.4925 16.8003 17.9059 14.3984 17.9071 11.4462C17.9077 10.0155 17.3486 8.67029 16.3329 7.65823C15.3171 6.64617 13.9663 6.08853 12.5293 6.08803C9.56177 6.08803 7.14833 8.48974 7.14715 11.4418C7.14674 12.4535 7.43117 13.4388 7.96968 14.2912L8.09763 14.4938L7.55413 16.4696L9.59034 15.938ZM15.5667 12.8334C15.6795 12.8877 15.7557 12.9243 15.7882 12.9783C15.8286 13.0455 15.8286 13.3678 15.6939 13.7438C15.5591 14.1198 14.9129 14.4629 14.6022 14.5091C14.3236 14.5506 13.9709 14.5679 13.5835 14.4453C13.3486 14.3712 13.0474 14.2721 12.6615 14.1063C11.1453 13.4547 10.1206 11.9922 9.92693 11.7158C9.91337 11.6964 9.90389 11.6829 9.89858 11.6758L9.89731 11.6741C9.81172 11.5604 9.2382 10.7989 9.2382 10.0108C9.2382 9.26933 9.60413 8.88073 9.77258 8.70184C9.78415 8.68961 9.79476 8.67833 9.80424 8.66799C9.95251 8.50684 10.1277 8.46654 10.2355 8.46654C10.3433 8.46654 10.4513 8.46753 10.5455 8.47227C10.5572 8.47285 10.5693 8.47276 10.5817 8.47267C10.676 8.47213 10.7935 8.47146 10.9094 8.74856C10.954 8.85518 11.0193 9.0133 11.0881 9.18005C11.2272 9.51723 11.381 9.88981 11.4081 9.9437C11.4485 10.0243 11.4755 10.1183 11.4215 10.2257C11.4135 10.2418 11.406 10.257 11.3988 10.2715C11.3583 10.3538 11.3286 10.4143 11.2598 10.4942C11.2328 10.5256 11.2049 10.5594 11.1769 10.5933C11.1213 10.6607 11.0657 10.7282 11.0172 10.7762C10.9362 10.8565 10.852 10.9435 10.9463 11.1047C11.0406 11.2658 11.3653 11.7929 11.846 12.2197C12.3629 12.6785 12.8121 12.8725 13.0398 12.9707C13.0843 12.9899 13.1203 13.0055 13.1467 13.0187C13.3084 13.0992 13.4027 13.0857 13.4971 12.9783C13.5914 12.8709 13.9014 12.5083 14.0092 12.3472C14.117 12.1862 14.2248 12.213 14.373 12.2666C14.5214 12.3204 15.3165 12.7098 15.4782 12.7903C15.5098 12.8061 15.5393 12.8203 15.5667 12.8334Z" fill="#25D366"/>
</svg>
