<svg width="60" height="37" viewBox="0 0 60 37" fill="none" xmlns="http://www.w3.org/2000/svg">
<g clip-path="url(#clip0_3824_786)">
<path d="M30.0815 15.2739H28.1547L26.791 17.7187H26.0891L26.0668 12.4277H24.2427V21.9835H26.0668L26.0891 19.3608H26.7866L28.5971 21.9835H30.618L28.2575 18.5078L30.0815 15.2739Z" fill="#718595"/>
<path d="M43.8865 18.4214C43.5158 18.1767 43.1142 17.9848 42.6927 17.8512L42.2903 17.6961L42.1815 17.6544C41.9315 17.5588 41.6689 17.4584 41.6599 17.1989C41.6577 17.1219 41.6744 17.0456 41.7088 16.977C41.7431 16.9084 41.794 16.8498 41.8568 16.8067C41.9887 16.7138 42.1436 16.6601 42.3037 16.6516C42.653 16.627 42.9993 16.7323 43.2783 16.9481L43.3277 16.98L44.3023 15.8351L44.253 15.7941C44.1316 15.6837 43.9999 15.586 43.8596 15.5022C43.6083 15.3555 43.3347 15.2522 43.0504 15.1966C42.6407 15.1077 42.2171 15.1077 41.8075 15.1966C41.4114 15.2501 41.0357 15.4072 40.7165 15.6527C40.5126 15.8155 40.3421 16.0178 40.2148 16.2479C40.0875 16.4779 40.0058 16.7314 39.9745 16.9937C39.9185 17.467 40.0364 17.9448 40.3053 18.3347C40.6626 18.7382 41.1295 19.024 41.6464 19.1557L41.7271 19.1831L41.9103 19.2469C42.572 19.475 42.7598 19.5662 42.8671 19.703C42.9169 19.7719 42.9451 19.8546 42.9475 19.9402C42.9475 20.2641 42.5585 20.3963 42.2949 20.4784C42.1103 20.5138 41.9209 20.5102 41.7379 20.4678C41.5548 20.4254 41.3821 20.3452 41.2308 20.2321C40.9857 20.0649 40.776 19.8494 40.6139 19.5981C40.5868 19.6269 40.4971 19.7183 40.38 19.8377C40.0511 20.173 39.5053 20.7295 39.5185 20.743L39.5498 20.7886C40.0366 21.4105 40.7187 21.8422 41.481 22.011C41.6553 22.0454 41.8317 22.0682 42.0088 22.0794H42.192C42.7942 22.0923 43.3843 21.905 43.873 21.5458C44.2036 21.3072 44.4571 20.9738 44.6018 20.5879C44.6897 20.3288 44.7208 20.0533 44.693 19.7806C44.6653 19.5079 44.5792 19.2448 44.4408 19.0097C44.2994 18.7753 44.1105 18.5747 43.8865 18.4214Z" fill="#718595"/>
<path d="M48.5922 17.8513C49.0122 17.9849 49.4124 18.1768 49.7814 18.4214C50.0014 18.5748 50.1871 18.7737 50.3267 19.0053C50.4651 19.2403 50.5512 19.5034 50.5789 19.7761C50.6067 20.0488 50.5756 20.3244 50.4877 20.5834C50.3433 20.9693 50.0895 21.3027 49.7589 21.5413C49.2702 21.9005 48.6801 22.0878 48.0779 22.0749H47.8947C47.7176 22.064 47.5414 22.0412 47.3671 22.0065C46.6046 21.8377 45.9227 21.406 45.4357 20.7841L45.4 20.7385C45.3912 20.7265 45.8223 20.2853 46.1482 19.9519C46.3194 19.7768 46.4614 19.6314 46.4954 19.5936C46.6599 19.8429 46.8691 20.058 47.1123 20.2277C47.2645 20.3409 47.4378 20.4211 47.6215 20.4635C47.8052 20.5058 47.9955 20.5094 48.1808 20.474C48.4446 20.3919 48.829 20.2596 48.829 19.9357C48.8314 19.8501 48.8045 19.7662 48.753 19.6985C48.6457 19.5617 48.4581 19.4705 47.7918 19.2424L47.6085 19.1786L47.5326 19.1512C47.0154 19.0196 46.5485 18.7337 46.1912 18.3302C45.9201 17.9414 45.802 17.4627 45.8604 16.9892C45.8932 16.727 45.9764 16.4739 46.1053 16.2445C46.2341 16.0152 46.4062 15.8141 46.6114 15.6528C46.9313 15.4087 47.3068 15.2517 47.7024 15.1967C48.1136 15.1076 48.5385 15.1076 48.9497 15.1967C49.2327 15.2524 49.5047 15.3557 49.7545 15.5023C49.897 15.5849 50.0303 15.6827 50.1525 15.7942L50.1972 15.8352L49.2226 16.9801L49.1779 16.9481C48.8984 16.7332 48.5523 16.6279 48.2032 16.6517C48.0429 16.6602 47.8881 16.7139 47.7561 16.8068C47.6949 16.8516 47.6449 16.9104 47.6099 16.9785C47.5748 17.0467 47.5561 17.1222 47.5548 17.199C47.5682 17.459 47.8277 17.5594 48.0825 17.6551L48.1852 17.6962L48.5922 17.8513Z" fill="#718595"/>
<path fill-rule="evenodd" clip-rule="evenodd" d="M36.0731 15.2735V15.9303H35.9927C35.4934 15.4203 34.8169 15.1318 34.1104 15.1276C33.6773 15.1188 33.2472 15.2033 32.8483 15.3754C32.4492 15.5475 32.0902 15.8034 31.7946 16.1265C31.1984 16.8076 30.8785 17.6948 30.9003 18.6078C30.8772 19.536 31.1964 20.4394 31.7946 21.1392C32.0831 21.4625 32.4364 21.7186 32.8307 21.8902C33.2249 22.0618 33.6507 22.1448 34.0791 22.1336C34.7865 22.12 35.4669 21.8537 36.0015 21.381H36.0731V21.9694H37.9688V15.2735H36.0731ZM36.1669 18.6442C36.1861 19.1839 36.0094 19.7116 35.6707 20.1266C35.5083 20.3121 35.3081 20.4588 35.0841 20.5566C34.8601 20.6543 34.6178 20.7006 34.3742 20.6922C34.1381 20.6963 33.904 20.6459 33.6895 20.5448C33.4751 20.4437 33.2857 20.2945 33.1357 20.1084C32.8012 19.6848 32.6296 19.1512 32.6529 18.6078C32.6377 18.0806 32.8128 17.5661 33.1448 17.1619C33.2976 16.9785 33.4884 16.8319 33.7031 16.7326C33.9181 16.6333 34.1518 16.5836 34.3877 16.5872C34.6295 16.5795 34.87 16.6266 35.092 16.7252C35.3138 16.8238 35.5114 16.9714 35.6707 17.1573C36.0092 17.5741 36.1858 18.1033 36.1669 18.6442Z" fill="#718595"/>
<path fill-rule="evenodd" clip-rule="evenodd" d="M56.6922 15.9303V15.2735H58.5877V21.9693H56.6922V21.3809H56.6206C56.0858 21.8536 55.4055 22.1199 54.6982 22.1335C54.2696 22.1447 53.8439 22.0617 53.4498 21.8901C53.0556 21.7186 52.702 21.4624 52.4135 21.1392C51.8153 20.4393 51.4964 19.536 51.5195 18.6077C51.4977 17.6947 51.8173 16.8076 52.4135 16.1264C52.7104 15.8037 53.0703 15.548 53.4699 15.376C53.8696 15.2039 54.3002 15.1193 54.7339 15.1275C55.439 15.1329 56.1134 15.4213 56.6116 15.9303H56.6922ZM56.2898 20.1266C56.6303 19.7127 56.8072 19.1841 56.786 18.6442C56.807 18.1029 56.6301 17.573 56.2898 17.1572C56.1306 16.9713 55.9328 16.8237 55.711 16.7251C55.4892 16.6265 55.2484 16.5794 55.0066 16.5871C54.7707 16.5835 54.537 16.6332 54.3223 16.7325C54.1073 16.8319 53.9165 16.9785 53.7637 17.1618C53.4318 17.566 53.2569 18.0805 53.2721 18.6077C53.2485 19.1512 53.4203 19.6847 53.7549 20.1083C53.9049 20.2945 54.0941 20.4436 54.3086 20.5447C54.5229 20.6458 54.757 20.6962 54.9932 20.6922C55.2368 20.7005 55.479 20.6542 55.703 20.5565C55.9273 20.4587 56.1275 20.312 56.2898 20.1266Z" fill="#718595"/>
<path fill-rule="evenodd" clip-rule="evenodd" d="M5.82411 18.0718C5.83462 14.1114 9.01576 10.8828 13.0132 10.8828C16.9718 10.8828 20.2479 14.1221 20.2024 18.0914C20.2024 22.0608 16.9718 25.3001 13.0132 25.3001C9.06113 25.3001 5.83468 22.1168 5.82411 18.1112V23.4751H3.27607L0 12.9815H5.82411V18.0718ZM10.3287 18.0914C10.3287 19.5514 11.5572 20.7833 13.0132 20.7833C14.5148 20.7833 15.6978 19.5514 15.6978 18.0914C15.6978 16.6315 14.4693 15.3996 13.0132 15.3996C11.5572 15.3996 10.3287 16.6315 10.3287 18.0914Z" fill="#718595"/>
</g>
<defs>
<clipPath id="clip0_3824_786">
<rect width="58.5882" height="14.5098" fill="white" transform="translate(0 10.8828)"/>
</clipPath>
</defs>
</svg>
