<?xml version="1.0" standalone="no"?>
<!DOCTYPE svg PUBLIC "-//W3C//DTD SVG 1.1//EN" "http://www.w3.org/Graphics/SVG/1.1/DTD/svg11.dtd" >
<svg xmlns="http://www.w3.org/2000/svg">
<metadata>Generated by IcoMoon</metadata>
<defs>
<font id="MotoristIconFont" horiz-adv-x="1024">
<font-face units-per-em="1024" ascent="960" descent="-64" />
<missing-glyph horiz-adv-x="1024" />
<glyph unicode="&#x20;" horiz-adv-x="512" d="" />
<glyph unicode="&#xe900;" glyph-name="arrow" d="M500.791 598.833c8.333 8.328 21.837 8.33 30.165 0l135.795-135.751c8.307-8.329 8.311-21.841 0-30.165l-135.795-135.753c-8.329-8.329-21.833-8.32-30.165 0-8.32 8.333-8.329 21.841 0 30.17l99.332 99.332h-227.749c-11.781 0-21.331 9.553-21.333 21.333 0 11.78 9.551 21.333 21.333 21.333h227.749l-99.332 99.333c-8.329 8.328-8.32 21.835 0 30.167z" />
<glyph unicode="&#xe901;" glyph-name="basket" d="M701.125 669.87h-40.379c-3.213 37.354-18.924 72.045-44.063 97.292s-57.902 39.238-91.884 39.238c-33.981 0-66.744-13.99-91.884-39.238s-40.85-59.938-44.063-97.292h-40.379c-24.517-0.033-48.020-10.803-65.357-29.944-17.336-19.144-27.087-45.097-27.118-72.166v-350.449c0.031-27.072 9.782-53.023 27.118-72.166 17.336-19.141 40.84-29.911 65.357-29.944h352.65c24.517 0.033 48.020 10.803 65.357 29.944 17.336 19.144 27.087 45.094 27.118 72.166v350.444c-0.028 27.072-9.782 53.025-27.118 72.169s-40.84 29.914-65.357 29.947zM524.8 759.288c22.671-0.079 44.559-9.15 61.678-25.561s28.329-39.068 31.583-63.841h-186.522c3.254 24.773 14.461 47.43 31.583 63.841 17.119 16.411 39.007 25.482 61.678 25.561zM750.915 217.311c-0.013-14.577-5.263-28.554-14.597-38.863-9.336-10.307-21.993-16.105-35.195-16.118h-352.648c-13.202 0.013-25.859 5.811-35.195 16.118-9.336 10.309-14.587 24.287-14.6 38.863v350.444c0.013 14.579 5.263 28.554 14.6 38.863 9.336 10.307 21.993 16.105 35.195 16.12h352.65c13.202-0.015 25.859-5.814 35.195-16.12 9.336-10.309 14.587-24.284 14.6-38.863l-0.005-350.444z" />
<glyph unicode="&#xe902;" glyph-name="bento" d="M245.333 405.333c111.93 0 202.667-90.735 202.667-202.667s-90.737-202.667-202.667-202.667c-111.93 0-202.667 90.735-202.667 202.667s90.737 202.667 202.667 202.667zM757.333 405.333c111.932 0 202.667-90.735 202.667-202.667s-90.735-202.667-202.667-202.667c-111.932 0-202.667 90.735-202.667 202.667s90.735 202.667 202.667 202.667zM245.333 341.333c-76.584 0-138.667-62.084-138.667-138.667s62.083-138.667 138.667-138.667c76.584 0 138.667 62.084 138.667 138.667s-62.083 138.667-138.667 138.667zM757.333 341.333c-76.582 0-138.667-62.084-138.667-138.667s62.084-138.667 138.667-138.667c76.582 0 138.667 62.084 138.667 138.667s-62.084 138.667-138.667 138.667zM245.333 917.333c111.93 0 202.667-90.737 202.667-202.667s-90.737-202.667-202.667-202.667c-111.93 0-202.667 90.737-202.667 202.667s90.737 202.667 202.667 202.667zM757.333 917.333c111.932 0 202.667-90.737 202.667-202.667s-90.735-202.667-202.667-202.667c-111.932 0-202.667 90.737-202.667 202.667s90.735 202.667 202.667 202.667zM245.333 853.333c-76.584 0-138.667-62.083-138.667-138.667s62.083-138.667 138.667-138.667c76.584 0 138.667 62.083 138.667 138.667s-62.083 138.667-138.667 138.667zM757.333 853.333c-76.582 0-138.667-62.083-138.667-138.667s62.084-138.667 138.667-138.667c76.582 0 138.667 62.083 138.667 138.667s-62.084 138.667-138.667 138.667z" />
<glyph unicode="&#xe903;" glyph-name="bento-menu" d="M85.333 704c0 94.257 76.41 170.667 170.667 170.667s170.667-76.41 170.667-170.667c0-94.257-76.41-170.667-170.667-170.667s-170.667 76.41-170.667 170.667zM85.333 192c0 94.255 76.41 170.667 170.667 170.667s170.667-76.412 170.667-170.667c0-94.255-76.41-170.667-170.667-170.667s-170.667 76.412-170.667 170.667zM597.333 704c0 94.257 76.412 170.667 170.667 170.667s170.667-76.41 170.667-170.667c0-94.257-76.412-170.667-170.667-170.667s-170.667 76.41-170.667 170.667zM597.333 192c0 94.255 76.412 170.667 170.667 170.667s170.667-76.412 170.667-170.667c0-94.255-76.412-170.667-170.667-170.667s-170.667 76.412-170.667 170.667z" />
<glyph unicode="&#xe904;" glyph-name="cart" d="M233.925 779.025c8.756-0.767 17.105-4.182 23.9-9.85 7.767-6.482 13.015-15.496 14.825-25.45l80.824-444.525h326.525c10.604 0 19.2-8.596 19.2-19.2s-8.596-19.2-19.2-19.2h-342.551c-9.275 0.003-17.213 6.648-18.875 15.775l-83.699 460.275c-0.201 1.105-0.789 2.105-1.65 2.825-0.43 0.359-0.907 0.662-1.425 0.85l-1.65 0.275h-54.15c-10.604 0-19.2 8.596-19.2 19.2s8.596 19.2 19.2 19.2h54.15l3.775-0.175zM368 299.2c43.74 0 79.201-35.459 79.201-79.199 0-43.743-35.461-79.201-79.201-79.201s-79.201 35.459-79.201 79.201c0 43.74 35.461 79.199 79.201 79.199zM368 260.8c-22.533 0-40.801-18.266-40.801-40.799 0-22.536 18.268-40.801 40.801-40.801s40.801 18.266 40.801 40.801c0 22.533-18.268 40.799-40.801 40.799zM680 299.2c43.74 0 79.199-35.459 79.199-79.199 0-43.743-35.459-79.201-79.199-79.201s-79.199 35.459-79.199 79.201c0 43.74 35.459 79.199 79.199 79.199zM680 260.8c-22.533 0-40.799-18.266-40.799-40.799 0-22.536 18.266-40.801 40.799-40.801s40.799 18.266 40.799 40.801c0 22.533-18.266 40.799-40.799 40.799zM776 659.2c5.693 0 11.103-2.529 14.751-6.899 3.64-4.367 5.164-10.13 4.15-15.726l-36.475-200.599c-2.816-15.483-10.995-29.494-23.076-39.575-10.57-8.819-23.555-14.157-37.174-15.35l-5.875-0.251h-376.676c-10.598 0.005-19.2 8.599-19.2 19.2s8.602 19.195 19.2 19.2h376.676c6.743 0 13.271 2.378 18.45 6.7 5.176 4.321 8.694 10.314 9.9 16.95l32.351 177.951h-481.001c-10.604 0-19.2 8.596-19.2 19.2s8.596 19.2 19.2 19.2h504z" />
<glyph unicode="&#xe905;" glyph-name="cart-min" d="M736 192c17.67 0 32 14.33 32 32s-14.33 32-32 32h-430l-106.813 587.437c-2.681 14.746-10.493 28.084-22 37.688-10.063 8.396-22.408 13.484-35.375 14.625l-5.625 0.25h-72.188c-17.673 0-32-14.327-32-32s14.327-32 32-32h72.188l111.625-613.747c2.777-15.194 15.992-26.24 31.437-26.253h456.75zM320 32c61.856 0 112 50.144 112 112s-50.144 112-112 112c-61.856 0-112-50.144-112-112s50.144-112 112-112zM320 96c-26.509 0-48 21.491-48 48s21.491 48 48 48c26.509 0 48-21.491 48-48s-21.491-48-48-48zM736 32c61.856 0 112 50.144 112 112s-50.144 112-112 112c-61.856 0-112-50.144-112-112s50.144-112 112-112zM736 96c-26.509 0-48 21.491-48 48s21.491 48 48 48c26.509 0 48-21.491 48-48s-21.491-48-48-48zM752.378 352l8.435 0.375c19.456 1.71 38.029 9.337 53.126 21.937 17.248 14.402 28.915 34.394 32.934 56.5l48.627 267.437c1.696 9.336-0.858 18.964-6.938 26.25s-15.072 11.5-24.563 11.5h-672c-17.673 0-32-14.327-32-32s14.327-32 32-32h633.626l-41.754-229.75c-1.338-7.354-5.197-14.018-10.938-18.813-5.754-4.802-13.062-7.437-20.557-7.437h-502.19c-17.673 0-32-14.327-32-32s14.327-32 32-32h502.19z" />
<glyph unicode="&#xe906;" glyph-name="check" d="M512 885.333c17.749 0 33.37-6.362 46.75-14.625 13.235-8.175 25.429-18.934 36.373-29.208 11.529-10.823 21.261-20.628 31.753-29.667 10.278-8.855 19.405-15.26 28.041-18.833 8.090-3.346 18.65-5.13 32.043-6 13.76-0.893 27.29-0.713 43.29-1.167 28.779-0.817 65.877-3.458 90.999-28.583 25.126-25.126 27.767-62.221 28.587-91 0.452-16.001 0.273-29.531 1.165-43.291 0.87-13.391 2.654-23.952 5.999-32.042 3.575-8.637 9.975-17.803 18.833-28.083 9.037-10.484 18.85-20.186 29.67-31.71 10.274-10.944 21.030-23.138 29.205-36.373 8.265-13.38 14.626-29.001 14.626-46.75s-6.362-33.37-14.626-46.75c-8.175-13.235-18.931-25.429-29.205-36.373-10.825-11.529-20.629-21.261-29.67-31.753-8.853-10.278-15.258-19.405-18.833-28.041-3.345-8.090-5.129-18.65-5.999-32.043-0.892-13.76-0.713-27.29-1.165-43.29-0.819-28.779-3.46-65.877-28.587-90.999-25.122-25.126-62.221-27.767-90.999-28.587-16-0.452-29.53-0.273-43.29-1.165-13.393-0.87-23.953-2.654-32.043-5.999-8.636-3.575-17.801-9.975-28.083-18.833-10.483-9.037-20.186-18.85-31.71-29.67-10.944-10.274-23.138-21.030-36.373-29.205-13.38-8.265-29.001-14.626-46.75-14.626s-33.37 6.362-46.75 14.626c-13.235 8.175-25.429 18.931-36.373 29.205-11.53 10.825-21.262 20.629-31.752 29.67-10.278 8.853-19.407 15.258-28.042 18.833-8.090 3.345-18.65 5.129-32.042 5.999-13.76 0.892-27.29 0.713-43.291 1.165-28.779 0.819-65.874 3.46-91 28.587-25.126 25.122-27.766 62.221-28.583 90.999-0.454 16-0.273 29.53-1.167 43.29-0.87 13.393-2.654 23.953-6 32.043-3.574 8.636-9.975 17.801-18.833 28.083-9.034 10.483-18.849 20.186-29.667 31.71-10.275 10.944-21.033 23.138-29.208 36.373-8.262 13.38-14.624 29.001-14.625 46.75s6.362 33.37 14.625 46.75c8.175 13.235 18.934 25.429 29.208 36.373 10.823 11.53 20.628 21.262 29.667 31.752 8.855 10.278 15.26 19.407 18.833 28.042 3.346 8.090 5.13 18.65 6 32.042 0.893 13.76 0.713 27.29 1.167 43.291 0.817 28.779 3.458 65.874 28.583 91s62.221 27.766 91 28.583c16.001 0.454 29.531 0.273 43.291 1.167 13.391 0.87 23.952 2.654 32.042 6 8.637 3.574 17.803 9.975 28.083 18.833 10.484 9.034 20.186 18.849 31.71 29.667 10.944 10.275 23.138 21.033 36.373 29.208 13.38 8.262 29.001 14.624 46.75 14.625zM512 842.667c-7.253 0-15.1-2.549-24.333-8.25-9.382-5.794-18.965-14.073-29.585-24.042-10.039-9.425-21.722-21.085-33.082-30.875-11.568-9.967-24.753-19.777-39.584-25.917-14.55-6.020-30.647-8.194-45.625-9.167-14.621-0.949-31.248-0.864-44.833-1.25-30.386-0.863-50.356-4.398-62.042-16.083s-15.22-31.656-16.083-62.042c-0.386-13.585-0.301-30.213-1.25-44.833-0.972-14.978-3.146-31.075-9.167-45.625-6.139-14.831-15.95-28.016-25.917-39.584-9.79-11.36-21.45-23.043-30.875-33.082-9.969-10.62-18.248-20.207-24.042-29.585-5.701-9.233-8.25-17.079-8.25-24.333s2.549-15.1 8.25-24.333c5.794-9.382 14.073-18.965 24.042-29.585 9.425-10.039 21.085-21.722 30.875-33.084 9.967-11.567 19.777-24.751 25.917-39.582 6.020-14.549 8.194-30.647 9.167-45.623 0.949-14.622 0.864-31.249 1.25-44.834 0.863-30.387 4.398-50.355 16.083-62.042s31.656-15.219 62.042-16.085c13.585-0.384 30.213-0.299 44.833-1.25 14.978-0.973 31.075-3.145 45.625-9.165 14.831-6.14 28.016-15.949 39.584-25.916 11.36-9.792 23.043-21.453 33.082-30.878 10.62-9.967 20.207-18.244 29.585-24.038 9.233-5.7 17.079-8.252 24.333-8.252s15.1 2.547 24.333 8.252c9.382 5.794 18.965 14.071 29.585 24.038 10.039 9.425 21.722 21.086 33.084 30.878 11.567 9.967 24.751 19.776 39.582 25.916 14.549 6.020 30.647 8.192 45.623 9.165 14.622 0.951 31.249 0.866 44.834 1.25 30.387 0.866 50.355 4.399 62.042 16.085s15.219 31.654 16.085 62.042c0.384 13.585 0.299 30.212 1.25 44.834 0.973 14.976 3.145 31.074 9.165 45.623 6.14 14.831 15.949 28.015 25.916 39.582 9.792 11.362 21.453 23.044 30.878 33.084 9.967 10.62 18.244 20.207 24.038 29.585 5.7 9.233 8.252 17.079 8.252 24.333s-2.547 15.1-8.252 24.333c-5.794 9.382-14.071 18.965-24.038 29.585-9.425 10.039-21.086 21.722-30.878 33.082-9.967 11.568-19.776 24.753-25.916 39.584-6.020 14.55-8.192 30.647-9.165 45.625-0.951 14.621-0.866 31.248-1.25 44.833-0.866 30.386-4.399 50.356-16.085 62.042s-31.654 15.22-62.042 16.083c-13.585 0.386-30.212 0.301-44.834 1.25-14.976 0.972-31.074 3.146-45.623 9.167-14.831 6.139-28.015 15.95-39.582 25.917-11.362 9.79-23.044 21.45-33.084 30.875-10.62 9.969-20.207 18.248-29.585 24.042-9.233 5.701-17.079 8.25-24.333 8.25zM673.25 559.417c8.516 8.129 22.029 7.838 30.165-0.667 8.124-8.517 7.838-22.032-0.666-30.165l-234.709-224c-8.239-7.863-21.214-7.863-29.457 0l-117.333 112c-8.505 8.137-8.796 21.649-0.667 30.165 8.137 8.503 21.65 8.798 30.167 0.666l102.541-97.916 219.959 209.917z" />
<glyph unicode="&#xe907;" glyph-name="chevron" d="M684.308 518.153c16.979 13.584 41.793 10.817 55.384-6.153 13.588-16.985 10.832-41.797-6.153-55.384l-196.923-157.538c-12.579-10.062-29.798-11.307-43.538-3.77l-5.693 3.77-196.923 157.538c-16.97 13.591-19.737 38.405-6.153 55.384s38.4 19.726 55.384 6.153l172.308-137.846 172.308 137.846z" />
<glyph unicode="&#xe908;" glyph-name="chevron-min" d="M885.333 685.332c36.789 29.431 90.552 23.436 119.999-13.332 29.442-36.801 23.468-90.559-13.332-119.999l-426.667-341.333c-27.254-21.801-64.563-24.497-94.333-8.168l-12.334 8.168-426.667 341.333c-36.769 29.447-42.764 83.21-13.333 119.999 29.432 36.785 83.201 42.74 120 13.332l373.333-298.667 373.333 298.667z" />
<glyph unicode="&#xe909;" glyph-name="compare" d="M320 537.6c14.139 0 25.6-11.461 25.6-25.6v-352c0-14.139-11.461-25.6-25.6-25.6s-25.6 11.461-25.6 25.6v352c0 14.139 11.461 25.6 25.6 25.6zM512 761.6c14.139 0 25.6-11.462 25.6-25.6v-576c0-14.139-11.461-25.6-25.6-25.6s-25.6 11.461-25.6 25.6v576c0 14.138 11.461 25.6 25.6 25.6zM704 665.6c14.139 0 25.6-11.461 25.6-25.6v-480c0-14.139-11.461-25.6-25.6-25.6s-25.6 11.461-25.6 25.6v480c0 14.139 11.461 25.6 25.6 25.6z" />
<glyph unicode="&#xe90a;" glyph-name="doc" d="M716.791 896c23.543 0 42.492 0 57.792-1.25 15.543-1.27 29.201-3.939 41.835-10.375 20.070-10.226 36.399-26.554 46.622-46.625 6.438-12.634 9.105-26.288 10.377-41.833 1.25-15.3 1.25-34.248 1.25-57.792v-580.25l-0.166-32c-0.154-9.587-0.461-18.146-1.084-25.792-1.271-15.543-3.938-29.201-10.377-41.835-10.223-20.070-26.551-36.399-46.622-46.622-12.634-6.438-26.291-9.105-41.835-10.377-7.646-0.623-16.205-0.93-25.792-1.084l-32-0.166h-409.583c-23.544 0-42.492 0-57.792 1.25-15.545 1.271-29.2 3.938-41.833 10.377-20.070 10.223-36.399 26.551-46.625 46.622-6.435 12.634-9.105 26.291-10.375 41.835-1.25 15.3-1.25 34.249-1.25 57.792v460.791c0 7.677 4.081 14.368 10.167 18.125 0.964 1.463 2.046 2.921 3.375 4.25l241.417 241.417c1.329 1.329 2.787 2.411 4.25 3.375 3.757 6.086 10.447 10.167 18.125 10.167h290.125zM448 661.333c0-35.346-28.654-64-64-64h-192v-439.458c0-24.247 0.008-41.173 1.083-54.332 1.054-12.89 3.018-20.305 5.875-25.92 6.136-12.041 15.957-21.862 28-27.998 5.614-2.859 13.029-4.821 25.917-5.875 13.159-1.075 30.086-1.084 54.333-1.084h409.583c24.247 0 41.173 0.009 54.332 1.084 12.89 1.054 20.305 3.017 25.92 5.875 12.041 6.135 21.862 15.957 27.998 27.998 2.859 5.615 4.821 13.030 5.875 25.92 1.075 13.158 1.084 30.084 1.084 54.332v580.25c0 24.248-0.009 41.174-1.084 54.333-1.054 12.887-3.017 20.303-5.875 25.917-6.135 12.043-15.957 21.864-27.998 28-5.615 2.857-13.030 4.821-25.92 5.875-13.158 1.075-30.084 1.083-54.332 1.083h-268.791v-192zM682.667 298.667c11.78 0 21.333-9.553 21.333-21.333s-9.553-21.333-21.333-21.333h-341.333c-11.782 0-21.333 9.553-21.333 21.333s9.551 21.333 21.333 21.333h341.333zM682.667 469.333c11.78 0 21.333-9.553 21.333-21.333s-9.553-21.333-21.333-21.333h-341.333c-11.782 0-21.333 9.553-21.333 21.333s9.551 21.333 21.333 21.333h341.333zM682.667 640c11.78 0 21.333-9.551 21.333-21.333s-9.553-21.333-21.333-21.333h-85.333c-11.78 0-21.333 9.551-21.333 21.333s9.553 21.333 21.333 21.333h85.333zM222.167 640h161.833c11.782 0 21.333 9.551 21.333 21.333v161.833l-183.167-183.167z" />
<glyph unicode="&#xe90b;" glyph-name="download" d="M832 327.125c11.776 0 21.325-9.557 21.333-21.333v-7.125c0-29.517 0-52.937-1.54-71.791-1.562-19.106-4.817-35.418-12.416-50.334-12.271-24.073-31.846-43.648-55.919-55.919-14.916-7.599-31.228-10.854-50.334-12.416-18.854-1.54-42.274-1.54-71.791-1.54h-298.667c-29.516 0-52.935 0-71.792 1.54-19.106 1.562-35.416 4.817-50.333 12.416-24.074 12.271-43.647 31.846-55.917 55.919-7.601 14.916-10.856 31.228-12.417 50.334-1.54 18.854-1.542 42.274-1.542 71.791v7.125c0.008 11.776 9.556 21.333 21.333 21.333s21.326-9.557 21.333-21.333v-7.125c0-30.221 0.009-51.618 1.375-68.335 1.346-16.461 3.892-26.517 7.916-34.415 8.181-16.055 21.238-29.111 37.292-37.291 7.898-4.023 17.956-6.571 34.417-7.919 16.716-1.365 38.112-1.374 68.333-1.374h298.667c30.221 0 51.618 0.009 68.335 1.374 16.461 1.348 26.517 3.895 34.415 7.919 16.055 8.179 29.111 21.235 37.291 37.291 4.023 7.898 6.571 17.954 7.919 34.415 1.365 16.717 1.374 38.114 1.374 68.335v7.125c0.009 11.776 9.557 21.333 21.333 21.333zM639.125 463.083c8.329 8.329 21.833 8.324 30.165 0 8.333-8.329 8.333-21.837 0-30.165l-117.082-117.086c-22.217-22.204-58.202-22.204-80.418 0l-117.082 117.086c-8.332 8.329-8.332 21.837 0 30.165 8.332 8.324 21.838 8.329 30.167 0l117.081-117.082c5.555-5.542 14.532-5.542 20.087 0l117.082 117.082zM512 789.333c11.78 0 21.333-9.551 21.333-21.333v-391.125c-0.009-11.776-9.557-21.333-21.333-21.333s-21.325 9.557-21.333 21.333v391.125c0 11.782 9.553 21.333 21.333 21.333z" />
<glyph unicode="&#xe90c;" glyph-name="favorite" d="M235.456 700.749c83.696 73.779 192.752 57.322 263.501-13.225 70.692 70.596 178.534 86.127 263.35 13.402 89.5-76.754 100.173-207.15 31.35-298.524-27.195-36.104-80.947-91.098-133.425-142.2-52.838-51.456-105.6-100.122-131.625-123.901-2.675-2.445-5.507-5.041-8.125-7.073-2.836-2.204-6.51-4.634-11.274-6.1-6.636-2.040-13.816-2.040-20.452 0-4.762 1.467-8.438 3.896-11.274 6.1-2.616 2.033-5.45 4.631-8.125 7.073-26.022 23.777-78.761 72.445-131.599 123.901-52.475 51.103-106.227 106.094-133.425 142.2-68.989 91.589-56.554 221.053 31.125 298.348zM484.206 646.825c-58.401 70.441-152.804 87.308-223.35 25.124-72.64-64.033-82.76-170.865-25.85-246.423 25.146-33.382 76.745-86.428 129.525-137.825 52.421-51.049 104.835-99.395 130.724-123.052 1.482-1.354 2.644-2.406 3.651-3.3 0.023-0.018 0.054-0.031 0.077-0.049 0.020 0.018 0.054 0.031 0.074 0.049 1.006 0.891 2.171 1.951 3.651 3.3 25.889 23.657 78.305 72.005 130.724 123.052 52.78 51.397 104.407 104.443 129.551 137.825 57.060 75.768 47.908 183.16-25.651 246.249-72.118 61.844-165.32 45.313-223.575-24.95-3.645-4.393-9.065-6.948-14.774-6.95-5.711 0.003-11.131 2.557-14.776 6.95z" />
<glyph unicode="&#xe90d;" glyph-name="favorite-fill-min" d="M183.063 771.688c103.983 88.561 237.457 73.272 328.626-4.125 91.055 77.441 223.155 91.56 328.247 4.5 116.045-96.146 130.001-260.271 40.627-374.917-33.745-43.285-99.405-108.075-162.21-167.168-63.616-59.853-127.074-116.407-158.374-144.038-2.982-2.633-7.083-6.268-10.999-9.212-4.42-3.319-10.918-7.573-19.627-10.163-11.473-3.409-23.817-3.413-35.29 0-8.704 2.59-15.206 6.848-19.627 10.163-3.908 2.94-7.979 6.583-10.957 9.212-31.305 27.631-94.799 84.181-158.417 144.038-62.805 59.093-128.467 123.887-162.208 167.168-89.741 115.132-73.163 277.981 40.209 374.542z" />
<glyph unicode="&#xe90e;" glyph-name="favorite-min" d="M196.916 755.417c99.997 85.169 230.437 65.888 314.793-16.625 84.288 82.563 213.265 100.8 314.624 16.833 106.944-88.608 119.876-239.601 37.414-345.376-32.576-41.783-97.024-105.493-160-164.749-63.377-59.631-126.647-116.019-157.875-143.582-3.23-2.854-6.583-5.854-9.664-8.166-3.337-2.505-7.552-5.154-12.919-6.75-7.505-2.227-15.616-2.236-23.121 0-5.363 1.591-9.545 4.25-12.877 6.75-3.085 2.313-6.434 5.312-9.668 8.166-31.219 27.563-94.523 83.938-157.915 143.582-62.982 59.26-127.425 122.965-160 164.749-82.646 106.014-67.569 255.919 37.208 345.168zM495.543 693.667c-70.488 82.144-185.232 102.298-270.96 29.292-87.594-74.612-99.639-198.679-31.208-286.457 30.234-38.784 92.253-100.331 155.583-159.919 62.919-59.2 125.802-115.277 156.876-142.707 2.773-2.449 4.574-3.938 5.875-5.001 1.297 1.062 3.123 2.534 5.914 5.001 31.074 27.43 93.999 83.507 156.919 142.707 63.322 59.58 125.303 121.135 155.541 159.919 68.621 88.021 57.783 212.719-30.959 286.249-87.603 72.581-200.879 52.877-271.211-29.083-4.049-4.705-9.954-7.413-16.166-7.417-6.217 0.002-12.156 2.701-16.205 7.417z" />
<glyph unicode="&#xe90f;" glyph-name="filter" d="M807.462 789.333c66.513-0.009 99.819-80.423 52.796-127.458l-213.333-213.333c-1.993-1.997-3.123-4.719-3.127-7.543v-280.998c0-43.947-50.172-69.035-85.333-42.667l-119.458 89.583c-18.793 14.101-29.875 36.254-29.875 59.75v174.332c-0.002 2.829-1.126 5.542-3.125 7.543l-213.333 213.333c-47.015 47.033-13.709 127.44 52.791 127.458h561.998zM245.464 725.333c-9.482-0.018-14.239-11.493-7.541-18.208l213.332-213.335c14.003-13.999 21.875-32.99 21.875-52.791v-174.332c0-3.349 1.574-6.528 4.25-8.542l102.417-76.791v259.665c0.004 19.797 7.881 38.793 21.875 52.791l213.333 213.335c6.711 6.718 1.95 18.2-7.543 18.208h-561.998z" />
<glyph unicode="&#xe910;" glyph-name="form-mail" d="M744.124 725.333c18.778 0 34.078 0.032 46.46-0.916 12.591-0.965 23.987-3.026 34.667-8.125 16.734-7.993 30.596-20.893 39.373-37.042 5.692-10.468 7.987-21.649 9.045-33.75 1.028-11.813 0.998-26.371 0.998-43.917v-307.166c0-17.549 0.030-32.102-0.998-43.917-1.058-12.1-3.354-23.283-9.045-33.749-8.777-16.149-22.639-29.052-39.373-37.043-10.679-5.099-22.076-7.159-34.667-8.124-12.382-0.947-27.682-0.917-46.46-0.917h-464.249c-18.778 0-34.075-0.030-46.458 0.917-12.591 0.964-23.987 3.025-34.667 8.124-16.733 7.991-30.595 20.894-39.375 37.043-5.689 10.466-7.986 21.649-9.041 33.749-1.030 11.814-1 26.368-1 43.917v307.166c0 17.546-0.029 32.104 1 43.917 1.055 12.101 3.352 23.282 9.041 33.75 8.78 16.149 22.642 29.049 39.375 37.042 10.68 5.099 22.075 7.16 34.667 8.125 12.384 0.948 27.681 0.916 46.458 0.916h464.249zM566.498 461.333c-32.141-23.437-76.855-23.437-108.996 0l-262.877 191.708c-0.734-2.778-1.366-6.368-1.792-11.25-0.831-9.531-0.833-21.911-0.833-40.208v-307.166c0-18.295 0.003-30.677 0.833-40.209 0.805-9.233 2.252-13.867 4-17.084 4.31-7.927 11.339-14.639 20.292-18.914 3.916-1.873 9.385-3.307 19.542-4.083 10.376-0.798 23.771-0.794 43.208-0.794h464.249c19.439 0 32.832-0.004 43.209 0.794 10.159 0.777 15.629 2.21 19.541 4.083 8.956 4.275 15.983 10.987 20.292 18.914 1.749 3.217 3.196 7.851 4.002 17.084 0.828 9.532 0.832 21.914 0.832 40.209v307.166c0 18.297-0.004 30.677-0.832 40.208-0.427 4.887-1.101 8.47-1.835 11.25l-262.835-191.708zM279.875 682.667c-19.437 0-32.832 0.003-43.208-0.791-3.047-0.234-5.672-0.53-7.959-0.875l253.958-185.209c17.161-12.506 41.506-12.506 58.667 0l253.918 185.209c-2.278 0.343-4.89 0.643-7.919 0.875-10.377 0.794-23.77 0.791-43.209 0.791h-464.249z" />
<glyph unicode="&#xe911;" glyph-name="form-phone" d="M337.417 724.979c9.705 1.157 19.542-0.813 28.042-5.667 8.503-4.858 15.239-12.346 19.125-21.375h-0.041l60.668-139.75c2.978-6.868 4.203-14.37 3.541-21.833-0.666-7.458-3.166-14.643-7.292-20.877l-50.334-75.917c-0.211-0.32-0.309-0.7-0.333-1.041-0.019-0.324 0.019-0.678 0.167-0.998 22.9-46.165 60.839-83.494 107.793-105.958h0.038c0.427-0.196 0.926-0.286 1.417-0.252 0.499 0.038 0.956 0.209 1.335 0.461l0.081 0.043 75.627 49.788c6.289 4.143 13.513 6.656 21.001 7.334 7.484 0.678 15.031-0.486 21.956-3.418l141.376-59.831c9.028-3.789 16.619-10.398 21.585-18.876 4.962-8.478 7.027-18.355 5.833-28.126v-0.166c-5.15-39.753-24.794-76.258-55.168-102.665-30.37-26.402-69.419-40.913-109.79-40.917-114.492 0-224.378 44.894-305.418 124.915-75.977 75.025-120.771 175.181-126.083 280.751l-0.542 21.208c0.003 40.088 14.822 78.772 41.583 108.792 26.757 30.006 63.619 49.318 103.667 54.375h0.166zM342.417 682.646c-29.834-3.81-57.194-18.243-77-40.458-19.831-22.251-30.747-50.827-30.75-80.375l0.458-19.042c4.769-94.886 45.075-184.972 113.5-252.544 72.998-72.077 172.070-112.623 275.418-112.623 30.144 0.004 59.23 10.85 81.792 30.46 22.532 19.588 36.979 46.588 40.789 75.874 0.043 0.435-0.009 0.917-0.247 1.331-0.26 0.444-0.717 0.841-1.293 1.084h-0.043l-141.457 59.874c-0.457 0.196-0.986 0.256-1.502 0.209-0.508-0.047-0.981-0.201-1.374-0.457l-75.627-49.749c-6.485-4.301-13.956-6.882-21.705-7.458-7.787-0.58-15.59 0.858-22.669 4.164l-0.166 0.043c-55.615 26.551-100.677 70.81-127.875 125.709l-0.041 0.166c-3.416 7.031-4.96 14.857-4.417 22.665 0.544 7.761 3.112 15.249 7.417 21.709l50.25 75.793c0.222 0.335 0.339 0.724 0.375 1.083 0.032 0.364-0.015 0.77-0.166 1.125l-60.708 139.833c-0.195 0.454-0.556 0.906-1.083 1.208-0.532 0.301-1.183 0.411-1.833 0.334l-0.042 0.041z" />
<glyph unicode="&#xe912;" glyph-name="form-photo-camera" d="M554.687 832c64.785-0.012 117.3-52.527 117.313-117.313v-10.938c27.514-0.225 50.963-0.767 71.187-2.687 28-2.66 52.051-7.884 74.125-19.125 38.138-19.43 69.197-50.491 88.627-88.625 11.968-23.508 17.139-49.265 19.622-79.688 2.458-30.062 2.438-67.43 2.438-114.687v-51.188c0-47.251 0.019-84.627-2.438-114.687-2.483-30.438-7.642-56.23-19.622-79.75-19.43-38.131-50.49-69.133-88.627-88.563-23.507-11.974-49.261-17.139-79.686-19.622-30.061-2.458-67.43-2.438-114.688-2.438h-221.875c-47.258 0-84.625-0.019-114.687 2.438-30.427 2.483-56.178 7.648-79.688 19.622-38.134 19.43-69.194 50.432-88.625 88.563-11.982 23.52-17.139 49.312-19.625 79.75-2.454 30.061-2.438 67.437-2.438 114.687v51.188c0 47.258-0.018 84.625 2.438 114.687 2.485 30.423 7.655 56.18 19.625 79.688 19.43 38.134 50.491 69.194 88.625 88.625 22.075 11.241 46.123 16.465 74.125 19.125 20.221 1.92 43.676 2.462 71.187 2.687v10.938c0.012 64.785 52.527 117.301 117.313 117.313h85.375zM384 640c-42.482-0.033-73.085-0.335-97.187-2.625-23.723-2.255-38.947-6.295-51.125-12.5-26.072-13.291-47.272-34.49-60.563-60.563-6.618-12.988-10.711-29.406-12.875-55.875-2.194-26.853-2.25-61.183-2.25-109.5v-51.188c0-48.319 0.056-82.649 2.25-109.497 2.163-26.483 6.255-42.886 12.875-55.878 13.293-26.086 34.477-47.328 60.563-60.627 12.988-6.618 29.404-10.707 55.875-12.87 26.853-2.195 61.183-2.189 109.5-2.189h221.875c48.32 0 82.65-0.006 109.498 2.189 26.47 2.163 42.886 6.253 55.878 12.87 26.086 13.299 47.27 34.541 60.563 60.627 6.618 12.992 10.707 29.395 12.87 55.878 2.195 26.848 2.253 61.178 2.253 109.497v51.188c0 48.317-0.058 82.647-2.253 109.5-2.163 26.468-6.253 42.887-12.87 55.875-13.293 26.072-34.49 47.272-60.563 60.563-12.179 6.205-27.405 10.244-51.123 12.5-24.102 2.29-54.707 2.592-97.19 2.625h-256zM512 533.313c88.365 0 160-71.635 160-160-0.013-88.359-71.642-160.001-160-160.001s-159.988 71.642-160 160.001c0 88.365 71.635 160 160 160zM512 469.313c-53.020 0-96-42.981-96-96 0.012-53.010 42.988-96.001 96-96.001s95.988 42.991 96 96.001c0 53.019-42.98 96-96 96zM469.313 768c-29.439-0.012-53.301-23.874-53.313-53.313v-10.687h192v10.687c-0.012 29.439-23.874 53.301-53.313 53.313h-85.375z" />
<glyph unicode="&#xe913;" glyph-name="form-tie" d="M564.292 896c72.794-0.013 124.186-71.353 101.167-140.417l-28.459-85.333c-4.894-14.672-12.83-27.669-22.874-38.542 1.877-2.415 3.332-5.231 4.041-8.416l76.459-344.085c7.006-31.535-0.653-64.563-20.834-89.788l-78.502-98.129c-42.701-53.367-123.878-53.367-166.579 0l-78.502 98.129c-20.18 25.225-27.841 58.253-20.833 89.788l76.458 344.085c0.706 3.177 2.129 6.005 4 8.416-10.038 10.871-17.984 23.873-22.875 38.542l-28.417 85.333c-23.021 69.065 28.37 140.405 101.166 140.417h104.585zM578.21 606.208c-13.111-5.686-27.456-8.874-42.377-8.875h-47.667c-14.938 0-29.295 3.18-42.415 8.875l-74.71-336.252c-4.205-18.918 0.392-38.737 12.5-53.871l78.5-98.129c25.621-32.017 74.295-32.017 99.917 0l78.498 98.129c12.109 15.134 16.708 34.953 12.501 53.871l-74.748 336.252zM459.708 853.333c-43.674-0.012-74.52-42.814-60.708-84.25l28.46-85.333c8.713-26.127 33.165-43.748 60.706-43.75h47.667c27.541 0.003 51.994 17.624 60.706 43.75l28.459 85.333c13.815 41.436-17.033 84.237-60.706 84.25h-104.585z" />
<glyph unicode="&#xe914;" glyph-name="form-user" d="M514.709 725.333c105.775-0.011 192-84.771 192-189.875-0.009-105.097-86.229-189.824-192-189.833-105.781 0-192.036 84.727-192.043 189.833 0 105.111 86.257 189.875 192.043 189.875zM514.709 682.667c-82.731 0-149.334-66.167-149.334-147.209 0.007-81.037 66.608-147.166 149.334-147.166 82.714 0.009 149.325 66.138 149.333 147.166 0 81.035-66.615 147.197-149.333 147.209zM514.709 388.292c56.115-0.004 111.283-14.613 159.915-42.334 48.627-27.721 89.041-67.635 117.167-115.708 5.935-10.167 2.539-23.262-7.625-29.21-10.159-5.935-23.215-2.483-29.167 7.667-24.32 41.57-59.332 76.126-101.5 100.169-42.176 24.034-90.061 36.702-138.79 36.706-48.738 0-96.612-12.668-138.793-36.706-42.176-24.038-77.175-58.594-101.5-100.169-5.95-10.155-19.045-13.559-29.208-7.625-10.147 5.952-13.558 19.008-7.625 29.167 28.131 48.081 68.569 87.987 117.208 115.708 48.637 27.716 103.798 42.334 159.918 42.334z" />
<glyph unicode="&#xe915;" glyph-name="headphone" d="M524.8 774.4c138.002 0 252.288-102.021 266.55-233.8 43.622-28.127 72.65-76.495 72.65-131.75 0-55.173-28.938-103.478-72.451-131.625 0.835-2.15 1.352-4.477 1.352-6.925v-34.624c0-49.334-40.927-88.476-90.327-88.476h-177.774c-10.604 0-19.2 8.596-19.2 19.2s8.596 19.2 19.2 19.2h177.774c29.148 0 51.927 22.894 51.927 50.076v23.698c-1.9-0.612-3.837-1.201-5.827-1.623-6.838-1.452-13.437-1.372-20.849 0.023-7.107 1.341-14.139 4.915-19.425 8.325-5.263 3.397-11.474 8.34-15.601 14.326-10.063 14.597-9.426 29.773-9.426 45.299v166.252c0 15.526-0.635 30.705 9.426 45.299 4.127 5.983 10.337 10.929 15.601 14.326 5.286 3.41 12.319 6.984 19.425 8.325 7.411 1.395 14.011 1.475 20.849 0.023 0.218-0.046 0.433-0.1 0.65-0.148-22.195 100.413-113.915 176.2-224.525 176.2s-202.358-75.784-224.55-176.2c0.225 0.051 0.451 0.102 0.676 0.148 6.838 1.452 13.437 1.372 20.849-0.023 7.107-1.341 14.139-4.915 19.425-8.325 5.263-3.397 11.474-8.343 15.601-14.326 10.061-14.595 9.426-29.773 9.426-45.299v-166.252c0-15.526 0.637-30.702-9.426-45.299-4.127-5.985-10.337-10.929-15.601-14.326-5.286-3.41-12.319-6.984-19.425-8.325-7.411-1.395-14.011-1.475-20.849-0.023-6.047 1.283-11.781 3.702-16.625 5.699-57.743 23.811-98.701 79.754-98.701 145.4 0.001 55.247 29.012 103.621 72.625 131.75 14.262 131.781 128.571 233.8 266.575 233.8zM308.9 522.399c-1.925-0.407-4.168-1.29-9.951-3.674-1.267-0.522-2.504-1.114-3.75-1.674-0.026-1.431-0.1-2.865-0.1-4.301h-8.474c-37.544-20.577-62.624-59.515-62.625-103.9 0-49.096 30.641-91.63 74.949-109.901 5.778-2.381 8.028-3.241 9.951-3.648 1.137-0.243 2.537-0.404 5.75 0.2 0.008 0.003 0.609 0.148 1.777 0.673 1.178 0.532 2.55 1.275 3.948 2.176 1.405 0.906 2.655 1.861 3.602 2.701 1.016 0.901 1.311 1.336 1.198 1.175 2.015 2.921 2.652 4.846 2.652 23.498v166.252c0 18.65-0.637 20.577-2.652 23.498 0.113-0.161-0.179 0.274-1.198 1.175-0.947 0.84-2.196 1.795-3.602 2.701-1.398 0.901-2.77 1.646-3.948 2.176-1.183 0.53-1.782 0.673-1.777 0.673-3.21 0.604-4.613 0.443-5.75 0.2zM734.95 522.199c0.005 0-0.594-0.143-1.777-0.673-1.178-0.53-2.55-1.275-3.948-2.176-1.405-0.906-2.655-1.861-3.602-2.701-1.019-0.901-1.311-1.336-1.198-1.175-2.015-2.921-2.652-4.849-2.652-23.498v-166.252c0-18.652 0.637-20.577 2.652-23.498-0.113 0.161 0.182-0.274 1.198-1.175 0.947-0.84 2.196-1.795 3.602-2.701 1.398-0.901 2.77-1.644 3.948-2.176 1.167-0.525 1.769-0.671 1.777-0.673 3.213-0.604 4.613-0.443 5.75-0.2 1.923 0.407 4.173 1.267 9.951 3.648 44.308 18.271 74.949 60.805 74.949 109.901 0 44.385-25.080 83.323-62.625 103.9h-8.474c0 1.436-0.097 2.87-0.125 4.301-1.239 0.558-2.465 1.155-3.725 1.674-5.783 2.383-8.026 3.267-9.951 3.674-1.137 0.243-2.54 0.404-5.75-0.2z" />
<glyph unicode="&#xe916;" glyph-name="kebab-menu" d="M750.933 832c20.907 0 31.364 0 39.347-4.185 7.027-3.682 12.736-9.556 16.316-16.782 4.070-8.214 4.070-18.967 4.070-40.473v-30.72c0-21.506 0-32.259-4.070-40.473-3.58-7.226-9.289-13.1-16.316-16.782-7.983-4.185-18.441-4.185-39.347-4.185h-477.867c-20.909 0-31.363 0-39.349 4.185-7.025 3.682-12.736 9.556-16.315 16.782-4.069 8.214-4.069 18.967-4.069 40.473v30.72c0 21.506 0 32.259 4.069 40.473 3.579 7.226 9.291 13.1 16.315 16.782 7.986 4.185 18.44 4.185 39.349 4.185h477.867zM750.933 524.8c20.907 0 31.364 0 39.347-4.186 7.027-3.682 12.736-9.557 16.316-16.781 4.070-8.213 4.070-18.97 4.070-40.474v-30.72c0-21.504 0-32.26-4.070-40.474-3.58-7.223-9.289-13.099-16.316-16.781-7.983-4.186-18.441-4.186-39.347-4.186h-477.867c-20.909 0-31.363 0-39.349 4.186-7.025 3.682-12.736 9.557-16.315 16.781-4.069 8.213-4.069 18.97-4.069 40.474v30.72c0 21.504 0 32.26 4.069 40.474 3.579 7.223 9.291 13.099 16.315 16.781 7.986 4.186 18.44 4.186 39.349 4.186h477.867zM750.933 217.6c20.907 0 31.364 0 39.347-4.186 7.027-3.682 12.736-9.557 16.316-16.781 4.070-8.213 4.070-18.97 4.070-40.474v-30.72c0-21.504 0-32.26-4.070-40.474-3.58-7.223-9.289-13.099-16.316-16.781-7.983-4.186-18.441-4.186-39.347-4.186h-477.867c-20.909 0-31.363 0-39.349 4.186-7.025 3.682-12.736 9.557-16.315 16.781-4.069 8.213-4.069 18.97-4.069 40.474v30.72c0 21.504 0 32.26 4.069 40.474 3.579 7.223 9.291 13.099 16.315 16.781 7.986 4.186 18.44 4.186 39.349 4.186h477.867z" />
<glyph unicode="&#xe917;" glyph-name="mastercard" d="M674.929 738.595c-60.231 0-116.279-18.902-162.929-51.26-46.656 32.358-102.702 51.26-162.929 51.26-161.956 0-293.719-136.568-293.719-304.432s131.763-304.432 293.719-304.432c60.228 0 116.279 18.902 162.929 51.261 46.656-32.358 102.699-51.261 162.929-51.261 161.955 0 293.719 136.568 293.719 304.432s-131.764 304.432-293.719 304.432zM674.929 185.203c-87.458 0-164.15 48.709-206.151 121.319h30.867c14.779 0 26.76 12.415 26.76 27.737 0 15.313-11.981 27.734-26.76 27.734h-54.612c-3.304 11.283-5.862 22.891-7.603 34.786h105.035c14.768 0 26.757 12.415 26.757 27.734 0 15.313-11.989 27.739-26.757 27.739h-107.105c0.822 11.837 2.46 23.45 4.835 34.774h59.45c14.779 0 26.76 12.424 26.76 27.737 0 15.321-11.981 27.737-26.76 27.737h-40.957c38.937 83.154 121.236 140.626 216.241 140.626 132.447 0 240.205-111.685 240.205-248.962s-107.758-248.959-240.205-248.959z" />
<glyph unicode="&#xe918;" glyph-name="max" d="M534.569 210.528c-50.248 0-73.598 7.366-114.186 36.837-25.675-33.154-106.973-59.061-110.518-14.735 0 33.273-7.335 61.392-15.648 92.088-9.903 37.816-21.15 79.933-21.15 140.957 0 145.746 119.074 255.392 260.157 255.392 141.203 0 251.843-115.050 251.843-256.744 0.471-139.5-111.602-253.051-250.498-253.795zM536.644 595.091c-68.704 3.56-122.252-44.203-134.11-119.101-9.783-62.007 7.578-137.52 22.371-141.449 7.089-1.72 24.941 12.769 36.065 23.941 18.394-12.762 39.817-20.429 62.106-22.224 71.192-3.437 132.021 50.995 136.8 122.419 2.785 71.571-52.029 132.195-123.232 136.291v0.123z" />
<glyph unicode="&#xe919;" glyph-name="minus" d="M691.2 473.6v-41.6h-332.8v41.6h332.8z" />
<glyph unicode="&#xe91a;" glyph-name="mir" d="M274.633 533.806l-30.821-106.908h-5.273l-30.82 106.908c-5.273 18.092-21.82 30.546-40.73 30.546h-73.914v-232.728h74.005v137.545h5.273l42.367-137.545h52.913l42.277 137.545h5.272v-137.545h74.008v232.728h-73.916c-18.819 0-35.367-12.454-40.64-30.546zM684.389 331.624h74.459v68.818h74.918c39.183 0 72.552 22.182 85.46 53.364h-234.836v-122.183zM552.473 539.806l-52.097-113h-5.272v137.545h-74.005v-232.728h62.821c16.547 0 31.548 9.637 38.458 24.546l52.094 112.908h5.275v-137.454h74.005v232.728h-62.824c-16.547 0-31.548-9.637-38.455-24.546zM841.127 564.351c21.366 0 40.73-8.181 55.365-21.637 16.367-14.909 26.641-36.363 26.641-60.272 0-4.91-0.545-9.728-1.364-14.455h-137.465c-46.548 0-86.005 30.546-99.278 72.729-0.183 0.454-0.274 0.999-0.457 1.544-0.363 1.273-0.637 2.637-0.999 3.908-1.362 5.912-2.272 11.912-2.637 18.183h160.195z" />
<glyph unicode="&#xe91b;" glyph-name="plane" d="M793.638 763.997l-648.328-182.862c-5.454-1.538-10.309-4.705-13.915-9.076s-5.793-9.74-6.266-15.386c-0.474-5.647 0.787-11.305 3.614-16.216s7.087-8.842 12.208-11.27l297.884-141.103c5.807-2.752 10.487-7.428 13.239-13.239l141.103-297.882c2.423-5.124 6.357-9.382 11.268-12.207 4.911-2.829 10.569-4.092 16.218-3.618 5.645 0.478 11.012 2.662 15.386 6.268 4.369 3.61 7.535 8.461 9.075 13.918l182.861 648.326c1.344 4.762 1.395 9.797 0.145 14.585s-3.755 9.156-7.253 12.655c-3.499 3.499-7.868 6.002-12.655 7.251s-9.822 1.2-14.583-0.143z" />
<glyph unicode="&#xe91c;" glyph-name="plate-headphone" d="M522.24 680.2c97.001-0.002 177.299-71.961 187.72-164.96 30.509-20.156 50.76-54.385 50.76-93.46-0.002-38.838-20.017-72.876-50.219-93.080 0.371-1.321 0.639-2.699 0.639-4.139v-24.302c0-35.613-29.362-63.977-64.94-63.98h-123.959c-8.479 0.002-15.356 6.881-15.36 15.36 0.002 8.481 6.879 15.358 15.36 15.36h123.959c19.188 0.002 34.22 15.184 34.22 33.26v14.080c-0.549-0.143-1.102-0.319-1.659-0.44-5.071-1.081-9.949-0.999-15.34 0.020-5.321 1.012-10.49 3.658-14.281 6.121-3.777 2.454-8.325 6.109-11.401 10.598-7.397 10.803-6.9 22.077-6.9 32.821v116.66c0 10.742-0.498 22.018 6.9 32.819 3.074 4.485 7.627 8.126 11.401 10.58 3.791 2.462 8.96 5.13 14.281 6.14 4.479 0.848 8.606 1.001 12.78 0.42-16.337 68.258-78.834 119.398-153.96 119.4-75.129-0.002-137.644-51.141-153.981-119.4 4.184 0.586 8.311 0.432 12.8-0.42 5.323-1.010 10.488-3.676 14.281-6.14 3.774-2.454 8.325-6.095 11.401-10.58 7.397-10.801 6.9-22.077 6.9-32.819v-116.66c0-10.744 0.496-22.018-6.9-32.821-3.076-4.489-7.625-8.145-11.401-10.598-3.791-2.464-8.958-5.112-14.281-6.121-5.392-1.022-10.267-1.102-15.34-0.020-4.434 0.948-8.612 2.74-11.94 4.121-40.978 17.007-70.017 56.938-70.019 103.76 0 39.068 20.24 73.304 50.739 93.46 10.418 93.002 90.737 164.958 187.74 164.96zM372.14 499.62c-1.122-0.24-2.519-0.766-6.601-2.46-0.483-0.201-0.961-0.43-1.44-0.641-0.006-0.604-0.039-1.212-0.039-1.819h-3.881c-27.253-13.617-45.699-41.263-45.699-72.921 0.002-33.694 20.888-62.855 51.059-75.379 4.084-1.696 5.478-2.222 6.601-2.462 0.487-0.102 1.19-0.221 3.199 0.162-0.276-0.053-0.029-0.037 0.762 0.319 0.719 0.326 1.599 0.795 2.499 1.38 0.903 0.586 1.683 1.204 2.261 1.72 0.631 0.561 0.725 0.75 0.539 0.479 0.555 0.809 0.889 1.518 1.141 3.32 0.344 2.472 0.381 5.757 0.381 12.141v116.66c0 6.384-0.035 9.669-0.381 12.138-0.252 1.798-0.584 2.511-1.141 3.32 0.193-0.279 0.098-0.088-0.539 0.481-0.578 0.514-1.358 1.114-2.261 1.7s-1.778 1.073-2.499 1.399c-0.786 0.356-1.038 0.373-0.762 0.322-2.011 0.381-2.712 0.244-3.199 0.139zM669.141 499.481c0.27 0.051 0.023 0.033-0.762-0.322-0.721-0.326-1.595-0.813-2.499-1.399-0.901-0.586-1.683-1.186-2.261-1.7-0.639-0.569-0.731-0.76-0.539-0.481-0.557-0.809-0.889-1.522-1.141-3.32-0.346-2.47-0.381-5.755-0.381-12.138v-116.66c0-6.384 0.037-9.669 0.381-12.141 0.252-1.802 0.586-2.511 1.141-3.32-0.186 0.27-0.092 0.082 0.539-0.479 0.58-0.516 1.356-1.133 2.261-1.72 0.901-0.588 1.778-1.055 2.499-1.38 0.786-0.356 1.034-0.373 0.762-0.319 2.017-0.383 2.732-0.264 3.219-0.162 1.118 0.242 2.509 0.772 6.58 2.462 30.173 12.524 51.057 41.685 51.059 75.379 0 31.66-18.442 59.306-45.699 72.921h-3.881c0 0.606-0.051 1.214-0.059 1.819-0.475 0.209-0.94 0.442-1.419 0.641-4.069 1.688-5.462 2.22-6.58 2.46-0.487 0.104-1.204 0.242-3.219-0.139z" />
<glyph unicode="&#xe91d;" glyph-name="plate-mail" d="M668.68 642.56c12.653 0 23.048 0.010 31.48-0.659 8.598-0.684 16.486-2.148 23.9-5.82 11.524-5.71 20.969-14.868 26.919-26.221 3.852-7.35 5.39-15.17 6.101-23.62 0.694-8.264 0.68-18.436 0.68-30.72v-215.040c0-12.284 0.014-22.456-0.68-30.72-0.711-8.45-2.249-16.269-6.101-23.62-5.949-11.352-15.395-20.511-26.919-26.221-7.414-3.672-15.303-5.136-23.9-5.82-8.432-0.67-18.827-0.659-31.48-0.659h-313.36c-12.653 0-23.048-0.010-31.48 0.659-8.598 0.684-16.486 2.148-23.9 5.82-11.524 5.71-20.969 14.868-26.919 26.221-3.852 7.35-5.39 15.17-6.101 23.62-0.694 8.264-0.68 18.436-0.68 30.72v215.040c0 12.284-0.014 22.456 0.68 30.72 0.711 8.45 2.249 16.269 6.101 23.62 5.949 11.352 15.395 20.511 26.919 26.221 7.414 3.672 15.303 5.136 23.9 5.82 8.432 0.67 18.827 0.659 31.48 0.659h313.36zM549.56 457.14c-22.12-16.728-53-16.728-75.121 0l-175.999 133.079c-0.36-1.733-0.674-3.865-0.901-6.56-0.561-6.679-0.58-15.333-0.58-28.14v-215.040c0-12.806 0.018-21.461 0.58-28.14 0.545-6.476 1.516-9.714 2.681-11.94 2.886-5.507 7.543-10.078 13.359-12.96 2.441-1.208 5.937-2.183 12.7-2.722 6.935-0.549 15.897-0.559 29.041-0.559h313.36c13.144 0 22.106 0.010 29.041 0.559 6.762 0.539 10.258 1.513 12.7 2.722 5.816 2.882 10.473 7.453 13.359 12.96 1.165 2.226 2.136 5.464 2.681 11.94 0.561 6.679 0.58 15.333 0.58 28.14v215.040c0 12.806-0.018 21.461-0.58 28.14-0.227 2.697-0.561 4.825-0.92 6.56l-175.981-133.079zM355.32 611.84c-13.144 0-22.106-0.010-29.041-0.559-1.548-0.125-2.927-0.274-4.159-0.44l170.861-129.2c11.158-8.434 26.882-8.434 38.040 0l170.84 129.2c-1.227 0.166-2.599 0.317-4.139 0.44-6.935 0.549-15.897 0.559-29.041 0.559h-313.36z" />
<glyph unicode="&#xe91e;" glyph-name="plate-max" d="M528.642 254.135c-40.675 0-59.577 5.964-92.436 29.82-20.782-26.839-86.596-47.811-89.466-11.93 0 26.939-5.937 49.701-12.668 74.55-8.016 30.613-17.12 64.707-17.12 114.108 0 117.984 96.395 206.746 210.603 206.746 114.308 0 203.871-93.135 203.871-207.84 0.385-112.93-90.341-204.851-202.784-205.453zM530.325 565.448c-55.618 2.882-98.967-35.784-108.566-96.417-7.916-50.196 6.137-111.323 18.11-114.505 5.742-1.392 20.19 10.338 29.196 19.383 14.892-10.333 32.234-16.538 50.276-17.991 57.629-2.784 106.874 41.282 110.743 99.099 2.253 57.941-42.121 107.015-99.76 110.331v0.1z" />
<glyph unicode="&#xe91f;" glyph-name="plate-phone" d="M361.581 661.49c17.631 8.917 38.468 8.917 56.099 0 9.419-4.764 17.666-13.306 29.241-24.879l4.559-4.561c7.621-7.619 13.189-13.060 16.959-18.86 13.39-20.593 13.386-47.145 0-67.74-3.77-5.8-9.339-11.26-16.959-18.881-2.976-2.976-3.281-3.355-3.5-3.66-1.227-1.72-1.767-4.891-1.18-6.92 0.115-0.395 0.213-0.678 1.741-3.86 15.538-32.365 36.737-62.716 63.599-89.58 26.864-26.862 57.215-48.060 89.582-63.599 3.181-1.528 3.465-1.626 3.858-1.741 2.030-0.592 5.198-0.047 6.92 1.18 0.307 0.219 0.678 0.518 3.66 3.5 7.623 7.621 13.081 13.189 18.881 16.959 20.595 13.386 47.147 13.388 67.74 0 5.8-3.77 11.241-9.339 18.86-16.959l4.561-4.559c11.573-11.573 20.115-19.825 24.879-29.241 8.917-17.631 8.915-38.468 0-56.099-4.764-9.419-13.306-17.668-24.879-29.241l-3.68-3.699c-11.915-11.915-19.694-19.857-30.339-25.842-11.657-6.547-28.793-11-42.16-10.959-12.093 0.037-20.677 2.57-33.602 6.24-73.406 20.836-142.684 60.144-200.44 117.899-57.754 57.756-97.065 127.033-117.899 200.44-3.668 12.921-6.203 21.51-6.24 33.599-0.037 13.367 4.413 30.507 10.961 42.16 5.982 10.646 13.924 18.426 25.84 30.341l3.699 3.68c11.573 11.573 19.823 20.115 29.241 24.879zM403.821 634.069c-8.915 4.51-19.466 4.51-28.381 0-3.928-1.989-8.106-5.906-21.379-19.18l-3.701-3.68c-12.853-12.853-17.302-17.49-20.779-23.679-3.949-7.033-7.041-18.936-7.021-27.001 0.020-7.219 1.237-11.85 5.061-25.319 19.442-68.497 56.123-133.143 110.080-187.099 53.957-53.959 118.602-90.638 187.099-110.080 13.476-3.826 18.1-5.040 25.319-5.061 8.065-0.025 19.966 3.070 27.001 7.021 6.191 3.478 10.824 7.924 23.681 20.779l3.678 3.701c13.275 13.273 17.193 17.451 19.182 21.379 4.506 8.915 4.508 19.466 0 28.381-1.991 3.926-5.913 8.11-19.182 21.379l-4.559 4.561c-8.718 8.718-11.461 11.344-13.881 12.919-10.412 6.769-23.847 6.769-34.259 0-2.421-1.573-5.171-4.192-13.9-12.919-2.345-2.345-4.665-4.745-7.481-6.76-9.386-6.722-22.335-8.931-33.419-5.7-3.287 0.958-5.937 2.279-8.561 3.539-35.447 17.021-68.651 40.233-97.999 69.581-29.346 29.348-52.562 62.552-69.581 97.999-1.257 2.621-2.58 5.276-3.539 8.561-3.228 11.082-1.020 24.035 5.7 33.419 2.015 2.814 4.415 5.136 6.76 7.481 8.729 8.729 11.346 11.479 12.919 13.9 6.769 10.414 6.771 23.847 0 34.259-1.575 2.419-4.205 5.167-12.919 13.881l-4.561 4.559c-13.273 13.273-17.451 17.191-21.379 19.18z" />
<glyph unicode="&#xe920;" glyph-name="plate-telegram" d="M252.83 452.010c47.882 26.376 101.331 48.388 151.271 70.513 85.918 36.239 172.175 71.852 259.303 105.005 16.953 5.648 47.411 11.174 50.399-13.949-1.636-35.559-8.364-70.912-12.978-106.263-11.713-77.742-25.25-155.218-38.451-232.704-4.549-25.811-36.88-39.172-57.569-22.655-49.719 33.583-99.82 66.841-148.904 101.202-16.079 16.337-1.169 39.799 13.191 51.466 40.95 40.356 84.378 74.643 123.187 117.084 10.469 25.281-20.464 3.975-30.665-2.554-56.062-38.631-110.75-79.622-169.855-113.574-30.192-16.62-65.378-2.417-95.556 6.857-27.058 11.203-66.705 22.491-43.375 39.571z" />
<glyph unicode="&#xe921;" glyph-name="plate-whatsapp" d="M512.944 226.593h-0.092c-37.548 0.012-74.441 9.388-107.207 27.175l-118.925-31.048 31.826 115.694c-19.632 33.86-29.962 72.266-29.946 111.616 0.051 123.099 100.688 223.25 224.34 223.25 60.015-0.027 116.341-23.278 158.695-65.479 42.357-42.199 65.669-98.292 65.645-157.948-0.049-123.070-100.647-223.212-224.336-223.261zM411.156 294.185l6.808-4.020c28.629-16.908 61.444-25.854 94.904-25.866h0.076c102.771 0 186.417 83.247 186.458 185.567 0.020 49.586-19.356 96.207-54.561 131.285-35.203 35.076-82.020 54.403-131.826 54.419-102.851 0-186.497-83.239-186.538-185.553-0.014-35.064 9.845-69.212 28.508-98.757l4.434-7.021-18.835-68.477 70.572 18.422zM618.287 401.787c3.91-1.882 6.55-3.152 7.676-5.024 1.401-2.327 1.401-13.496-3.267-26.528-4.674-13.033-27.068-24.926-37.839-26.526-9.656-1.438-21.879-2.038-35.305 2.21-8.141 2.57-18.582 6.003-31.955 11.751-52.55 22.583-88.064 73.271-94.775 82.852-0.471 0.67-0.799 1.139-0.983 1.384l-0.045 0.059c-2.966 3.938-22.843 30.333-22.843 57.647 0 25.698 12.683 39.166 18.522 45.365 0.399 0.424 0.768 0.815 1.096 1.174 5.14 5.585 11.213 6.984 14.948 6.984 3.738 0 7.479-0.035 10.746-0.199 0.401-0.020 0.821-0.018 1.253-0.014 3.267 0.018 7.34 0.041 11.358-9.562 1.544-3.697 3.807-9.175 6.191-14.954 4.823-11.686 10.154-24.601 11.090-26.468 1.403-2.791 2.337-6.050 0.467-9.773-0.279-0.557-0.539-1.085-0.786-1.589-1.405-2.851-2.435-4.948-4.819-7.717-0.936-1.087-1.903-2.261-2.871-3.434-1.929-2.337-3.856-4.674-5.536-6.339-2.808-2.781-5.728-5.8-2.458-11.385s14.52-23.853 31.183-38.646c17.914-15.901 33.483-22.622 41.374-26.028 1.54-0.666 2.789-1.204 3.705-1.661 5.603-2.793 8.872-2.324 12.145 1.397 3.269 3.723 14.012 16.29 17.748 21.875 3.736 5.581 7.473 4.651 12.612 2.791 5.14-1.864 32.698-15.358 38.304-18.151 1.094-0.543 2.118-1.036 3.066-1.491z" />
<glyph unicode="&#xe922;" glyph-name="plus" d="M504 601.6h41.6v-332.8h-41.6v332.8zM691.2 456v-41.6h-332.8v41.6h332.8z" />
<glyph unicode="&#xe923;" glyph-name="plus-min" d="M482.909 680.727h58.182v-465.455h-58.182v465.455zM744.727 477.091v-58.182h-465.455v58.182h465.455z" />
<glyph unicode="&#xe924;" glyph-name="sberbank" horiz-adv-x="2546" d="M2047.128 578.64v-243.59h50.738v99.508h108.201v-99.508h50.738v243.59h-50.738v-99.87h-108.201v99.87h-50.738zM2371.094 433.293h31.581l77.899-98.265h65.589l-103.839 125.994 90.732 117.619h-58.335l-75.613-104.406h-28.013v104.406h-50.777v-243.612h50.777v98.265zM1959.883 335.050h53.433l-99.090 243.59h-51.765l-101.476-243.59h51.416l20.397 49.050h107.871l19.212-49.050zM1847.98 424.739l39.316 97.803 36.953-97.803h-76.269zM1654.839 483.691h-61.767v54.391h132.746l0.116 40.559h-183.62v-243.59h105.973c59.442 0 93.544 27.889 93.544 76.518 0 46.501-30.903 72.123-86.993 72.123zM1646 375.609h-52.927v67.523h52.927c32.223 0 47.229-11.306 47.229-33.773 0-22.949-15.897-33.75-47.229-33.75zM1138.436 538.082l53.14 40.559h-177.841v-243.612h177.841v40.581h-127.084v62.362h108.395v40.559h-108.395v59.553h73.944zM879.494 483.691h-61.767v54.391h98.584l53.143 40.559h-202.484v-243.612h105.973c59.442 0 93.524 27.911 93.524 76.54 0 46.501-30.883 72.123-86.974 72.123zM870.655 375.609h-52.927v67.523h52.927c32.203 0 47.209-11.306 47.209-33.773 0-22.949-15.88-33.75-47.209-33.75zM1335.664 578.64h-96.821v-243.59h50.735v68.987h46.086c61.789 0 100.175 33.654 100.175 87.422 0 53.771-38.386 87.181-100.175 87.181zM1334.54 444.596h-44.962v93.486h44.962c32.53 0 50.406-16.605 50.406-46.741 0-30.139-17.892-46.744-50.406-46.744zM679.842 387.775c-13.448-7.544-28.52-11.455-43.816-11.364-45.753 0-78.964 33.831-78.964 80.434 0 46.6 33.211 80.334 78.964 80.334 16.539 0.249 32.718-5.001 46.163-14.978l36.41 27.786-2.405 2.189c-21.327 19.337-49.65 29.555-82.125 29.555-35.228 0-67.197-12.288-90.018-34.633-22.819-22.348-35.594-54.073-35.594-89.008 0-34.938 12.601-67.183 35.477-90.353 22.879-23.173 54.828-36.023 89.805-36.023 36.584 0 68.533 13.212 90.209 37.246l-32.862 25.080-11.245-6.266zM387.711 458.030c0.003 12.058-1.035 24.092-3.102 35.959l-41.74-31.844c0-1.364 0-2.751 0-4.016 0.044-34.55-11.084-68.121-31.617-95.354-20.53-27.236-49.278-46.562-81.655-54.895-32.377-8.336-66.516-5.197-96.97 8.909-30.454 14.109-55.467 38.375-71.047 68.926s-20.83 65.627-14.911 99.63c5.919 34.005 22.665 64.974 47.566 87.967s56.522 36.687 89.815 38.893c33.294 2.209 66.342-7.198 93.869-26.718l37.711 28.791c-34.218 28.597-76.806 44.3-120.774 44.53s-86.707-15.025-121.202-43.263c-34.495-28.235-58.697-67.778-68.636-112.134-9.939-44.359-5.023-90.898 13.94-131.98 18.963-41.085 50.848-74.27 90.421-94.117s84.486-25.171 127.366-15.103c42.882 10.068 81.182 34.935 108.622 70.515 27.438 35.583 42.383 79.764 42.383 125.302h-0.039zM347.249 580.788c9.219-12.33 17.023-25.725 23.264-39.914l-176.677-134.847-73.808 47.926v57.646l73.808-47.907 153.413 117.096z" />
<glyph unicode="&#xe925;" glyph-name="search" d="M832.123 180.492l-172.354 168.68c41.15 53.715 60.416 121.052 53.917 188.428-6.499 67.379-38.286 129.78-88.94 174.618s-116.414 68.775-184.007 66.982c-67.593-1.793-131.991-29.182-180.204-76.643s-76.651-111.459-79.578-179.088c-2.927-67.626 19.876-133.849 63.807-185.305 43.932-51.459 105.722-84.32 172.908-91.958 67.183-7.641 134.764 10.514 189.103 50.796l173.384-169.692c3.491-3.415 7.614-6.111 12.143-7.93 4.527-1.819 9.37-2.726 14.249-2.671s9.701 1.069 14.185 2.988c4.488 1.918 8.553 4.704 11.966 8.195 3.412 3.494 6.102 7.623 7.921 12.158 1.816 4.533 2.723 9.379 2.668 14.264-0.054 4.882-1.069 9.71-2.985 14.2-1.918 4.494-4.695 8.562-8.183 11.978zM232.392 511.139c0.059 42.857 12.807 84.736 36.634 120.341s57.663 63.341 97.232 79.701c39.569 16.36 83.095 20.61 125.076 12.213s80.535-29.064 110.785-59.39c30.25-30.326 50.842-68.949 59.172-110.987s4.027-85.603-12.369-125.193c-16.399-39.59-44.149-73.424-79.749-97.229-35.602-23.805-77.451-36.509-120.263-36.509-57.443 0.102-112.501 23.013-153.092 63.705s-63.402 95.84-63.425 153.347z" />
<glyph unicode="&#xe926;" glyph-name="slider-arrow" d="M561.149 538.501c5 4.992 13.105 4.997 18.102 0l81.449-81.452c4.987-4.997 4.989-13.105 0-18.099l-81.449-81.452c-4.997-4.995-13.102-4.987-18.102 0-4.997 5-4.997 13.102 0 18.102l59.599 59.599h-248.374c-7.068 0-12.797 5.732-12.8 12.8 0 7.068 5.732 12.8 12.8 12.8h248.374l-59.599 59.599c-4.997 5-4.997 13.102 0 18.102z" />
<glyph unicode="&#xe927;" glyph-name="star" d="M636.739 657.592l-87.998 153.182c-16.339 28.442-57.324 28.578-73.851 0.245l-92.858-159.184c-12.299-21.084-33.038-35.892-56.973-40.679l-126.879-25.376c-32.861-6.572-45.666-46.725-22.676-71.108l91.768-97.331c19.624-20.813 27.514-50.073 21.014-77.93l-41.538-178.017c-8.538-36.595 30.975-65.562 63.302-46.4l158.473 93.907c26.824 15.898 60.182 15.898 87.007 0l158.473-93.907c32.326-19.162 71.84 9.805 63.302 46.4l-41.901 179.576c-6.298 26.994 0.909 55.365 19.322 76.083l91.885 103.367c21.888 24.628 8.787 63.722-23.526 70.184l-129.088 25.818c-24.128 4.826-44.998 19.833-57.258 41.17z" />
<glyph unicode="&#xe928;" glyph-name="telegram" d="M221.066 440.047c52.379 26.129 110.848 47.936 165.479 69.854 93.984 35.898 188.346 71.176 283.659 104.019 18.543 5.596 51.861 11.069 55.13-13.818-1.788-35.227-9.148-70.246-14.195-105.266-12.813-77.013-27.622-153.766-42.065-230.524-4.975-25.57-40.341-38.805-62.976-22.443-54.387 33.267-109.193 66.214-162.884 100.254-17.591 16.183-1.28 39.424 14.426 50.982 44.796 39.979 92.305 73.946 134.758 115.989 11.452 25.042-22.383 3.934-33.545-2.53-61.325-38.272-121.152-78.878-185.807-112.512-33.027-16.465-71.52-2.394-104.531 6.793-29.599 11.098-72.969 22.281-47.448 39.202z" />
<glyph unicode="&#xe929;" glyph-name="thermometer" d="M480 309.333c55.966 0 101.333-45.367 101.333-101.333s-45.367-101.333-101.333-101.333c-55.965 0-101.333 45.367-101.333 101.333s45.368 101.333 101.333 101.333zM480 266.667c-32.401 0-58.667-26.266-58.667-58.667s26.266-58.667 58.667-58.667c32.401 0 58.667 26.266 58.667 58.667s-26.266 58.667-58.667 58.667zM480 501.333c11.78 0 21.333-9.553 21.333-21.333v-192c0-11.78-9.553-21.333-21.333-21.333s-21.333 9.553-21.333 21.333v192c0 11.78 9.553 21.333 21.333 21.333zM848 789.333c11.78 0 21.333-9.551 21.333-21.333v-128c0-11.782-9.553-21.333-21.333-21.333s-21.333 9.551-21.333 21.333v128c0 11.782 9.553 21.333 21.333 21.333zM705.958 686.125c3.639 11.2 15.676 17.337 26.876 13.708l121.749-39.541c11.204-3.641 17.348-15.712 13.709-26.917-3.652-11.188-15.723-17.305-26.918-13.667l-121.707 39.542c-11.191 3.642-17.331 15.679-13.709 26.875zM830.75 652.542c6.925 9.53 20.301 11.633 29.833 4.708 9.51-6.93 11.627-20.268 4.71-29.792l-75.251-103.541c-6.921-9.527-20.262-11.661-29.79-4.749-9.532 6.925-11.635 20.3-4.71 29.832l75.209 103.542zM835.46 657.25c9.527 6.923 22.865 4.818 29.79-4.708l75.251-103.542c6.916-9.531 4.817-22.907-4.71-29.832s-22.908-4.779-29.833 4.749l-75.209 103.541c-6.925 9.53-4.817 22.865 4.71 29.792zM963.123 699.833c11.209 3.641 23.279-2.503 26.918-13.708 3.631-11.199-2.513-23.234-13.709-26.875l-121.749-39.542c-11.196-3.63-23.228 2.479-26.876 13.667-3.639 11.203 2.509 23.273 13.709 26.917l121.707 39.541zM480 917.333c39.603-0.003 77.581-15.747 105.583-43.75 28.002-28.005 43.75-65.98 43.75-105.583v-385.958c33.442-28.698 57.98-66.479 70.541-108.877 13.564-45.777 12.497-94.643-3.042-139.789-15.539-45.15-44.796-84.314-83.665-112.043s-85.419-42.667-133.167-42.667c-47.748 0-94.295 14.942-133.167 42.667-38.872 27.729-68.124 66.893-83.667 112.043-15.54 45.146-16.608 94.012-3.042 139.789 12.564 42.398 37.097 80.179 70.542 108.877v385.958c0 39.606 15.744 77.578 43.75 105.583 28.005 28.002 65.98 43.75 105.583 43.75zM480 874.667c-28.288 0-55.413-11.249-75.417-31.25-20.004-20.004-31.25-47.127-31.25-75.417v-396.083c0-6.976-3.419-13.355-8.875-17.293-30.302-23.881-52.45-56.58-63.417-93.581-11.042-37.265-10.192-77.043 2.458-113.792 12.651-36.745 36.447-68.642 68.083-91.209 31.639-22.571 69.552-34.709 108.417-34.709 38.861 0 76.779 12.139 108.416 34.709 31.633 22.571 55.433 54.464 68.083 91.209s13.5 76.527 2.458 113.792c-10.965 37.009-33.143 69.7-63.458 93.581-5.444 3.942-8.832 10.33-8.832 17.293v396.083l-0.542 10.542c-2.423 24.416-13.21 47.372-30.707 64.875-20.002 20.001-47.13 31.247-75.418 31.25z" />
<glyph unicode="&#xe92a;" glyph-name="trash" d="M512 864c97.387 0 181.333-72.825 181.333-168.542v-2.125h117.333c17.673 0 32-14.327 32-32s-14.327-32-32-32h-10.667v-428.791c0-23.369 0.043-42.833-1.25-58.667-1.323-16.201-4.215-31.407-11.541-45.79-11.251-22.080-29.214-40.043-51.294-51.294-14.383-7.326-29.589-10.219-45.79-11.541-15.834-1.293-35.298-1.25-58.667-1.25h-238.916c-23.368 0-42.832-0.043-58.667 1.25-16.202 1.323-31.407 4.215-45.792 11.541-22.077 11.251-40.042 29.214-51.292 51.294-7.326 14.383-10.217 29.589-11.541 45.79-1.294 15.834-1.25 35.298-1.25 58.667v428.791h-10.667c-17.673 0-32 14.327-32 32s14.327 32 32 32h117.333v2.125c0 95.717 83.945 168.542 181.333 168.542zM288 200.542c0-24.422 0.010-40.836 1.041-53.457 1.001-12.245 2.824-18.095 4.792-21.961 5.112-10.031 13.26-18.18 23.292-23.292 3.863-1.967 9.713-3.789 21.958-4.791 12.624-1.033 29.035-1.041 53.458-1.041h238.916c24.422 0 40.836 0.009 53.457 1.041 12.245 1.003 18.095 2.825 21.961 4.791 10.031 5.111 18.18 13.261 23.292 23.292 1.967 3.866 3.789 9.715 4.791 21.961 1.033 12.621 1.041 29.035 1.041 53.457v428.791h-448v-428.791zM512 800c-67.563 0-117.333-49.448-117.333-104.542v-2.125h234.667v2.125c0 55.094-49.771 104.542-117.333 104.542z" />
<glyph unicode="&#xe92b;" glyph-name="visa" horiz-adv-x="996" d="M415.473 567.85l-40.279-248.021h64.418l40.312 248.021h-64.451zM321.185 567.57l-63.091-169.143-6.727 25.539c-12.443 30.773-47.767 74.965-89.238 102.818l57.692-206.834 68.162 0.122 101.448 247.551-68.245-0.053zM226.905 549.822c-3.745 15.105-14.597 19.608-28.067 20.148h-99.875l-0.828-4.937c77.723-19.785 129.151-67.454 150.491-124.776l-21.721 109.565zM610.484 520.3c21.075 0.346 36.352-4.486 48.214-9.493l5.817-2.867 8.712 53.754c-12.756 5.023-32.754 10.414-57.707 10.414-63.657 0-108.525-33.64-108.871-81.851-0.415-35.624 31.96-55.512 56.417-67.388 25.099-12.169 33.515-19.904 33.399-30.77-0.196-16.605-20.015-24.219-38.522-24.219-25.794 0-39.499 3.739-60.654 12.988l-8.303 3.963-9.064-55.512c15.078-6.938 42.897-12.9 71.777-13.212 67.714 0 111.721 33.238 112.183 84.754 0.282 28.182-16.899 49.686-54.128 67.335-22.534 11.508-36.319 19.157-36.186 30.77 0 10.312 11.696 21.332 36.914 21.332zM838.543 567.573h-49.772c-15.457 0-26.959-4.417-33.75-20.582l-95.65-227.3h67.648c0 0 11.037 30.565 13.539 37.26 7.406 0 73.133-0.108 82.493-0.108 1.923-8.657 7.854-37.152 7.854-37.152h59.763l-52.124 247.883zM759.097 407.713c5.3 14.239 25.664 69.316 25.664 69.316-0.349-0.678 5.253 14.344 8.582 23.679l4.342-21.385c0 0 12.343-59.215 14.928-71.611h-53.516z" />
<glyph unicode="&#xe92c;" glyph-name="vote" d="M796.36 640.087c-25.713 19.114-62.7 16.353-82.637-6.116l-262.844-296.604-137.193 163.174c-20.465 24.32-58.604 28.87-85.176 10.16-26.596-18.721-31.565-53.639-11.1-77.994l184.145-219.018c20.465-24.32 58.615-28.877 85.199-10.158 7.58 5.34 13.185 12.078 17.159 19.446l302.947 341.826c19.927 22.501 15.217 56.193-10.501 75.286z" />
<glyph unicode="&#xe92d;" glyph-name="whatsapp" d="M534.494 196.766h-0.111c-46.225 0.017-91.639 11.558-131.98 33.455l-146.403-38.221 39.18 142.426c-24.169 41.681-36.885 88.964-36.865 137.408 0.062 151.541 123.953 274.833 276.175 274.833 73.882-0.032 143.223-28.656 195.366-80.608 52.143-51.95 80.841-121.004 80.811-194.443-0.060-151.509-123.904-274.786-276.173-274.85zM409.188 279.979l8.381-4.949c35.244-20.817 75.645-31.829 116.835-31.842h0.090c126.519 0 229.491 102.481 229.542 228.442 0.026 61.043-23.829 118.439-67.166 161.62-43.341 43.181-100.975 66.974-162.287 66.995-126.615 0-229.588-102.473-229.638-228.428-0.017-43.166 12.118-85.205 35.095-121.574l5.459-8.644-23.189-84.301 86.878 22.682zM664.179 412.442c4.813-2.317 8.064-3.878 9.451-6.182 1.724-2.867 1.724-16.619-4.023-32.661-5.751-16.043-33.323-30.682-46.579-32.653-11.887-1.771-26.935-2.509-43.465 2.722-10.022 3.162-22.874 7.39-39.339 14.464-64.691 27.802-108.412 90.202-116.675 101.995-0.579 0.828-0.983 1.404-1.21 1.707l-0.054 0.073c-3.652 4.851-28.122 37.342-28.122 70.967 0 31.636 15.613 48.216 22.8 55.849 0.494 0.522 0.946 1.003 1.351 1.444 6.326 6.876 13.801 8.595 18.4 8.595s9.207-0.042 13.227-0.244c0.499-0.025 1.015-0.021 1.545-0.017 4.023 0.023 9.037 0.052 13.982-11.771 1.903-4.549 4.689-11.296 7.625-18.41 5.935-14.386 12.497-30.283 13.653-32.582 1.724-3.439 2.876-7.45 0.572-12.032-0.341-0.687-0.661-1.335-0.969-1.954-1.728-3.511-2.995-6.093-5.931-9.502-1.152-1.34-2.342-2.782-3.537-4.228-2.372-2.876-4.745-5.756-6.814-7.804-3.456-3.426-7.049-7.138-3.025-14.016 4.023-6.874 17.877-29.363 38.387-47.573 22.054-19.575 41.22-27.853 50.935-32.043 1.899-0.819 3.435-1.485 4.561-2.048 6.899-3.435 10.923-2.859 14.95 1.724 4.023 4.582 17.25 20.053 21.85 26.927 4.599 6.869 9.199 5.726 15.522 3.439 6.332-2.295 40.256-18.91 47.155-22.345 1.348-0.674 2.607-1.28 3.776-1.839z" />
<glyph unicode="&#xe92e;" glyph-name="youkassa" horiz-adv-x="1661" d="M832.526 537.284h-53.325l-37.741-67.661h-19.426l-0.617 146.432h-50.483v-264.463h50.483l0.617 72.585h19.304l50.107-72.585h55.93l-65.328 96.192 50.48 89.5zM1214.589 450.175c-10.259 6.772-21.374 12.083-33.039 15.781l-14.148 5.447c-6.919 2.646-14.187 5.424-14.436 12.606-0.061 2.131 0.401 4.243 1.353 6.141 0.949 1.899 2.358 3.52 4.096 4.713 3.65 2.571 7.937 4.057 12.368 4.292 9.667 0.681 19.251-2.233 26.973-8.206l1.367-0.883 26.973 31.686-1.364 1.135c-3.36 3.055-7.005 5.759-10.888 8.079-6.955 4.060-14.527 6.919-22.395 8.458-11.339 2.46-23.062 2.46-34.398 0-10.962-1.481-21.36-5.828-30.194-12.623-5.643-4.506-10.362-10.104-13.885-16.473-3.523-6.365-5.784-13.381-6.65-20.641-1.55-13.099 1.713-26.322 9.155-37.113 9.889-11.167 22.81-19.077 37.116-22.722l2.233-0.758 5.070-1.766c18.313-6.313 23.51-8.837 26.48-12.623 1.378-1.907 2.159-4.196 2.225-6.565 0-8.964-10.766-12.623-18.061-14.895-5.109-0.98-10.351-0.88-15.415 0.293-5.067 1.173-9.847 3.393-14.034 6.523-6.783 4.627-12.587 10.591-17.073 17.546-0.75-0.797-3.233-3.327-6.473-6.631-9.103-9.28-24.208-24.681-23.843-25.055l0.866-1.262c13.473-17.212 32.35-29.159 53.447-33.831 4.824-0.952 9.706-1.583 14.607-1.893h5.070c16.666-0.357 32.998 4.827 46.523 14.768 9.15 6.603 16.165 15.83 20.17 26.511 2.433 7.171 3.293 14.795 2.524 22.343-0.767 7.547-3.149 14.829-6.98 21.335-3.913 6.487-9.141 12.039-15.341 16.282zM1344.822 465.953c11.624-3.697 22.7-9.008 32.912-15.778 6.089-4.245 11.228-9.75 15.092-16.16 3.83-6.504 6.213-13.785 6.98-21.332 0.769-7.547-0.091-15.175-2.524-22.343-3.996-10.68-11.020-19.907-20.17-26.511-13.525-9.941-29.857-15.125-46.523-14.768h-5.070c-4.901 0.302-9.778 0.933-14.602 1.893-21.103 4.672-39.975 16.619-53.453 33.831l-0.988 1.262c-0.244 0.332 11.687 12.543 20.707 21.77 4.738 4.846 8.668 8.87 9.609 9.916 4.553-6.9 10.342-12.853 17.073-17.549 4.212-3.133 9.008-5.352 14.092-6.526 5.084-1.171 10.351-1.27 15.479-0.291 7.301 2.272 17.939 5.934 17.939 14.898 0.066 2.369-0.678 4.691-2.103 6.565-2.97 3.786-8.162 6.31-26.602 12.623l-5.073 1.766-2.101 0.758c-14.314 3.642-27.236 11.555-37.124 22.722-7.503 10.76-10.771 24.009-9.155 37.113 0.908 7.257 3.21 14.261 6.778 20.61 3.565 6.346 8.328 11.912 14.007 16.376 8.853 6.756 19.246 11.101 30.194 12.623 11.38 2.466 23.14 2.466 34.52 0 7.832-1.542 15.36-4.4 22.273-8.458 3.944-2.286 7.633-4.993 11.015-8.079l1.237-1.135-26.973-31.686-1.237 0.886c-7.735 5.948-17.314 8.862-26.975 8.203-4.436-0.235-8.721-1.721-12.374-4.292-1.694-1.24-3.078-2.867-4.046-4.752-0.971-1.887-1.489-3.977-1.525-6.102 0.371-7.196 7.553-9.974 14.604-12.623l2.842-1.137 11.264-4.292zM998.347 537.296v-18.177h-2.225c-13.818 14.115-32.541 22.099-52.094 22.215-11.986 0.244-23.89-2.095-34.929-6.858-11.045-4.763-20.981-11.845-29.162-20.787-16.5-18.85-25.354-43.404-24.75-68.672-0.639-25.689 8.195-50.691 24.75-70.058 7.984-8.948 17.762-16.035 28.675-20.784 10.91-4.749 22.694-7.046 34.55-6.736 19.578 0.376 38.408 7.746 53.204 20.829h1.982v-16.284h52.465v185.314h-52.465zM1000.943 444.009c0.531-14.937-4.359-29.541-13.733-41.026-4.495-5.134-10.035-9.194-16.235-11.901-6.199-2.704-12.905-3.985-19.647-3.753-6.534-0.113-13.013 1.281-18.95 4.079-5.934 2.798-11.175 6.927-15.327 12.078-9.258 11.723-14.007 26.491-13.362 41.53-0.421 14.591 4.425 28.83 13.614 40.016 4.229 5.076 9.509 9.133 15.451 11.881 5.95 2.748 12.418 4.124 18.947 4.024 6.692 0.213 13.348-1.090 19.492-3.819 6.138-2.729 11.607-6.814 16.016-11.959 9.368-11.535 14.256-26.181 13.733-41.151zM1568.995 519.118v18.177h52.459v-185.311h-52.459v16.284h-1.982c-14.801-13.082-33.629-20.452-53.204-20.829-11.862-0.31-23.643 1.987-34.55 6.736-10.91 4.746-20.696 11.837-28.68 20.782-16.556 19.37-25.381 44.37-24.742 70.061-0.603 25.268 8.242 49.819 24.742 68.672 8.217 8.931 18.177 16.008 29.237 20.768 11.062 4.763 22.979 7.104 34.982 6.877 19.514-0.149 38.179-8.131 51.967-22.218h2.231zM1557.858 402.983c9.424 11.455 14.319 26.084 13.733 41.026 0.581 14.981-4.315 29.646-13.733 41.154-4.406 5.145-9.88 9.23-16.019 11.959s-12.803 4.032-19.495 3.819c-6.529 0.1-12.996-1.276-18.938-4.024-5.95-2.751-11.231-6.808-15.46-11.881-9.186-11.187-14.026-25.426-13.605-40.016-0.653-15.042 4.102-29.807 13.362-41.53 4.151-5.153 9.388-9.28 15.324-12.078 5.931-2.798 12.41-4.193 18.947-4.082 6.742-0.23 13.445 1.052 19.644 3.756 6.208 2.707 11.748 6.767 16.24 11.898zM161.186 459.851c0.291 109.607 88.331 198.96 198.963 198.96 109.557 0 200.225-89.65 198.966-199.503 0-109.856-89.409-199.506-198.966-199.506-109.376 0-198.67 88.1-198.963 198.958v-148.45h-70.519l-90.667 290.417h161.186v-140.877zM285.854 459.308c0-40.406 34-74.5 74.295-74.5 41.558 0 74.298 34.094 74.298 74.5 0 40.404-34 74.497-74.298 74.497-40.296 0-74.295-34.094-74.295-74.497z" />
</font>
</defs>
</svg>
