<svg width="40" height="40" viewBox="0 0 40 40" fill="none" xmlns="http://www.w3.org/2000/svg">
<path d="M27.3877 11.3332H25.8104C25.6849 9.87404 25.0712 8.51895 24.0892 7.53273C23.1072 6.5465 21.8274 6 20.5 6C19.1726 6 17.8928 6.5465 16.9108 7.53273C15.9288 8.51895 15.3151 9.87404 15.1896 11.3332H13.6123C12.6546 11.3345 11.7365 11.7552 11.0593 12.5029C10.3821 13.2507 10.0012 14.2645 10 15.3219V29.0113C10.0012 30.0688 10.3821 31.0825 11.0593 31.8303C11.7365 32.578 12.6546 32.9987 13.6123 33H27.3877C28.3454 32.9987 29.2635 32.578 29.9407 31.8303C30.6179 31.0825 30.9988 30.0688 31 29.0113V15.3221C30.9989 14.2646 30.6179 13.2508 29.9407 12.503C29.2635 11.7552 28.3454 11.3345 27.3877 11.3332ZM20.5 7.84032C21.3856 7.84339 22.2406 8.19775 22.9093 8.8388C23.578 9.47985 24.0159 10.3649 24.143 11.3326H16.857C16.9841 10.3649 17.4219 9.47985 18.0907 8.8388C18.7594 8.19775 19.6144 7.84339 20.5 7.84032ZM29.3326 29.0113C29.3321 29.5807 29.127 30.1267 28.7624 30.5294C28.3977 30.932 27.9033 31.1585 27.3876 31.159H13.6123C13.0966 31.1585 12.6022 30.932 12.2375 30.5294C11.8728 30.1267 11.6677 29.5807 11.6672 29.0113V15.3221C11.6677 14.7526 11.8728 14.2067 12.2375 13.804C12.6022 13.4014 13.0966 13.1749 13.6123 13.1743H27.3877C27.9034 13.1749 28.3978 13.4014 28.7625 13.804C29.1272 14.2067 29.3323 14.7526 29.3328 15.3221L29.3326 29.0113Z" fill="white"/>
</svg>
