<svg width="40" height="40" viewBox="0 0 40 40" fill="none" xmlns="http://www.w3.org/2000/svg">
<path d="M9.1377 7.06934C9.47972 7.09932 9.80585 7.23268 10.0713 7.4541C10.3747 7.70732 10.5797 8.05942 10.6504 8.44824L13.8076 25.8125H26.5625C26.9767 25.8125 27.3125 26.1483 27.3125 26.5625C27.3125 26.9767 26.9767 27.3125 26.5625 27.3125H13.1816C12.8193 27.3124 12.5092 27.0528 12.4443 26.6963L9.1748 8.7168C9.16696 8.67365 9.14399 8.63457 9.11035 8.60645C9.09357 8.59244 9.07492 8.58061 9.05469 8.57324L8.99023 8.5625H6.875C6.46079 8.5625 6.125 8.22671 6.125 7.8125C6.125 7.39829 6.46079 7.0625 6.875 7.0625H8.99023L9.1377 7.06934Z" fill="#041D2C"/>
<path d="M14.375 25.8125C16.0836 25.8125 17.4688 27.1976 17.4688 28.9062C17.4688 30.6149 16.0836 32 14.375 32C12.6664 32 11.2812 30.6149 11.2812 28.9062C11.2812 27.1976 12.6664 25.8125 14.375 25.8125ZM14.375 27.3125C13.4948 27.3125 12.7812 28.026 12.7812 28.9062C12.7812 29.7865 13.4948 30.5 14.375 30.5C15.2552 30.5 15.9688 29.7865 15.9688 28.9062C15.9688 28.026 15.2552 27.3125 14.375 27.3125Z" fill="#041D2C"/>
<path d="M26.5625 25.8125C28.2711 25.8125 29.6562 27.1976 29.6562 28.9062C29.6562 30.6149 28.2711 32 26.5625 32C24.8539 32 23.4688 30.6149 23.4688 28.9062C23.4688 27.1976 24.8539 25.8125 26.5625 25.8125ZM26.5625 27.3125C25.6823 27.3125 24.9688 28.026 24.9688 28.9062C24.9688 29.7865 25.6823 30.5 26.5625 30.5C27.4427 30.5 28.1562 29.7865 28.1562 28.9062C28.1562 28.026 27.4427 27.3125 26.5625 27.3125Z" fill="#041D2C"/>
<path d="M30.3125 11.75C30.5349 11.75 30.7462 11.8488 30.8887 12.0195C31.0309 12.1901 31.0904 12.4152 31.0508 12.6338L29.626 20.4697C29.516 21.0745 29.1965 21.6218 28.7246 22.0156C28.3117 22.3601 27.8045 22.5686 27.2725 22.6152L27.043 22.625H12.3291C11.9151 22.6248 11.5791 22.2891 11.5791 21.875C11.5791 21.4609 11.9151 21.1252 12.3291 21.125H27.043C27.3064 21.125 27.5614 21.0321 27.7637 20.8633C27.9659 20.6945 28.1033 20.4604 28.1504 20.2012L29.4141 13.25H10.625C10.2108 13.25 9.875 12.9142 9.875 12.5C9.875 12.0858 10.2108 11.75 10.625 11.75H30.3125Z" fill="#041D2C"/>
</svg>
