<svg width="24" height="24" viewBox="0 0 24 24" fill="none" xmlns="http://www.w3.org/2000/svg">
<path d="M4.29053 4.41357C6.72762 2.33792 9.85593 2.69626 11.9927 4.51025C14.1268 2.69522 17.2229 2.36432 19.686 4.40479C22.4058 6.65821 22.7329 10.5049 20.6382 13.1919C19.8473 14.2064 18.3084 15.7249 16.8364 17.1099C15.3454 18.5127 13.8581 19.8382 13.1245 20.4858C13.0546 20.5475 12.9585 20.6327 12.8667 20.7017C12.7631 20.7795 12.6108 20.8792 12.4067 20.9399C12.1378 21.0198 11.8485 21.0199 11.5796 20.9399C11.3756 20.8792 11.2232 20.7794 11.1196 20.7017C11.028 20.6328 10.9326 20.5474 10.8628 20.4858C10.1291 19.8382 8.64094 18.5128 7.1499 17.1099C5.67791 15.7249 4.13896 14.2063 3.34814 13.1919C1.24484 10.4935 1.63339 6.67673 4.29053 4.41357Z" fill="#718595"/>
</svg>
