<svg width="24" height="24" viewBox="0 0 24 24" fill="none" xmlns="http://www.w3.org/2000/svg">
<path d="M7.9082 5.5083C8.13566 5.48119 8.36622 5.52736 8.56543 5.64111C8.76473 5.75496 8.9226 5.93048 9.01367 6.14209H9.0127L10.4346 9.41748C10.5044 9.57846 10.5331 9.75427 10.5176 9.9292C10.502 10.104 10.4434 10.2724 10.3467 10.4185L9.16895 12.1958L9.16699 12.1978C9.16205 12.2053 9.15974 12.2142 9.15918 12.2222C9.15873 12.2298 9.15962 12.2381 9.16309 12.2456C9.69981 13.3276 10.589 14.2025 11.6895 14.729H11.6904C11.7004 14.7336 11.7121 14.7357 11.7236 14.7349C11.7353 14.734 11.746 14.73 11.7549 14.7241L11.7568 14.7231L13.5293 13.5562C13.6767 13.4591 13.846 13.4002 14.0215 13.3843C14.1969 13.3684 14.3738 13.3957 14.5361 13.4644L17.8496 14.8667C18.0612 14.9555 18.2391 15.1104 18.3555 15.3091C18.4718 15.5078 18.5202 15.7393 18.4922 15.9683V15.9722C18.3715 16.9039 17.9111 17.7595 17.1992 18.3784C16.4874 18.9972 15.5722 19.3373 14.626 19.3374C11.9426 19.3374 9.36715 18.2852 7.46777 16.4097C5.68707 14.6513 4.6372 12.3039 4.5127 9.82959L4.5 9.33252C4.50007 8.39296 4.84738 7.48631 5.47461 6.78271C6.10172 6.07944 6.96567 5.62682 7.9043 5.5083H7.9082ZM8.02539 6.50049C7.32615 6.58978 6.68491 6.92806 6.2207 7.44873C5.75592 7.97023 5.50007 8.63999 5.5 9.33252L5.51074 9.77881C5.62252 12.0027 6.56718 14.1141 8.1709 15.6978C9.88179 17.3871 12.2038 18.3374 14.626 18.3374C15.3325 18.3373 16.0142 18.0831 16.543 17.6235C17.0711 17.1644 17.4097 16.5316 17.499 15.8452C17.5 15.835 17.4988 15.8237 17.4932 15.814C17.4871 15.8036 17.4764 15.7943 17.4629 15.7886H17.4619L14.1465 14.3853C14.1358 14.3807 14.1234 14.3793 14.1113 14.3804C14.0994 14.3815 14.0883 14.3851 14.0791 14.3911L12.3076 15.5581L12.3066 15.5571C12.1546 15.6579 11.9795 15.7184 11.7979 15.7319C11.6154 15.7455 11.4325 15.7118 11.2666 15.6343L11.2627 15.6333C9.95922 15.011 8.90308 13.9737 8.26562 12.687L8.26465 12.6831C8.18459 12.5183 8.1484 12.3349 8.16113 12.1519C8.17389 11.97 8.23407 11.7945 8.33496 11.6431L9.5127 9.8667C9.5179 9.85885 9.52065 9.84974 9.52148 9.84131C9.52224 9.83278 9.52114 9.82327 9.51758 9.81494L8.0957 6.53857L8.09473 6.5376C8.09015 6.52696 8.08169 6.51637 8.06934 6.50928C8.05687 6.50223 8.04161 6.49964 8.02637 6.50146L8.02539 6.50049Z" fill="#35AFDA"/>
</svg>
