<svg width="24" height="24" viewBox="0 0 24 24" fill="none" xmlns="http://www.w3.org/2000/svg">
<path d="M17.4404 5.5C17.8805 5.5 18.2391 5.49925 18.5293 5.52148C18.8244 5.5441 19.0915 5.5924 19.3418 5.71191C19.734 5.89925 20.0589 6.20158 20.2646 6.58008C20.398 6.82542 20.4518 7.08748 20.4766 7.37109C20.5007 7.64796 20.5 7.98915 20.5 8.40039V15.5996C20.5 16.0109 20.5007 16.352 20.4766 16.6289C20.4518 16.9125 20.398 17.1746 20.2646 17.4199C20.0589 17.7984 19.734 18.1008 19.3418 18.2881C19.0915 18.4076 18.8244 18.4559 18.5293 18.4785C18.2391 18.5007 17.8805 18.5 17.4404 18.5H6.55957C6.11947 18.5 5.76094 18.5007 5.4707 18.4785C5.17559 18.4559 4.90851 18.4076 4.6582 18.2881C4.26603 18.1008 3.94113 17.7984 3.73535 17.4199C3.60201 17.1746 3.54817 16.9125 3.52344 16.6289C3.49931 16.352 3.5 16.0109 3.5 15.5996V8.40039C3.5 7.98915 3.49931 7.64796 3.52344 7.37109C3.54817 7.08748 3.60201 6.82542 3.73535 6.58008C3.94113 6.20158 4.26603 5.89925 4.6582 5.71191C4.90851 5.5924 5.17559 5.5441 5.4707 5.52148C5.76094 5.49925 6.11947 5.5 6.55957 5.5H17.4404ZM13.2773 11.6875C12.524 12.2368 11.476 12.2368 10.7227 11.6875L4.56152 7.19434C4.54432 7.25946 4.52951 7.3436 4.51953 7.45801C4.50006 7.6814 4.5 7.97156 4.5 8.40039V15.5996C4.5 16.0284 4.50006 16.3186 4.51953 16.542C4.5384 16.7584 4.5723 16.867 4.61328 16.9424C4.71429 17.1282 4.87904 17.2855 5.08887 17.3857C5.18064 17.4296 5.30882 17.4632 5.54688 17.4814C5.79007 17.5001 6.10402 17.5 6.55957 17.5H17.4404C17.896 17.5 18.2099 17.5001 18.4531 17.4814C18.6912 17.4632 18.8194 17.4296 18.9111 17.3857C19.121 17.2855 19.2857 17.1282 19.3867 16.9424C19.4277 16.867 19.4616 16.7584 19.4805 16.542C19.4999 16.3186 19.5 16.0284 19.5 15.5996V8.40039C19.5 7.97156 19.4999 7.6814 19.4805 7.45801C19.4705 7.34346 19.4547 7.2595 19.4375 7.19434L13.2773 11.6875ZM6.55957 6.5C6.10402 6.5 5.79007 6.49993 5.54688 6.51855C5.47547 6.52403 5.41394 6.53097 5.36035 6.53906L11.3125 10.8799C11.7147 11.173 12.2853 11.173 12.6875 10.8799L18.6387 6.53906C18.5853 6.53103 18.5241 6.524 18.4531 6.51855C18.2099 6.49993 17.896 6.5 17.4404 6.5H6.55957Z" fill="#35AFDA"/>
</svg>
