<svg width="40" height="40" viewBox="0 0 40 40" fill="none" xmlns="http://www.w3.org/2000/svg">
<path d="M20.5 7.25C25.8907 7.25 30.355 11.2352 30.9121 16.3828C32.6161 17.4815 33.75 19.3709 33.75 21.5293C33.75 23.6845 32.6196 25.5714 30.9199 26.6709C30.9525 26.7549 30.9727 26.8458 30.9727 26.9414V28.2939C30.9727 30.221 29.374 31.75 27.4443 31.75H20.5C20.0858 31.75 19.75 31.4142 19.75 31C19.75 30.5858 20.0858 30.25 20.5 30.25H27.4443C28.5829 30.25 29.4727 29.3557 29.4727 28.2939V27.3682C29.3985 27.3921 29.3228 27.4151 29.2451 27.4316C28.978 27.4883 28.7202 27.4852 28.4307 27.4307C28.1531 27.3783 27.8784 27.2387 27.6719 27.1055C27.4663 26.9728 27.2237 26.7797 27.0625 26.5459C26.6694 25.9757 26.6943 25.3829 26.6943 24.7764V18.2822C26.6943 17.6757 26.6695 17.0828 27.0625 16.5127C27.2237 16.279 27.4663 16.0858 27.6719 15.9531C27.8784 15.8199 28.1531 15.6803 28.4307 15.6279C28.7202 15.5734 28.978 15.5703 29.2451 15.627C29.2536 15.6288 29.262 15.6309 29.2705 15.6328C28.4035 11.7104 24.8207 8.75 20.5 8.75C16.1793 8.75 12.5954 11.7103 11.7285 15.6328C11.7373 15.6308 11.7461 15.6288 11.7549 15.627C12.022 15.5703 12.2798 15.5734 12.5693 15.6279C12.8469 15.6803 13.1216 15.8199 13.3281 15.9531C13.5337 16.0858 13.7763 16.279 13.9375 16.5127C14.3305 17.0828 14.3057 17.6757 14.3057 18.2822V24.7764C14.3057 25.3829 14.3306 25.9757 13.9375 26.5459C13.7763 26.7797 13.5337 26.9728 13.3281 27.1055C13.1216 27.2387 12.8469 27.3783 12.5693 27.4307C12.2798 27.4852 12.022 27.4883 11.7549 27.4316C11.5187 27.3815 11.2947 27.287 11.1055 27.209C8.84993 26.2789 7.25 24.0936 7.25 21.5293C7.25004 19.3712 8.38329 17.4816 10.0869 16.3828C10.644 11.2351 15.1092 7.25 20.5 7.25ZM12.0664 17.0938C11.9912 17.1097 11.9036 17.1442 11.6777 17.2373C11.6282 17.2577 11.5799 17.2808 11.5312 17.3027C11.5302 17.3586 11.5273 17.4146 11.5273 17.4707H11.1963C9.72972 18.2745 8.75004 19.7955 8.75 21.5293C8.75 23.4471 9.9469 25.1086 11.6777 25.8223C11.9034 25.9153 11.9913 25.9489 12.0664 25.9648C12.1108 25.9743 12.1655 25.9806 12.291 25.957C12.2913 25.9569 12.3148 25.9512 12.3604 25.9307C12.4064 25.9099 12.46 25.8809 12.5146 25.8457C12.5695 25.8103 12.6183 25.773 12.6553 25.7402C12.695 25.705 12.7065 25.688 12.7021 25.6943C12.7808 25.5802 12.8057 25.505 12.8057 24.7764V18.2822C12.8057 17.5537 12.7808 17.4784 12.7021 17.3643C12.7065 17.3706 12.6951 17.3536 12.6553 17.3184C12.6183 17.2856 12.5695 17.2483 12.5146 17.2129C12.46 17.1777 12.4064 17.1486 12.3604 17.1279C12.3142 17.1072 12.2908 17.1016 12.291 17.1016C12.1656 17.078 12.1108 17.0843 12.0664 17.0938ZM28.709 17.1016C28.7092 17.1016 28.6858 17.1072 28.6396 17.1279C28.5936 17.1486 28.54 17.1777 28.4854 17.2129C28.4305 17.2483 28.3817 17.2856 28.3447 17.3184C28.3049 17.3536 28.2935 17.3706 28.2979 17.3643C28.2192 17.4784 28.1943 17.5537 28.1943 18.2822V24.7764C28.1943 25.505 28.2192 25.5802 28.2979 25.6943C28.2935 25.688 28.305 25.705 28.3447 25.7402C28.3817 25.773 28.4305 25.8103 28.4854 25.8457C28.54 25.8809 28.5936 25.9099 28.6396 25.9307C28.6852 25.9512 28.7087 25.9569 28.709 25.957C28.8345 25.9806 28.8892 25.9743 28.9336 25.9648C29.0087 25.9489 29.0966 25.9153 29.3223 25.8223C31.0531 25.1086 32.25 23.4471 32.25 21.5293C32.25 19.7955 31.2703 18.2745 29.8037 17.4707H29.4727C29.4727 17.4146 29.4689 17.3586 29.4678 17.3027C29.4194 17.2809 29.3715 17.2576 29.3223 17.2373C29.0964 17.1442 29.0088 17.1097 28.9336 17.0938C28.8892 17.0843 28.8344 17.078 28.709 17.1016Z" fill="#041D2C"/>
</svg>
