<svg width="50" height="50" viewBox="0 0 50 50" fill="none" xmlns="http://www.w3.org/2000/svg">
<path d="M17.6553 14.5757C18.5162 14.1403 19.5336 14.1403 20.3945 14.5757C20.8544 14.8083 21.2571 15.2254 21.8223 15.7905L22.0449 16.0132C22.417 16.3852 22.6889 16.6509 22.873 16.9341C23.5268 17.9396 23.5266 19.2361 22.873 20.2417C22.6889 20.5249 22.417 20.7915 22.0449 21.1636C21.8996 21.3089 21.8847 21.3274 21.874 21.3423C21.8141 21.4263 21.7877 21.5811 21.8164 21.6802C21.822 21.6995 21.8268 21.7133 21.9014 21.8687C22.6601 23.449 23.6952 24.931 25.0068 26.2427C26.3185 27.5543 27.8005 28.5894 29.3809 29.3481C29.5362 29.4227 29.5501 29.4275 29.5693 29.4331C29.6684 29.462 29.8231 29.4354 29.9072 29.3755C29.9222 29.3648 29.9403 29.3502 30.0859 29.2046C30.4581 28.8325 30.7246 28.5606 31.0078 28.3765C32.0134 27.7229 33.3099 27.7228 34.3154 28.3765C34.5986 28.5606 34.8643 28.8325 35.2363 29.2046L35.459 29.4272C36.0241 29.9923 36.4412 30.3952 36.6738 30.855C37.1092 31.7159 37.1091 32.7333 36.6738 33.5942C36.4412 34.0541 36.0241 34.4569 35.459 35.022L35.2793 35.2026C34.6975 35.7844 34.3177 36.1722 33.7979 36.4644C33.2287 36.7841 32.392 37.0015 31.7393 36.9995C31.1488 36.9977 30.7297 36.874 30.0986 36.6948C26.5143 35.6774 23.1316 33.7581 20.3115 30.938C17.4915 28.1179 15.572 24.7352 14.5547 21.1509C14.3756 20.52 14.2518 20.1006 14.25 19.5103C14.2482 18.8576 14.4655 18.0207 14.7852 17.4517C15.0773 16.9319 15.4651 16.552 16.0469 15.9702L16.2275 15.7905C16.7926 15.2254 17.1954 14.8083 17.6553 14.5757ZM19.7178 15.9146C19.2825 15.6944 18.7673 15.6944 18.332 15.9146C18.1402 16.0117 17.9362 16.203 17.2881 16.8511L17.1074 17.0308C16.4798 17.6584 16.2626 17.8848 16.0928 18.187C15.9 18.5304 15.749 19.1116 15.75 19.5054C15.751 19.8579 15.8104 20.084 15.9971 20.7417C16.9464 24.0863 18.7375 27.2428 21.3721 29.8774C24.0067 32.5121 27.1632 34.3031 30.5078 35.2524C31.1658 35.4392 31.3916 35.4985 31.7441 35.4995C32.1379 35.5007 32.719 35.3496 33.0625 35.1567C33.3648 34.9869 33.591 34.7698 34.2188 34.1421L34.3984 33.9614C35.0466 33.3133 35.2379 33.1093 35.335 32.9175C35.555 32.4822 35.5551 31.967 35.335 31.5317C35.2378 31.34 35.0463 31.1357 34.3984 30.4878L34.1758 30.2651C33.7501 29.8394 33.6162 29.7112 33.498 29.6343C32.9896 29.3038 32.3336 29.3038 31.8252 29.6343C31.707 29.7111 31.5727 29.839 31.1465 30.2651C31.032 30.3796 30.9187 30.4968 30.7812 30.5952C30.3229 30.9234 29.6906 31.0313 29.1494 30.8735C28.9889 30.8267 28.8595 30.7622 28.7314 30.7007C27.0006 29.8696 25.3793 28.7362 23.9463 27.3032C22.5134 25.8702 21.3798 24.2489 20.5488 22.5181C20.4874 22.3901 20.4228 22.2605 20.376 22.1001C20.2184 21.559 20.3262 20.9265 20.6543 20.4683C20.7527 20.3309 20.8699 20.2175 20.9844 20.103C21.4106 19.6768 21.5384 19.5425 21.6152 19.4243C21.9457 18.9158 21.9458 18.2599 21.6152 17.7515C21.5383 17.6334 21.4099 17.4992 20.9844 17.0737L20.7617 16.8511C20.1136 16.203 19.9096 16.0117 19.7178 15.9146Z" fill="white"/>
</svg>
