<svg width="50" height="50" viewBox="0 0 50 50" fill="none" xmlns="http://www.w3.org/2000/svg">
<path d="M25.5 13.6621C30.2364 13.6622 34.1572 17.1758 34.666 21.7168C36.1557 22.701 37.1445 24.3723 37.1445 26.2803C37.1444 28.1767 36.1671 29.8387 34.6924 30.8252C34.7105 30.8897 34.7236 30.957 34.7236 31.0273V32.2139C34.7236 33.9528 33.2899 35.3378 31.5527 35.3379H25.5C25.086 35.3378 24.7502 35.0019 24.75 34.5879C24.7501 34.1738 25.0859 33.838 25.5 33.8379H31.5527C32.4896 33.8378 33.2236 33.0965 33.2236 32.2139V31.5264C33.1968 31.5334 33.1698 31.542 33.1426 31.5479C32.895 31.6007 32.6568 31.5967 32.3936 31.5469C32.1338 31.4975 31.8814 31.3683 31.6963 31.248C31.5119 31.1282 31.2898 30.9497 31.1396 30.7305C30.7784 30.203 30.8027 29.6525 30.8027 29.1279V23.4316C30.8027 22.9071 30.7784 22.3565 31.1396 21.8291C31.2897 21.6101 31.512 21.4323 31.6963 21.3125C31.8814 21.1923 32.1338 21.062 32.3936 21.0127C32.6123 20.9713 32.8138 20.9638 33.0176 20.9922C32.2199 17.6593 29.1683 15.1622 25.5 15.1621C21.8316 15.1622 18.7791 17.6592 17.9814 20.9922C18.1857 20.9636 18.3872 20.9711 18.6064 21.0127C18.8663 21.062 19.1185 21.1922 19.3037 21.3125C19.488 21.4323 19.7102 21.6101 19.8604 21.8291C20.2216 22.3565 20.1973 22.9071 20.1973 23.4316V29.1279C20.1973 29.6525 20.2215 30.203 19.8604 30.7305C19.7102 30.9497 19.4881 31.1282 19.3037 31.248C19.1186 31.3683 18.8663 31.4976 18.6064 31.5469C18.3431 31.5968 18.1051 31.6007 17.8574 31.5479C17.6409 31.5016 17.4369 31.4141 17.2744 31.3467C15.2735 30.5163 13.8556 28.5665 13.8555 26.2803C13.8555 24.3727 14.8438 22.701 16.333 21.7168C16.8417 17.1757 20.7635 13.6622 25.5 13.6621ZM18.1709 22.4795C18.1161 22.4912 18.0479 22.5169 17.8486 22.5996C17.825 22.6094 17.8017 22.6206 17.7783 22.6309C17.778 22.6604 17.7764 22.6901 17.7764 22.7197H17.5869C16.2562 23.3846 15.3555 24.7345 15.3555 26.2803C15.3556 27.9255 16.3754 29.3494 17.8486 29.9609C18.048 30.0437 18.1161 30.0694 18.1709 30.0811C18.1947 30.0861 18.229 30.0919 18.3271 30.0732C18.3136 30.0758 18.3257 30.075 18.3643 30.0576C18.3994 30.0417 18.4424 30.0188 18.4863 29.9902C18.5304 29.9616 18.5685 29.9314 18.5967 29.9062C18.6275 29.8788 18.6321 29.8696 18.623 29.8828C18.6501 29.8433 18.6664 29.8087 18.6787 29.7207C18.6955 29.6 18.6973 29.4396 18.6973 29.1279V23.4316C18.6973 23.1199 18.6956 22.9595 18.6787 22.8389C18.6664 22.7511 18.6502 22.7163 18.623 22.6768C18.6324 22.6904 18.6278 22.6811 18.5967 22.6533C18.5685 22.6282 18.5304 22.5989 18.4863 22.5703C18.4422 22.5417 18.3995 22.5179 18.3643 22.502C18.3259 22.4846 18.3136 22.4838 18.3271 22.4863C18.2289 22.4677 18.1947 22.4744 18.1709 22.4795ZM32.6729 22.4863C32.6861 22.4838 32.674 22.4847 32.6357 22.502C32.6005 22.5179 32.5578 22.5417 32.5137 22.5703C32.4697 22.5989 32.4315 22.6282 32.4033 22.6533C32.3721 22.6811 32.3676 22.6904 32.377 22.6768C32.3498 22.7163 32.3336 22.7511 32.3213 22.8389C32.3044 22.9595 32.3027 23.1199 32.3027 23.4316V29.1279C32.3027 29.4396 32.3045 29.6 32.3213 29.7207C32.3336 29.8087 32.3499 29.8433 32.377 29.8828C32.3679 29.8696 32.3725 29.8788 32.4033 29.9062C32.4316 29.9314 32.4695 29.9615 32.5137 29.9902C32.5577 30.0189 32.6005 30.0417 32.6357 30.0576C32.6741 30.075 32.6862 30.0758 32.6729 30.0732C32.7714 30.0919 32.8063 30.0861 32.8301 30.0811C32.8847 30.0693 32.9526 30.0434 33.1514 29.9609C34.6247 29.3494 35.6444 27.9255 35.6445 26.2803C35.6445 24.7344 34.744 23.3845 33.4131 22.7197H33.2236C33.2236 22.6901 33.2211 22.6604 33.2207 22.6309C33.1975 22.6207 33.1748 22.6093 33.1514 22.5996C32.9527 22.5172 32.8847 22.4912 32.8301 22.4795C32.8063 22.4744 32.7713 22.4677 32.6729 22.4863Z" fill="white"/>
</svg>
