<svg width="92" height="37" viewBox="0 0 92 37" fill="none" xmlns="http://www.w3.org/2000/svg">
<path d="M73.9685 13.7796V22.5812H75.8018V18.9857H79.7114V22.5812H81.5447V13.7796H79.7114V17.3882H75.8018V13.7796H73.9685Z" fill="#718595"/>
<path d="M85.6743 19.0314H86.8154L89.6301 22.582H92L88.248 18.0295L91.5264 13.7796H89.4186L86.6865 17.5521H85.6743V13.7796H83.8396V22.582H85.6743V19.0314Z" fill="#718595"/>
<path d="M70.8161 22.5812H72.7468L69.1664 13.7796H67.296L63.6294 22.5812H65.4872L66.2242 20.8089H70.1219L70.8161 22.5812ZM66.7727 19.3405L68.1933 15.8066L69.5285 19.3405H66.7727Z" fill="#718595"/>
<path d="M59.794 17.2104H57.5622V15.2451H62.3587L62.3629 13.7796H55.7282V22.5812H59.5573C61.7051 22.5812 62.9373 21.5735 62.9373 19.8164C62.9373 18.1362 61.8207 17.2104 59.794 17.2104ZM59.4746 21.1157H57.5622V18.6759H59.4746C60.6389 18.6759 61.1811 19.0844 61.1811 19.8962C61.1811 20.7254 60.6067 21.1157 59.4746 21.1157Z" fill="#718595"/>
<path d="M41.1349 15.2451L43.055 13.7796H36.6291V22.582H43.055V21.1157H38.4631V18.8624H42.3797V17.3969H38.4631V15.2451H41.1349Z" fill="#718595"/>
<path d="M31.7786 17.2104H29.5468V15.2451H33.1089L35.0291 13.7796H27.7128V22.582H31.5419C33.6897 22.582 34.9212 21.5735 34.9212 19.8164C34.9212 18.1362 33.8053 17.2104 31.7786 17.2104ZM31.4592 21.1157H29.5468V18.6759H31.4592C32.6228 18.6759 33.165 19.0844 33.165 19.8962C33.165 20.7254 32.5912 21.1157 31.4592 21.1157Z" fill="#718595"/>
<path d="M48.2613 13.7796H44.7629V22.5812H46.5961V20.0885H48.2613C50.4939 20.0885 51.8809 18.8725 51.8809 16.9297C51.8809 14.9868 50.4939 13.7796 48.2613 13.7796ZM48.2207 18.623H46.5961V15.2451H48.2207C49.3961 15.2451 50.042 15.8451 50.042 16.934C50.042 18.023 49.3955 18.623 48.2207 18.623Z" fill="#718595"/>
<path d="M24.5646 20.6761C24.0787 20.9487 23.5341 21.09 22.9814 21.0867C21.3282 21.0867 20.1282 19.8643 20.1282 18.1804C20.1282 16.4966 21.3282 15.2777 22.9814 15.2777C23.579 15.2687 24.1636 15.4584 24.6494 15.8189L25.965 14.8149L25.8781 14.7358C25.1075 14.0371 24.0841 13.6679 22.9107 13.6679C21.6378 13.6679 20.4827 14.1119 19.6581 14.9193C18.8336 15.7268 18.372 16.8731 18.372 18.1354C18.372 19.3978 18.8273 20.5629 19.6539 21.4001C20.4806 22.2374 21.635 22.7017 22.8988 22.7017C24.2207 22.7017 25.3751 22.2243 26.1583 21.3559L24.9709 20.4497L24.5646 20.6761Z" fill="#718595"/>
<path d="M14.0091 18.1376C14.0092 17.7019 13.9717 17.2671 13.897 16.8383L12.3888 17.9889C12.3888 18.0382 12.3888 18.0883 12.3888 18.134C12.3904 19.3824 11.9883 20.5954 11.2464 21.5794C10.5046 22.5635 9.46585 23.2618 8.29599 23.5629C7.12613 23.8641 5.89258 23.7507 4.7922 23.241C3.69181 22.7312 2.78802 21.8544 2.22506 20.7505C1.6621 19.6466 1.47241 18.3792 1.68628 17.1506C1.90014 15.9219 2.50523 14.8029 3.40497 13.9721C4.30472 13.1413 5.44726 12.6465 6.65025 12.5668C7.85325 12.487 9.04737 12.8269 10.042 13.5322L11.4046 12.4919C10.1682 11.4586 8.6294 10.8912 7.04069 10.8829C5.45198 10.8746 3.90773 11.4258 2.66133 12.4461C1.41493 13.4663 0.540426 14.8951 0.181313 16.4978C-0.177799 18.1006 -0.000187729 19.7822 0.685004 21.2666C1.3702 22.7511 2.52227 23.9502 3.95217 24.6673C5.38207 25.3844 7.00487 25.5768 8.55427 25.213C10.1037 24.8492 11.4876 23.9507 12.4791 22.6651C13.4705 21.3794 14.0105 19.783 14.0105 18.1376H14.0091Z" fill="#718595"/>
<path d="M12.5471 13.702C12.8802 14.1475 13.1622 14.6315 13.3877 15.1442L7.00386 20.0166L4.33696 18.2849V16.202L7.00386 17.933L12.5471 13.702Z" fill="#718595"/>
</svg>
