<svg width="16" height="16" viewBox="0 0 16 16" fill="none" xmlns="http://www.w3.org/2000/svg">
<path d="M9.94904 4.72512L8.57407 2.33165C8.31878 1.88725 7.67839 1.88512 7.42015 2.32782L5.96925 4.81507C5.77708 5.14451 5.45303 5.37589 5.07904 5.45068L3.09656 5.84718C2.5831 5.94987 2.38303 6.57726 2.74225 6.95824L4.17613 8.47903C4.48275 8.80423 4.60603 9.26142 4.50447 9.69669L3.85544 12.4782C3.72203 13.05 4.33943 13.5026 4.84454 13.2032L7.32068 11.7359C7.73981 11.4875 8.26103 11.4875 8.68016 11.7359L11.1563 13.2032C11.6614 13.5026 12.2788 13.05 12.1454 12.4782L11.4907 9.67233C11.3923 9.25055 11.5049 8.80725 11.7926 8.48354L13.2283 6.86843C13.5703 6.48361 13.3656 5.87278 12.8607 5.7718L10.8437 5.3684C10.4667 5.29299 10.1406 5.05851 9.94904 4.72512Z" fill="#EDA74C"/>
</svg>
