<svg width="36" height="37" viewBox="0 0 36 37" fill="none" xmlns="http://www.w3.org/2000/svg">
<path d="M15.0122 14.1695L13.5568 23.1312H15.8844L17.341 14.1695H15.0122Z" fill="#718595"/>
<path d="M11.6053 14.1796L9.32563 20.2912L9.08257 19.3684C8.63298 18.2565 7.35662 16.6597 5.85816 15.6533L7.94272 23.1268L10.4056 23.1224L14.0712 14.1777L11.6053 14.1796Z" fill="#718595"/>
<path d="M8.19873 14.8209C8.06343 14.2751 7.6713 14.1124 7.18459 14.0929H3.57583L3.5459 14.2713C6.35424 14.9862 8.2125 16.7086 8.98358 18.7798L8.19873 14.8209Z" fill="#718595"/>
<path d="M22.0585 15.8876C22.82 15.8751 23.372 16.0497 23.8006 16.2306L24.0108 16.3342L24.3256 14.3919C23.8647 14.2104 23.1421 14.0156 22.2405 14.0156C19.9404 14.0156 18.3192 15.2311 18.3067 16.9731C18.2917 18.2603 19.4615 18.9789 20.3452 19.408C21.2521 19.8477 21.5562 20.1272 21.552 20.5198C21.5449 21.1198 20.8288 21.3949 20.1601 21.3949C19.2281 21.3949 18.7329 21.2598 17.9685 20.9256L17.6685 20.7824L17.341 22.7882C17.8858 23.0389 18.891 23.2543 19.9345 23.2656C22.3812 23.2656 23.9713 22.0646 23.988 20.2032C23.9982 19.1849 23.3774 18.4079 22.0322 17.7702C21.218 17.3544 20.7199 17.078 20.7247 16.6584C20.7247 16.2858 21.1473 15.8876 22.0585 15.8876Z" fill="#718595"/>
<path d="M30.2989 14.1795H28.5005C27.942 14.1795 27.5264 14.3391 27.281 14.9232L23.8249 23.1362H26.2692C26.2692 23.1362 26.668 22.0318 26.7584 21.7899C27.026 21.7899 29.4009 21.7938 29.7391 21.7938C29.8086 22.1066 30.0229 23.1362 30.0229 23.1362H32.1823L30.2989 14.1795ZM27.4283 19.9557C27.6198 19.4412 28.3556 17.4511 28.3556 17.4511C28.343 17.4756 28.5454 16.9328 28.6657 16.5955L28.8226 17.3682C28.8226 17.3682 29.2686 19.5078 29.362 19.9557H27.4283Z" fill="#718595"/>
</svg>
