<svg width="209" height="51" viewBox="0 0 209 51" fill="none" xmlns="http://www.w3.org/2000/svg">
<g clip-path="url(#clip0_3824_705)">
<path d="M67.4316 50.2904C67.0405 50.7491 66.5104 51 65.9021 51C65.1374 51 64.5378 50.6712 63.6861 49.7971C61.9394 49.7019 60.6707 48.4124 60.6707 46.7076C60.6707 45.0027 62.0437 43.6094 63.9121 43.6094C65.7805 43.6094 67.1361 44.9248 67.1361 46.7076C67.1361 48.2134 66.1628 49.3817 64.7463 49.7106C65.1548 50.1433 65.5198 50.3164 65.9108 50.3164C66.3453 50.3164 66.7103 50.1433 67.0232 49.7971L67.4316 50.2904ZM63.9121 49.0355C65.259 49.0355 66.2671 48.0403 66.2671 46.7076C66.2671 45.3748 65.259 44.3796 63.9121 44.3796C62.5651 44.3796 61.5397 45.3748 61.5397 46.7076C61.5397 48.0403 62.5477 49.0355 63.9121 49.0355Z" fill="#718595"/>
<path d="M69.2827 47.124V43.6797H70.1517V47.0894C70.1517 48.4308 70.7687 49.0366 71.8637 49.0366C72.9586 49.0366 73.5843 48.4308 73.5843 47.0894V43.6797H74.4273V47.124C74.4273 48.8808 73.4627 49.8068 71.855 49.8068C70.2473 49.8068 69.2827 48.8808 69.2827 47.124Z" fill="#718595"/>
<path d="M80.8221 48.2231H77.5894L76.9202 49.7376H76.0251L78.7799 43.6797H79.6402L82.4037 49.7376H81.4912L80.8221 48.2231ZM80.5189 47.5308L79.2067 44.5624L77.8945 47.5308H80.5189Z" fill="#718595"/>
<path d="M84.1775 43.6797H85.0465V48.9847H88.3401V49.7376H84.1775V43.6797Z" fill="#718595"/>
<path d="M90.2085 43.6797H91.0775V49.7376H90.2085V43.6797Z" fill="#718595"/>
<path d="M94.9794 44.4326H92.8938V43.6797H97.9254V44.4326H95.8398V49.7376H94.9794V44.4326Z" fill="#718595"/>
<path d="M102 47.6423V49.7366H101.14V47.625L98.7239 43.6787H99.6537L101.6 46.8721L103.556 43.6787H104.416L102 47.6423Z" fill="#718595"/>
<path d="M113.584 46.6739H114.418V49.0365C113.81 49.5471 112.967 49.8067 112.115 49.8067C110.247 49.8067 108.874 48.5 108.874 46.7085C108.874 44.9171 110.247 43.6104 112.133 43.6104C113.097 43.6104 113.914 43.9306 114.47 44.545L113.932 45.0816C113.428 44.5969 112.854 44.3806 112.168 44.3806C110.76 44.3806 109.743 45.3585 109.743 46.7085C109.743 48.0586 110.76 49.0365 112.159 49.0365C112.672 49.0365 113.15 48.924 113.584 48.6471V46.6739Z" fill="#718595"/>
<path d="M116.895 47.124V43.6797H117.764V47.0894C117.764 48.4308 118.381 49.0366 119.476 49.0366C120.571 49.0366 121.197 48.4308 121.197 47.0894V43.6797H122.04V47.124C122.04 48.8808 121.075 49.8068 119.467 49.8068C117.86 49.8068 116.895 48.8808 116.895 47.124Z" fill="#718595"/>
<path d="M128.435 48.2231H125.203L124.534 49.7376H123.638L126.393 43.6797H127.254L130.017 49.7376H129.105L128.435 48.2231ZM128.131 47.5308L126.819 44.5624L125.507 47.5308H128.131Z" fill="#718595"/>
<path d="M135.857 49.7366L134.545 47.876C134.423 47.8846 134.293 47.8933 134.162 47.8933H132.659V49.7366H131.79V43.6787H134.162C135.744 43.6787 136.7 44.4749 136.7 45.7903C136.7 46.725 136.213 47.4 135.361 47.7029L136.804 49.7366H135.857ZM135.831 45.7913C135.831 44.9259 135.248 44.4326 134.136 44.4326H132.659V47.1587H134.136C135.248 47.1587 135.831 46.6567 135.831 45.7913Z" fill="#718595"/>
<path d="M142.852 48.2231H139.62L138.951 49.7376H138.055L140.81 43.6797H141.671L144.434 49.7376H143.522L142.852 48.2231ZM142.548 47.5308L141.236 44.5624L139.924 47.5308H142.548Z" fill="#718595"/>
<path d="M151.438 43.6797V49.7376H150.726L147.076 45.2201V49.7376H146.207V43.6797H146.919L150.569 48.1972V43.6797H151.438Z" fill="#718595"/>
<path d="M155.34 44.4326H153.254V43.6797H158.286V44.4326H156.2V49.7376H155.34V44.4326Z" fill="#718595"/>
<path d="M164.517 48.9837V49.7366H160.102V43.6787H164.395V44.4316H160.971V46.2923H164.022V47.0279H160.971V48.9837H164.517Z" fill="#718595"/>
<path d="M171.208 48.9837V49.7366H166.794V43.6787H171.087V44.4316H167.663V46.2923H170.713V47.0279H167.663V48.9837H171.208Z" fill="#718595"/>
<path d="M173.485 43.6797H176.049C178.004 43.6797 179.334 44.9086 179.334 46.7086C179.334 48.5087 178.004 49.7376 176.049 49.7376H173.485V43.6797ZM175.997 48.9837C177.5 48.9837 178.465 48.0664 178.465 46.7077C178.465 45.349 177.5 44.4316 175.997 44.4316H174.354V48.9837H175.997Z" fill="#718595"/>
<path d="M61.0163 36.5026V9.91504H66.775L75.1658 25.8291L83.5567 9.91504H89.3163V36.5026H84.3957V17.9288L76.8054 32.438H73.563L65.935 17.9288V36.5026H61.0154H61.0163Z" fill="#718595"/>
<path d="M95.4186 34.2997C93.3842 32.3756 92.3674 29.9323 92.3674 26.9696C92.3674 24.007 93.3842 21.5637 95.4186 19.6386C97.4521 17.7145 99.9443 16.752 102.894 16.752C105.844 16.752 108.335 17.7145 110.37 19.6386C112.404 21.5637 113.421 24.0061 113.421 26.9696C113.421 29.9332 112.403 32.3766 110.37 34.2997C108.335 36.2248 105.843 37.1864 102.894 37.1864C99.9452 37.1864 97.4521 36.2248 95.4186 34.2997ZM98.9468 22.981C97.8654 24.0195 97.3256 25.3494 97.3256 26.9696C97.3256 28.5899 97.8654 29.9198 98.9468 30.9573C100.027 31.9958 101.343 32.515 102.894 32.515C104.445 32.515 105.761 31.9968 106.841 30.9573C107.922 29.9198 108.463 28.5899 108.463 26.9696C108.463 25.3494 107.922 24.0205 106.841 22.981C105.76 21.9435 104.445 21.4233 102.894 21.4233C101.343 21.4233 100.027 21.9425 98.9468 22.981Z" fill="#718595"/>
<path d="M125.97 31.9072H128.753V36.5026H125.244C123.082 36.5026 121.386 35.9708 120.153 34.9073C118.919 33.8438 118.303 32.3755 118.303 30.5014V22.0693H114.947V17.5115H118.303V12.2315L123.261 11.168V17.5105H128.753V22.0684H123.261V29.361C123.261 30.1466 123.496 30.7668 123.967 31.2216C124.437 31.6774 125.104 31.9053 125.97 31.9053V31.9072Z" fill="#718595"/>
<path d="M133.56 34.2997C131.525 32.3756 130.509 29.9323 130.509 26.9696C130.509 24.007 131.525 21.5637 133.56 19.6386C135.593 17.7145 138.085 16.752 141.035 16.752C143.985 16.752 146.476 17.7145 148.511 19.6386C150.545 21.5637 151.562 24.0061 151.562 26.9696C151.562 29.9332 150.544 32.3766 148.511 34.2997C146.476 36.2248 143.984 37.1864 141.035 37.1864C138.086 37.1864 135.593 36.2248 133.56 34.2997ZM137.087 22.981C136.006 24.0195 135.466 25.3494 135.466 26.9696C135.466 28.5899 136.006 29.9198 137.087 30.9573C138.167 31.9958 139.484 32.515 141.034 32.515C142.585 32.515 143.901 31.9968 144.982 30.9573C146.062 29.9198 146.603 28.5899 146.603 26.9696C146.603 25.3494 146.062 24.0205 144.982 22.981C143.9 21.9435 142.585 21.4233 141.034 21.4233C139.484 21.4233 138.167 21.9425 137.087 22.981Z" fill="#718595"/>
<path d="M169.315 14.1691C168.742 13.5873 168.457 12.8719 168.457 12.0229C168.457 11.1738 168.742 10.4651 169.315 9.89586C169.887 9.3266 170.598 9.04102 171.451 9.04102C172.303 9.04102 173.015 9.32564 173.587 9.89586C174.159 10.4651 174.445 11.1748 174.445 12.0229C174.445 12.871 174.159 13.5864 173.587 14.1691C173.015 14.7518 172.302 15.0422 171.451 15.0422C170.599 15.0422 169.888 14.7518 169.315 14.1691ZM168.991 36.5026V17.5115H173.911V36.5026H168.991Z" fill="#718595"/>
<path d="M184.894 29.1729C179.961 28.4892 177.495 26.5016 177.495 23.2101C177.495 21.413 178.162 19.9312 179.498 18.7667C180.833 17.6022 182.542 17.0195 184.628 17.0195C186.433 17.0195 188.08 17.4888 189.567 18.4254C191.054 19.3629 192.128 20.6033 192.79 22.1476L187.984 23.5909C187.704 22.8823 187.272 22.3245 186.687 21.9197C186.102 21.5149 185.453 21.312 184.743 21.312C184.032 21.312 183.496 21.4707 183.065 21.787C182.632 22.1043 182.417 22.5082 182.417 23.0024C182.417 23.4967 182.683 23.8948 183.217 24.1986C183.751 24.5025 184.603 24.7439 185.772 24.9208C188.137 25.2246 189.961 25.9026 191.245 26.9526C192.528 28.0036 193.171 29.3267 193.171 30.922C193.171 32.6692 192.465 34.1067 191.055 35.2327C189.644 36.3597 187.87 36.9232 185.734 36.9232C183.802 36.9232 182.054 36.4674 180.49 35.5558C178.927 34.6442 177.801 33.4163 177.115 31.8711L181.883 30.3518C182.213 31.1374 182.708 31.7576 183.371 32.2134C184.031 32.6692 184.781 32.8971 185.62 32.8971C186.357 32.8971 186.974 32.7259 187.471 32.3845C187.967 32.0432 188.214 31.6191 188.214 31.1124C188.214 30.6056 187.953 30.2008 187.432 29.8969C186.91 29.5931 186.065 29.3527 184.895 29.1758L184.894 29.1729Z" fill="#718595"/>
<path d="M206.215 31.9072H208.999V36.5026H205.49C203.328 36.5026 201.632 35.9708 200.398 34.9073C199.164 33.8438 198.548 32.3755 198.548 30.5014V22.0693H195.192V17.5115H198.548V12.2315L203.507 11.168V17.5105H208.999V22.0684H203.507V29.361C203.507 30.1466 203.741 30.7668 204.213 31.2216C204.683 31.6774 205.35 31.9053 206.215 31.9053V31.9072Z" fill="#718595"/>
<path d="M159.735 36.5028H154.907V27.4188C154.907 21.8513 159.455 17.3223 165.045 17.3223H166.132V22.1301H165.045C162.117 22.1301 159.735 24.5023 159.735 27.4188V36.5028Z" fill="#718595"/>
<path d="M15.0389 9.77051L18.7264 13.4428C14.3929 17.7583 14.3929 24.7797 18.7264 29.0953C23.0599 33.4108 30.1105 33.4108 34.444 29.0953L38.1315 32.7675C31.7645 39.1082 21.4059 39.1082 15.0389 32.7675C8.67193 26.4269 8.67193 16.1111 15.0389 9.77051Z" fill="#718595"/>
<path d="M7.77779 2.53809L11.4653 6.21034C3.12856 14.5126 3.12759 28.0227 11.4653 36.3249C19.803 44.6281 33.3684 44.6281 41.7051 36.3249L45.3926 39.9972C35.0224 50.3245 18.148 50.3245 7.77682 39.9972C-2.59439 29.6699 -2.59342 12.8654 7.77682 2.53809H7.77779Z" fill="#718595"/>
<path d="M11.4836 6.22908C15.5178 2.21258 20.8806 0 26.5862 0C32.2917 0 37.6545 2.21258 41.6877 6.22908C45.7219 10.2465 47.9427 15.5871 47.9427 21.2681C47.9427 26.9491 45.7209 32.2906 41.6877 36.3071L38.1373 32.7714C44.5072 26.4279 44.5072 16.1073 38.1373 9.76383C31.7674 3.42032 21.4039 3.42032 15.0341 9.76383L11.4836 6.22812V6.22908Z" fill="#718595"/>
</g>
<defs>
<clipPath id="clip0_3824_705">
<rect width="209" height="51" fill="white"/>
</clipPath>
</defs>
</svg>
