<svg width="24" height="24" viewBox="0 0 24 24" fill="none" xmlns="http://www.w3.org/2000/svg">
<path d="M16.7998 1.5C17.3516 1.5 17.7957 1.5 18.1543 1.5293C18.5186 1.55907 18.8387 1.62163 19.1348 1.77246C19.6052 2.01214 19.9879 2.39483 20.2275 2.86523C20.3784 3.16133 20.4409 3.48136 20.4707 3.8457C20.5 4.20429 20.5 4.64839 20.5 5.2002V18.7998L20.4961 19.5498C20.4925 19.7745 20.4853 19.9751 20.4707 20.1543C20.4409 20.5186 20.3784 20.8387 20.2275 21.1348C19.9879 21.6052 19.6052 21.9879 19.1348 22.2275C18.8387 22.3784 18.5186 22.4409 18.1543 22.4707C17.9751 22.4853 17.7745 22.4925 17.5498 22.4961L16.7998 22.5H7.2002C6.64839 22.5 6.20429 22.5 5.8457 22.4707C5.48136 22.4409 5.16133 22.3784 4.86523 22.2275C4.39483 21.9879 4.01214 21.6052 3.77246 21.1348C3.62163 20.8387 3.55907 20.5186 3.5293 20.1543C3.5 19.7957 3.5 19.3516 3.5 18.7998V8C3.5 7.82006 3.59564 7.66326 3.73828 7.5752C3.76087 7.54092 3.78624 7.50673 3.81738 7.47559L9.47559 1.81738C9.50673 1.78624 9.54092 1.76087 9.5752 1.73828C9.66326 1.59564 9.82006 1.5 10 1.5H16.7998ZM10.5 7C10.5 7.82843 9.82843 8.5 9 8.5H4.5V18.7998C4.5 19.3681 4.50019 19.7648 4.52539 20.0732C4.55009 20.3753 4.59613 20.5491 4.66309 20.6807C4.8069 20.9629 5.03709 21.1931 5.31934 21.3369C5.45091 21.4039 5.62471 21.4499 5.92676 21.4746C6.23518 21.4998 6.63189 21.5 7.2002 21.5H16.7998C17.3681 21.5 17.7648 21.4998 18.0732 21.4746C18.3753 21.4499 18.5491 21.4039 18.6807 21.3369C18.9629 21.1931 19.1931 20.9629 19.3369 20.6807C19.4039 20.5491 19.4499 20.3753 19.4746 20.0732C19.4998 19.7648 19.5 19.3681 19.5 18.7998V5.2002C19.5 4.63189 19.4998 4.23518 19.4746 3.92676C19.4499 3.62471 19.4039 3.45091 19.3369 3.31934C19.1931 3.03709 18.9629 2.8069 18.6807 2.66309C18.5491 2.59613 18.3753 2.55009 18.0732 2.52539C17.7648 2.50019 17.3681 2.5 16.7998 2.5H10.5V7ZM16 15.5C16.2761 15.5 16.5 15.7239 16.5 16C16.5 16.2761 16.2761 16.5 16 16.5H8C7.72386 16.5 7.5 16.2761 7.5 16C7.5 15.7239 7.72386 15.5 8 15.5H16ZM16 11.5C16.2761 11.5 16.5 11.7239 16.5 12C16.5 12.2761 16.2761 12.5 16 12.5H8C7.72386 12.5 7.5 12.2761 7.5 12C7.5 11.7239 7.72386 11.5 8 11.5H16ZM16 7.5C16.2761 7.5 16.5 7.72386 16.5 8C16.5 8.27614 16.2761 8.5 16 8.5H14C13.7239 8.5 13.5 8.27614 13.5 8C13.5 7.72386 13.7239 7.5 14 7.5H16ZM5.20703 7.5H9C9.27614 7.5 9.5 7.27614 9.5 7V3.20703L5.20703 7.5Z" fill="#718595"/>
</svg>
