<svg width="24" height="24" viewBox="0 0 24 24" fill="none" xmlns="http://www.w3.org/2000/svg">
<path d="M4.61523 4.79492C6.95892 2.79876 10.0161 3.25066 11.9932 5.18457C13.9687 3.24949 16.9916 2.82207 19.3672 4.79004C21.8737 6.86678 22.1768 10.4057 20.2441 12.8848C19.4806 13.8641 17.9701 15.3573 16.4941 16.7461C15.0087 18.1437 13.5258 19.4653 12.7939 20.1113C12.7182 20.1782 12.6396 20.2485 12.5674 20.3027C12.4892 20.3614 12.3904 20.4235 12.2646 20.4609C12.0887 20.5131 11.8986 20.5133 11.7227 20.4609C11.597 20.4236 11.499 20.3613 11.4209 20.3027C11.3486 20.2485 11.2701 20.1782 11.1943 20.1113C10.4626 19.4653 8.97891 18.144 7.49316 16.7461C6.01701 15.3572 4.50663 13.8641 3.74316 12.8848C1.80615 10.4001 2.1595 6.88669 4.61523 4.79492ZM11.6143 6.24219C9.96224 4.31694 7.27293 3.84459 5.26367 5.55566C3.21068 7.30439 2.92839 10.2122 4.53223 12.2695C5.24085 13.1785 6.69441 14.621 8.17871 16.0176C9.65337 17.4051 11.1272 18.7194 11.8555 19.3623C11.9205 19.4197 11.9627 19.4546 11.9932 19.4795C12.0236 19.4546 12.0664 19.4201 12.1318 19.3623C12.8601 18.7194 14.3349 17.4051 15.8096 16.0176C17.2937 14.6212 18.7464 13.1785 19.4551 12.2695C21.0634 10.2065 20.8094 7.28391 18.7295 5.56055C16.6763 3.85944 14.0214 4.32124 12.373 6.24219C12.2781 6.35247 12.1397 6.41593 11.9941 6.41602C11.8484 6.41598 11.7092 6.35271 11.6143 6.24219Z" fill="#718595"/>
</svg>
