<svg width="40" height="40" viewBox="0 0 40 40" fill="none" xmlns="http://www.w3.org/2000/svg">
<path d="M9.19751 10.127C12.4669 7.24501 16.7269 7.88786 19.4905 10.6436C22.2519 7.88593 26.4645 7.27925 29.7776 10.1201C33.2737 13.1183 33.6906 18.2119 31.0022 21.7812C29.9399 23.1915 27.8402 25.3397 25.7903 27.3359C23.7263 29.3459 21.6653 31.2469 20.6487 32.1758C20.5442 32.2713 20.4336 32.3727 20.3313 32.4521C20.2205 32.5382 20.077 32.6331 19.8909 32.6904C19.6317 32.7701 19.3512 32.7701 19.092 32.6904C18.906 32.6331 18.7624 32.5382 18.6516 32.4521C18.5494 32.3727 18.4387 32.2712 18.3342 32.1758C17.3177 31.247 15.2576 29.3459 13.1936 27.3359C11.1438 25.3397 9.04412 23.1916 7.98169 21.7812C5.2868 18.2035 5.77253 13.1463 9.19751 10.127ZM18.9143 12.2334C16.633 9.48179 12.9454 8.82294 10.1897 11.252C7.35221 13.7533 6.95688 17.9264 9.17993 20.8779C10.1622 22.1819 12.1778 24.254 14.2395 26.2617C16.2872 28.2558 18.3346 30.1443 19.3459 31.0684C19.4038 31.1213 19.4492 31.1624 19.4885 31.1973C19.4894 31.198 19.4906 31.1985 19.4915 31.1992C19.4923 31.1985 19.4936 31.198 19.4944 31.1973C19.5337 31.1625 19.5792 31.1211 19.637 31.0684C20.6483 30.1443 22.6958 28.2557 24.7434 26.2617C26.8051 24.254 28.8218 22.1819 29.804 20.8779C32.0329 17.9182 31.6754 13.7232 28.802 11.2588C25.9849 8.84303 22.3442 9.48876 20.0686 12.2334C19.9262 12.405 19.7145 12.5048 19.4915 12.5049C19.2684 12.5048 19.0567 12.405 18.9143 12.2334Z" fill="#041D2C"/>
</svg>
