<svg width="24" height="24" viewBox="0 0 24 24" fill="none" xmlns="http://www.w3.org/2000/svg">
<path d="M18.9249 4C20.4838 4.0002 21.2644 5.88491 20.1623 6.9873L15.1623 11.9873C15.1156 12.0341 15.0891 12.0979 15.089 12.1641V18.75C15.089 19.78 13.9131 20.368 13.089 19.75L10.2892 17.6504C9.84874 17.3199 9.58901 16.8007 9.58901 16.25V12.1641C9.58897 12.0978 9.56262 12.0342 9.51577 11.9873L4.51577 6.9873C3.41385 5.88496 4.19447 4.00043 5.75307 4H18.9249ZM5.75307 5.5C5.53083 5.50043 5.41935 5.76936 5.57632 5.92676L10.5763 10.9268C10.9045 11.2549 11.089 11.7 11.089 12.1641V16.25C11.089 16.3285 11.1259 16.403 11.1886 16.4502L13.589 18.25V12.1641C13.5891 11.7001 13.7737 11.2549 14.1017 10.9268L19.1017 5.92676C19.259 5.76931 19.1474 5.5002 18.9249 5.5H5.75307Z" fill="white"/>
</svg>
