<svg width="24" height="24" viewBox="0 0 24 24" fill="none" xmlns="http://www.w3.org/2000/svg">
<path d="M13.2256 1.5C14.9317 1.5003 16.1362 3.17233 15.5967 4.79102L14.9297 6.79102C14.815 7.1349 14.629 7.43952 14.3936 7.69434C14.4376 7.75095 14.4717 7.81694 14.4883 7.8916L16.2803 15.9561C16.4445 16.6952 16.265 17.4693 15.792 18.0605L13.9521 20.3604C12.9513 21.6112 11.0487 21.6112 10.0479 20.3604L8.20801 18.0605C7.73503 17.4693 7.55548 16.6952 7.71973 15.9561L9.51172 7.8916C9.52827 7.81714 9.56162 7.75085 9.60547 7.69434C9.3702 7.43954 9.18397 7.13481 9.06934 6.79102L8.40332 4.79102C7.86376 3.17232 9.06824 1.50028 10.7744 1.5H13.2256ZM13.5518 8.29199C13.2445 8.42526 12.9083 8.49998 12.5586 8.5H11.4414C11.0913 8.49999 10.7548 8.42548 10.4473 8.29199L8.69629 16.1729C8.59774 16.6163 8.70547 17.0808 8.98926 17.4355L10.8291 19.7354C11.4296 20.4858 12.5704 20.4858 13.1709 19.7354L15.0107 17.4355C15.2945 17.0808 15.4023 16.6163 15.3037 16.1729L13.5518 8.29199ZM10.7744 2.5C9.7508 2.50028 9.02784 3.50345 9.35156 4.47461L10.0186 6.47461C10.2228 7.08695 10.7959 7.49996 11.4414 7.5H12.5586C13.2041 7.49994 13.7772 7.08694 13.9814 6.47461L14.6484 4.47461C14.9722 3.50346 14.2492 2.5003 13.2256 2.5H10.7744Z" fill="#35AFDA"/>
</svg>
