<svg width="24" height="24" viewBox="0 0 24 24" fill="none" xmlns="http://www.w3.org/2000/svg">
<path d="M12.0635 5.5C14.5426 5.50026 16.5635 7.48682 16.5635 9.9502C16.5633 12.4134 14.5425 14.3992 12.0635 14.3994C9.58425 14.3994 7.56266 12.4136 7.5625 9.9502C7.5625 7.48666 9.58416 5.5 12.0635 5.5ZM12.0635 6.5C10.1245 6.5 8.56348 8.05079 8.56348 9.9502C8.56364 11.8495 10.1246 13.3994 12.0635 13.3994C14.0021 13.3992 15.5633 11.8493 15.5635 9.9502C15.5635 8.05095 14.0022 6.50026 12.0635 6.5Z" fill="#35AFDA"/>
<path d="M12.0635 13.3994C13.3787 13.3995 14.6717 13.7419 15.8115 14.3916C16.9512 15.0413 17.8984 15.9768 18.5576 17.1035C18.6967 17.3418 18.6171 17.6487 18.3789 17.7881C18.1408 17.9272 17.8348 17.8463 17.6953 17.6084C17.1253 16.6341 16.3047 15.8242 15.3164 15.2607C14.3279 14.6974 13.2056 14.4005 12.0635 14.4004C10.9212 14.4004 9.79916 14.6973 8.81055 15.2607C7.82204 15.8241 7.00175 16.634 6.43164 17.6084C6.29218 17.8464 5.98527 17.9262 5.74707 17.7871C5.50924 17.6476 5.4293 17.3416 5.56836 17.1035C6.22767 15.9766 7.17545 15.0413 8.31543 14.3916C9.45536 13.742 10.7482 13.3994 12.0635 13.3994Z" fill="#35AFDA"/>
</svg>
