<svg width="37" height="37" viewBox="0 0 37 37" fill="none" xmlns="http://www.w3.org/2000/svg">
<path d="M24.3871 8C22.2108 8 20.1856 8.68298 18.5 9.85217C16.8142 8.68298 14.7891 8 12.6129 8C6.76097 8 2 12.9346 2 19C2 25.0654 6.76097 30 12.6129 30C14.7891 30 16.8144 29.317 18.5 28.1478C20.1858 29.317 22.2108 30 24.3871 30C30.239 30 35 25.0654 35 19C35 12.9346 30.239 8 24.3871 8ZM24.3871 27.9956C21.227 27.9956 18.4559 26.2356 16.9383 23.612H18.0536C18.5876 23.612 19.0205 23.1634 19.0205 22.6098C19.0205 22.0565 18.5876 21.6077 18.0536 21.6077H16.0803C15.9609 21.2 15.8685 20.7806 15.8056 20.3508H19.6008C20.1344 20.3508 20.5676 19.9022 20.5676 19.3487C20.5676 18.7954 20.1344 18.3464 19.6008 18.3464H15.7308C15.7605 17.9187 15.8197 17.4991 15.9055 17.0899H18.0536C18.5876 17.0899 19.0205 16.641 19.0205 16.0877C19.0205 15.5341 18.5876 15.0855 18.0536 15.0855H16.5737C17.9806 12.0809 20.9543 10.0043 24.3871 10.0043C29.1728 10.0043 33.0664 14.0398 33.0664 19C33.0664 23.9602 29.1728 27.9956 24.3871 27.9956Z" fill="#718595"/>
</svg>
