<svg width="30" height="30" viewBox="0 0 30 30" fill="none" xmlns="http://www.w3.org/2000/svg">
<path fill-rule="evenodd" clip-rule="evenodd" d="M15.6612 21.9572C14.1891 21.9572 13.505 21.7414 12.3159 20.878C11.5637 21.8493 9.18194 22.6083 9.07808 21.3097C9.07808 20.3349 8.86318 19.5111 8.61963 18.6118C8.32951 17.5039 8 16.27 8 14.4822C8 10.2123 11.4885 7 15.6218 7C19.7586 7 23 10.3706 23 14.5218C23.0138 18.6087 19.7304 21.9354 15.6612 21.9572ZM15.722 10.6907C13.7092 10.5864 12.1404 11.9857 11.793 14.18C11.5064 15.9966 12.015 18.2089 12.4484 18.324C12.6561 18.3744 13.1791 17.9499 13.505 17.6226C14.0439 17.9965 14.6715 18.2211 15.3245 18.2737C17.4102 18.3744 19.1923 16.7797 19.3323 14.6872C19.4139 12.5904 17.808 10.8143 15.722 10.6943L15.722 10.6907Z" fill="white"/>
</svg>
