<svg width="37" height="37" viewBox="0 0 37 37" fill="none" xmlns="http://www.w3.org/2000/svg">
<path d="M9.92327 15.3996L8.80963 19.2625H8.6191L7.50547 15.3996C7.31494 14.7459 6.71706 14.2959 6.03377 14.2959H3.36304V22.705H6.03706V17.7351H6.2276L7.75843 22.705H9.67033L11.1979 17.7351H11.3884V22.705H14.0625V14.2959H11.3917C10.7117 14.2959 10.1138 14.7459 9.92327 15.3996ZM24.7289 22.705H27.4193V20.2184H30.1263C31.5421 20.2184 32.7478 19.4169 33.2142 18.2902H24.7289V22.705ZM19.9624 15.1828L18.08 19.2658H17.8895V14.2959H15.2155V22.705H17.4854C18.0833 22.705 18.6253 22.3568 18.875 21.8181L20.7573 17.7384H20.9479V22.705H23.6219V14.2959H21.3519C20.754 14.2959 20.212 14.6441 19.9624 15.1828Z" fill="#718595"/>
<path d="M30.3923 14.2959C31.1643 14.2959 31.864 14.5915 32.3928 15.0777C32.9842 15.6164 33.3554 16.3916 33.3554 17.2555C33.3554 17.4329 33.3357 17.607 33.3061 17.7778H28.3391C26.6572 17.7778 25.2315 16.6741 24.7519 15.1499C24.7453 15.1335 24.742 15.1138 24.7354 15.0941C24.7223 15.0481 24.7124 14.9988 24.6993 14.9529C24.6501 14.7393 24.6172 14.5225 24.604 14.2959H30.3923Z" fill="#718595"/>
</svg>
