<svg width="50" height="50" viewBox="0 0 50 50" fill="none" xmlns="http://www.w3.org/2000/svg">
<path d="M12.3452 24.8042C14.6832 23.5163 17.293 22.4415 19.7315 21.3612C23.9267 19.5917 28.1385 17.8528 32.3928 16.234C33.2206 15.9582 34.7078 15.6884 34.8537 16.9151C34.7738 18.6514 34.4453 20.3776 34.22 22.1037C33.6481 25.8997 32.9871 29.6827 32.3425 33.4662C32.1204 34.7265 30.5417 35.3789 29.5315 34.5724C27.1038 32.9326 24.6575 31.3087 22.2608 29.6309C21.4757 28.8332 22.2037 27.6876 22.9049 27.1179C24.9044 25.1474 27.0249 23.4732 28.9199 21.4009C29.4311 20.1665 27.9207 21.2068 27.4226 21.5256C24.6852 23.4119 22.0149 25.4134 19.1289 27.0712C17.6547 27.8827 15.9366 27.1892 14.4631 26.7364C13.1419 26.1894 11.206 25.6382 12.3452 24.8042Z" fill="white"/>
</svg>
