<svg width="34" height="34" viewBox="0 0 34 34" fill="none" xmlns="http://www.w3.org/2000/svg">
<g opacity="0.5">
<path d="M27.6291 25.8821L21.9064 20.2814C23.2727 18.4979 23.9124 16.2621 23.6966 14.025C23.4808 11.7878 22.4254 9.71589 20.7435 8.22713C19.0616 6.73837 16.8782 5.94358 14.6339 6.00312C12.3896 6.06265 10.2514 6.97207 8.65055 8.54791C7.04974 10.1238 6.1055 12.2487 6.00832 14.4942C5.91114 16.7396 6.66825 18.9384 8.12691 20.6469C9.58558 22.3555 11.6372 23.4466 13.868 23.7002C16.0987 23.9539 18.3426 23.3511 20.1468 22.0136L25.9037 27.6479C26.0196 27.7613 26.1565 27.8508 26.3069 27.9112C26.4572 27.9716 26.618 28.0017 26.78 27.9999C26.942 27.9981 27.1021 27.9644 27.251 27.9007C27.4 27.837 27.535 27.7445 27.6483 27.6286C27.7616 27.5126 27.8509 27.3755 27.9113 27.2249C27.9716 27.0744 28.0017 26.9135 27.9999 26.7513C27.9981 26.5892 27.9644 26.4289 27.9008 26.2798C27.8371 26.1306 27.7449 25.9955 27.6291 25.8821ZM7.71614 14.9036C7.71809 13.4806 8.14138 12.0901 8.93251 10.9079C9.72365 9.72569 10.8471 8.80478 12.1609 8.26157C13.4747 7.71837 14.9199 7.57726 16.3138 7.85606C17.7077 8.13487 18.9878 8.82109 19.9922 9.82799C20.9966 10.8349 21.6803 12.1173 21.9569 13.5131C22.2335 14.9089 22.0906 16.3554 21.5462 17.6699C21.0017 18.9844 20.0803 20.1078 18.8983 20.8982C17.7162 21.6886 16.3267 22.1104 14.9052 22.1104C12.9979 22.107 11.1698 21.3463 9.82206 19.9952C8.47429 18.6441 7.71693 16.813 7.71614 14.9036Z" fill="white"/>
</g>
</svg>
