<svg width="24" height="24" viewBox="0 0 24 24" fill="none" xmlns="http://www.w3.org/2000/svg">
<path d="M5.18124 12.1864C6.40887 11.574 7.77924 11.0629 9.05965 10.5492C11.2624 9.70784 13.474 8.88102 15.7079 8.11126C16.1425 7.9801 16.9234 7.85184 17 8.43512C16.9581 9.26075 16.7856 10.0815 16.6673 10.9023C16.367 12.7073 16.0199 14.5062 15.6814 16.3052C15.5648 16.9045 14.7359 17.2147 14.2054 16.8312C12.9307 16.0515 11.6462 15.2793 10.3878 14.4815C9.97552 14.1022 10.3578 13.5575 10.7259 13.2866C11.7758 12.3496 12.8893 11.5535 13.8843 10.5681C14.1527 9.98117 13.3597 10.4759 13.0981 10.6274C11.6608 11.5244 10.2586 12.4761 8.74325 13.2644C7.96919 13.6503 7.06701 13.3205 6.29331 13.1052C5.59958 12.8451 4.58309 12.583 5.18124 12.1864Z" fill="#2097C9"/>
</svg>
