<svg width="24" height="24" viewBox="0 0 24 24" fill="none" xmlns="http://www.w3.org/2000/svg">
<path d="M12 2.25C14.2825 2.25 16.25 3.95683 16.25 6.2002V6.25H19C19.4142 6.25 19.75 6.58579 19.75 7C19.75 7.41421 19.4142 7.75 19 7.75H18.75V17.7998C18.75 18.3475 18.751 18.8037 18.7207 19.1748C18.6897 19.5545 18.6219 19.9109 18.4502 20.248C18.1865 20.7655 17.7655 21.1865 17.248 21.4502C16.9109 21.6219 16.5545 21.6897 16.1748 21.7207C15.8037 21.751 15.3475 21.75 14.7998 21.75H9.2002C8.65252 21.75 8.19632 21.751 7.8252 21.7207C7.44546 21.6897 7.0891 21.6219 6.75195 21.4502C6.23451 21.1865 5.81346 20.7655 5.5498 20.248C5.37809 19.9109 5.31033 19.5545 5.2793 19.1748C5.24897 18.8037 5.25 18.3475 5.25 17.7998V7.75H5C4.58579 7.75 4.25 7.41421 4.25 7C4.25 6.58579 4.58579 6.25 5 6.25H7.75V6.2002C7.75 3.95683 9.71746 2.25 12 2.25ZM6.75 17.7998C6.75 18.3722 6.75024 18.7569 6.77441 19.0527C6.79788 19.3397 6.84059 19.4768 6.88672 19.5674C7.00654 19.8025 7.1975 19.9935 7.43262 20.1133C7.52316 20.1594 7.66027 20.2021 7.94727 20.2256C8.24314 20.2498 8.62777 20.25 9.2002 20.25H14.7998C15.3722 20.25 15.7569 20.2498 16.0527 20.2256C16.3397 20.2021 16.4768 20.1594 16.5674 20.1133C16.8025 19.9935 16.9935 19.8025 17.1133 19.5674C17.1594 19.4768 17.2021 19.3397 17.2256 19.0527C17.2498 18.7569 17.25 18.3722 17.25 17.7998V7.75H6.75V17.7998ZM12 3.75C10.4165 3.75 9.25 4.90894 9.25 6.2002V6.25H14.75V6.2002C14.75 4.90894 13.5835 3.75 12 3.75Z" fill="#35AFDA"/>
</svg>
